solid Composite Mesh
facet normal 1.0000 0.0000 0.0000
outer loop
	vertex 0.5000 -11.8625 -3.9488
	vertex 0.5000 -11.5175 -4.8638
	vertex 0.5000 -11.1038 -5.7425
endloop
endfacet
facet normal 1.0000 0.0000 0.0000
outer loop
	vertex 0.5000 11.8625 -3.9488
	vertex 0.5000 12.1363 -3.0025
	vertex 0.5000 12.3363 -2.0263
endloop
endfacet
facet normal 1.0000 0.0000 0.0000
outer loop
	vertex 0.5000 12.3363 -2.0263
	vertex 0.5000 12.4588 -1.0250
	vertex 0.5000 11.8625 -3.9488
endloop
endfacet
facet normal 1.0000 0.0000 0.0000
outer loop
	vertex 0.5000 11.8625 -3.9488
	vertex 0.5000 12.4588 -1.0250
	vertex 0.5000 12.5000 0.0000
endloop
endfacet
facet normal 1.0000 0.0000 0.0000
outer loop
	vertex 0.5000 11.1038 -5.7425
	vertex 0.5000 11.5175 -4.8638
	vertex 0.5000 11.8625 -3.9488
endloop
endfacet
facet normal 1.0000 0.0000 0.0000
outer loop
	vertex 0.5000 11.1038 -5.7425
	vertex 0.5000 11.8625 -3.9488
	vertex 0.5000 12.5000 0.0000
endloop
endfacet
facet normal 1.0000 0.0000 0.0000
outer loop
	vertex 0.5000 10.0863 -7.3800
	vertex 0.5000 10.6263 -6.5825
	vertex 0.5000 11.1038 -5.7425
endloop
endfacet
facet normal 1.0000 0.0000 0.0000
outer loop
	vertex 0.5000 10.0863 -7.3800
	vertex 0.5000 11.1038 -5.7425
	vertex 0.5000 12.5000 0.0000
endloop
endfacet
facet normal 1.0000 0.0000 0.0000
outer loop
	vertex 0.5000 10.0863 7.3800
	vertex 0.5000 11.1038 5.7425
	vertex 0.5000 10.6263 6.5825
endloop
endfacet
facet normal 1.0000 0.0000 0.0000
outer loop
	vertex 0.5000 11.8625 3.9488
	vertex 0.5000 12.3363 2.0263
	vertex 0.5000 12.1363 3.0025
endloop
endfacet
facet normal 1.0000 0.0000 0.0000
outer loop
	vertex 0.5000 11.8625 3.9488
	vertex 0.5000 11.5175 4.8638
	vertex 0.5000 12.3363 2.0263
endloop
endfacet
facet normal 1.0000 0.0000 0.0000
outer loop
	vertex 0.5000 11.5175 4.8638
	vertex 0.5000 12.4588 1.0250
	vertex 0.5000 12.3363 2.0263
endloop
endfacet
facet normal 1.0000 0.0000 0.0000
outer loop
	vertex 0.5000 12.5000 0.0000
	vertex 0.5000 12.4588 1.0250
	vertex 0.5000 11.5175 4.8638
endloop
endfacet
facet normal 1.0000 0.0000 0.0000
outer loop
	vertex 0.5000 11.1038 5.7425
	vertex 0.5000 12.5000 0.0000
	vertex 0.5000 11.5175 4.8638
endloop
endfacet
facet normal 1.0000 0.0000 0.0000
outer loop
	vertex 0.5000 12.5000 0.0000
	vertex 0.5000 11.1038 5.7425
	vertex 0.5000 10.0863 7.3800
endloop
endfacet
facet normal 1.0000 0.0000 0.0000
outer loop
	vertex 0.5000 10.0863 7.3800
	vertex 0.5000 10.0863 -7.3800
	vertex 0.5000 12.5000 0.0000
endloop
endfacet
facet normal 1.0000 0.0000 0.0000
outer loop
	vertex 0.5000 9.4900 8.1325
	vertex 0.5000 8.8375 8.8375
	vertex 0.5000 8.1325 9.4900
endloop
endfacet
facet normal 1.0000 0.0000 0.0000
outer loop
	vertex 0.5000 10.0863 7.3800
	vertex 0.5000 9.4900 8.1325
	vertex 0.5000 8.1325 9.4900
endloop
endfacet
facet normal 1.0000 0.0000 0.0000
outer loop
	vertex 0.5000 8.1325 9.4900
	vertex 0.5000 10.0863 -7.3800
	vertex 0.5000 10.0863 7.3800
endloop
endfacet
facet normal 1.0000 0.0000 0.0000
outer loop
	vertex 0.5000 10.0863 -7.3800
	vertex 0.5000 8.1325 9.4900
	vertex 0.5000 9.4900 -8.1325
endloop
endfacet
facet normal 1.0000 0.0000 0.0000
outer loop
	vertex 0.5000 9.4900 -8.1325
	vertex 0.5000 8.1325 -9.4900
	vertex 0.5000 8.8375 -8.8375
endloop
endfacet
facet normal 1.0000 0.0000 0.0000
outer loop
	vertex 0.5000 9.4900 -8.1325
	vertex 0.5000 7.3800 -10.0863
	vertex 0.5000 8.1325 -9.4900
endloop
endfacet
facet normal 1.0000 0.0000 0.0000
outer loop
	vertex 0.5000 -7.3800 -10.0863
	vertex 0.5000 -6.5825 -10.6263
	vertex 0.5000 -5.7425 -11.1038
endloop
endfacet
facet normal 1.0000 0.0000 0.0000
outer loop
	vertex 0.5000 -5.7425 -11.1038
	vertex 0.5000 -4.8638 -11.5175
	vertex 0.5000 -3.9488 -11.8625
endloop
endfacet
facet normal 1.0000 0.0000 0.0000
outer loop
	vertex 0.5000 -3.0025 -12.1363
	vertex 0.5000 -5.7425 -11.1038
	vertex 0.5000 -3.9488 -11.8625
endloop
endfacet
facet normal 1.0000 0.0000 0.0000
outer loop
	vertex 0.5000 -1.0250 -12.4588
	vertex 0.5000 -3.0025 -12.1363
	vertex 0.5000 -2.0263 -12.3363
endloop
endfacet
facet normal 1.0000 0.0000 0.0000
outer loop
	vertex 0.5000 5.7425 -11.1038
	vertex 0.5000 3.9488 -11.8625
	vertex 0.5000 4.8638 -11.5175
endloop
endfacet
facet normal 1.0000 0.0000 0.0000
outer loop
	vertex 0.5000 3.0025 -12.1363
	vertex 0.5000 3.9488 -11.8625
	vertex 0.5000 5.7425 -11.1038
endloop
endfacet
facet normal 1.0000 0.0000 0.0000
outer loop
	vertex 0.5000 7.3800 -10.0863
	vertex 0.5000 5.7425 -11.1038
	vertex 0.5000 6.5825 -10.6263
endloop
endfacet
facet normal 1.0000 0.0000 0.0000
outer loop
	vertex 0.5000 5.7425 -11.1038
	vertex 0.5000 7.3800 -10.0863
	vertex 0.5000 3.0025 -12.1363
endloop
endfacet
facet normal 1.0000 0.0000 0.0000
outer loop
	vertex 0.5000 7.3800 -10.0863
	vertex 0.5000 2.0263 -12.3363
	vertex 0.5000 3.0025 -12.1363
endloop
endfacet
facet normal 1.0000 0.0000 0.0000
outer loop
	vertex 0.5000 7.3800 -10.0863
	vertex 0.5000 1.0250 -12.4588
	vertex 0.5000 2.0263 -12.3363
endloop
endfacet
facet normal 1.0000 0.0000 0.0000
outer loop
	vertex 0.5000 7.3800 -10.0863
	vertex 0.5000 0.0000 -12.5000
	vertex 0.5000 1.0250 -12.4588
endloop
endfacet
facet normal 1.0000 0.0000 0.0000
outer loop
	vertex 0.5000 0.0000 -12.5000
	vertex 0.5000 7.3800 -10.0863
	vertex 0.5000 -1.0250 -12.4588
endloop
endfacet
facet normal 1.0000 0.0000 0.0000
outer loop
	vertex 0.5000 7.3800 -10.0863
	vertex 0.5000 -3.0025 -12.1363
	vertex 0.5000 -1.0250 -12.4588
endloop
endfacet
facet normal 1.0000 0.0000 0.0000
outer loop
	vertex 0.5000 -3.0025 -12.1363
	vertex 0.5000 7.3800 -10.0863
	vertex 0.5000 -5.7425 -11.1038
endloop
endfacet
facet normal 1.0000 0.0000 0.0000
outer loop
	vertex 0.5000 -5.7425 -11.1038
	vertex 0.5000 7.3800 -10.0863
	vertex 0.5000 -7.3800 -10.0863
endloop
endfacet
facet normal 1.0000 0.0000 0.0000
outer loop
	vertex 0.5000 -7.3800 -10.0863
	vertex 0.5000 7.3800 -10.0863
	vertex 0.5000 9.4900 -8.1325
endloop
endfacet
facet normal 1.0000 0.0000 0.0000
outer loop
	vertex 0.5000 -7.3800 -10.0863
	vertex 0.5000 9.4900 -8.1325
	vertex 0.5000 -8.1325 -9.4900
endloop
endfacet
facet normal 1.0000 0.0000 0.0000
outer loop
	vertex 0.5000 -8.8375 -8.8375
	vertex 0.5000 -8.1325 -9.4900
	vertex 0.5000 9.4900 -8.1325
endloop
endfacet
facet normal 1.0000 0.0000 0.0000
outer loop
	vertex 0.5000 -8.8375 -8.8375
	vertex 0.5000 9.4900 -8.1325
	vertex 0.5000 8.1325 9.4900
endloop
endfacet
facet normal 1.0000 0.0000 0.0000
outer loop
	vertex 0.5000 -9.4900 -8.1325
	vertex 0.5000 -8.8375 -8.8375
	vertex 0.5000 8.1325 9.4900
endloop
endfacet
facet normal 1.0000 0.0000 0.0000
outer loop
	vertex 0.5000 3.9488 11.8625
	vertex 0.5000 5.7425 11.1038
	vertex 0.5000 4.8638 11.5175
endloop
endfacet
facet normal 1.0000 0.0000 0.0000
outer loop
	vertex 0.5000 2.0263 12.3363
	vertex 0.5000 3.9488 11.8625
	vertex 0.5000 3.0025 12.1363
endloop
endfacet
facet normal 1.0000 0.0000 0.0000
outer loop
	vertex 0.5000 3.9488 11.8625
	vertex 0.5000 2.0263 12.3363
	vertex 0.5000 1.0250 12.4588
endloop
endfacet
facet normal 1.0000 0.0000 0.0000
outer loop
	vertex 0.5000 0.0000 12.5000
	vertex 0.5000 3.9488 11.8625
	vertex 0.5000 1.0250 12.4588
endloop
endfacet
facet normal 1.0000 0.0000 0.0000
outer loop
	vertex 0.5000 0.0000 12.5000
	vertex 0.5000 5.7425 11.1038
	vertex 0.5000 3.9488 11.8625
endloop
endfacet
facet normal 1.0000 0.0000 0.0000
outer loop
	vertex 0.5000 5.7425 11.1038
	vertex 0.5000 0.0000 12.5000
	vertex 0.5000 6.5825 10.6263
endloop
endfacet
facet normal 1.0000 0.0000 0.0000
outer loop
	vertex 0.5000 6.5825 10.6263
	vertex 0.5000 0.0000 12.5000
	vertex 0.5000 7.3800 10.0875
endloop
endfacet
facet normal 1.0000 0.0000 0.0000
outer loop
	vertex 0.5000 7.3800 10.0875
	vertex 0.5000 0.0000 12.5000
	vertex 0.5000 8.1325 9.4900
endloop
endfacet
facet normal 1.0000 0.0000 0.0000
outer loop
	vertex 0.5000 -3.9488 11.8625
	vertex 0.5000 -2.0263 12.3363
	vertex 0.5000 -3.0025 12.1363
endloop
endfacet
facet normal 1.0000 0.0000 0.0000
outer loop
	vertex 0.5000 -3.9488 11.8625
	vertex 0.5000 -4.8638 11.5175
	vertex 0.5000 -2.0263 12.3363
endloop
endfacet
facet normal 1.0000 0.0000 0.0000
outer loop
	vertex 0.5000 -4.8638 11.5175
	vertex 0.5000 -1.0250 12.4588
	vertex 0.5000 -2.0263 12.3363
endloop
endfacet
facet normal 1.0000 0.0000 0.0000
outer loop
	vertex 0.5000 0.0000 12.5000
	vertex 0.5000 -1.0250 12.4588
	vertex 0.5000 -4.8638 11.5175
endloop
endfacet
facet normal 1.0000 0.0000 0.0000
outer loop
	vertex 0.5000 -5.7425 11.1038
	vertex 0.5000 0.0000 12.5000
	vertex 0.5000 -4.8638 11.5175
endloop
endfacet
facet normal 1.0000 0.0000 0.0000
outer loop
	vertex 0.5000 -6.5825 10.6263
	vertex 0.5000 0.0000 12.5000
	vertex 0.5000 -5.7425 11.1038
endloop
endfacet
facet normal 1.0000 0.0000 0.0000
outer loop
	vertex 0.5000 -7.3800 10.0875
	vertex 0.5000 0.0000 12.5000
	vertex 0.5000 -6.5825 10.6263
endloop
endfacet
facet normal 1.0000 0.0000 0.0000
outer loop
	vertex 0.5000 -8.1325 9.4900
	vertex 0.5000 0.0000 12.5000
	vertex 0.5000 -7.3800 10.0875
endloop
endfacet
facet normal 1.0000 0.0000 0.0000
outer loop
	vertex 0.5000 0.0000 12.5000
	vertex 0.5000 -8.1325 9.4900
	vertex 0.5000 8.1325 9.4900
endloop
endfacet
facet normal 1.0000 0.0000 0.0000
outer loop
	vertex 0.5000 -8.1325 9.4900
	vertex 0.5000 -9.4900 -8.1325
	vertex 0.5000 8.1325 9.4900
endloop
endfacet
facet normal 1.0000 0.0000 0.0000
outer loop
	vertex 0.5000 -9.4900 8.1325
	vertex 0.5000 -8.1325 9.4900
	vertex 0.5000 -8.8375 8.8375
endloop
endfacet
facet normal 1.0000 0.0000 0.0000
outer loop
	vertex 0.5000 -9.4900 8.1325
	vertex 0.5000 -9.4900 -8.1325
	vertex 0.5000 -8.1325 9.4900
endloop
endfacet
facet normal 1.0000 0.0000 0.0000
outer loop
	vertex 0.5000 -9.4900 -8.1325
	vertex 0.5000 -9.4900 8.1325
	vertex 0.5000 -10.0875 -7.3800
endloop
endfacet
facet normal 1.0000 0.0000 0.0000
outer loop
	vertex 0.5000 -9.4900 8.1325
	vertex 0.5000 -10.0875 7.3800
	vertex 0.5000 -10.0875 -7.3800
endloop
endfacet
facet normal 1.0000 0.0000 0.0000
outer loop
	vertex 0.5000 -10.0875 -7.3800
	vertex 0.5000 -10.0875 7.3800
	vertex 0.5000 -10.6263 -6.5825
endloop
endfacet
facet normal 1.0000 0.0000 0.0000
outer loop
	vertex 0.5000 -10.0875 7.3800
	vertex 0.5000 -10.6263 6.5825
	vertex 0.5000 -10.6263 -6.5825
endloop
endfacet
facet normal 1.0000 0.0000 0.0000
outer loop
	vertex 0.5000 -10.6263 -6.5825
	vertex 0.5000 -10.6263 6.5825
	vertex 0.5000 -11.1038 -5.7425
endloop
endfacet
facet normal 1.0000 0.0000 0.0000
outer loop
	vertex 0.5000 -10.6263 6.5825
	vertex 0.5000 -11.1038 5.7425
	vertex 0.5000 -11.1038 -5.7425
endloop
endfacet
facet normal 1.0000 0.0000 0.0000
outer loop
	vertex 0.5000 -11.1038 5.7425
	vertex 0.5000 -11.8625 -3.9488
	vertex 0.5000 -11.1038 -5.7425
endloop
endfacet
facet normal 1.0000 0.0000 0.0000
outer loop
	vertex 0.5000 -12.1363 -3.0025
	vertex 0.5000 -11.8625 -3.9488
	vertex 0.5000 -11.1038 5.7425
endloop
endfacet
facet normal 1.0000 0.0000 0.0000
outer loop
	vertex 0.5000 -12.1363 -3.0025
	vertex 0.5000 -11.1038 5.7425
	vertex 0.5000 -11.5175 4.8638
endloop
endfacet
facet normal 1.0000 0.0000 0.0000
outer loop
	vertex 0.5000 -12.3363 -2.0263
	vertex 0.5000 -12.1363 -3.0025
	vertex 0.5000 -11.5175 4.8638
endloop
endfacet
facet normal 1.0000 0.0000 0.0000
outer loop
	vertex 0.5000 -12.3363 -2.0263
	vertex 0.5000 -11.5175 4.8638
	vertex 0.5000 -11.8625 3.9488
endloop
endfacet
facet normal 1.0000 0.0000 0.0000
outer loop
	vertex 0.5000 -12.4588 -1.0250
	vertex 0.5000 -12.3363 -2.0263
	vertex 0.5000 -11.8625 3.9488
endloop
endfacet
facet normal 1.0000 0.0000 0.0000
outer loop
	vertex 0.5000 -12.4588 -1.0250
	vertex 0.5000 -11.8625 3.9488
	vertex 0.5000 -12.1363 3.0025
endloop
endfacet
facet normal 1.0000 0.0000 0.0000
outer loop
	vertex 0.5000 -12.4588 1.0250
	vertex 0.5000 -12.5000 0.0000
	vertex 0.5000 -12.3363 2.0263
endloop
endfacet
facet normal 1.0000 0.0000 0.0000
outer loop
	vertex 0.5000 -12.5000 0.0000
	vertex 0.5000 -12.1363 3.0025
	vertex 0.5000 -12.3363 2.0263
endloop
endfacet
facet normal 1.0000 0.0000 0.0000
outer loop
	vertex 0.5000 -12.5000 0.0000
	vertex 0.5000 -12.4588 -1.0250
	vertex 0.5000 -12.1363 3.0025
endloop
endfacet
facet normal -1.0000 0.0000 0.0000
outer loop
	vertex -0.5000 11.1038 5.7425
	vertex -0.5000 10.0863 7.3800
	vertex -0.5000 10.6263 6.5825
endloop
endfacet
facet normal -1.0000 0.0000 0.0000
outer loop
	vertex -0.5000 11.1038 -5.7425
	vertex -0.5000 10.6263 -6.5825
	vertex -0.5000 10.0863 -7.3800
endloop
endfacet
facet normal -1.0000 0.0000 0.0000
outer loop
	vertex -0.5000 9.4900 8.1325
	vertex -0.5000 8.1325 9.4900
	vertex -0.5000 8.8375 8.8375
endloop
endfacet
facet normal -1.0000 0.0000 0.0000
outer loop
	vertex -0.5000 10.0863 7.3800
	vertex -0.5000 8.1325 9.4900
	vertex -0.5000 9.4900 8.1325
endloop
endfacet
facet normal -1.0000 0.0000 0.0000
outer loop
	vertex -0.5000 -9.4900 8.1325
	vertex -0.5000 -8.8375 8.8375
	vertex -0.5000 -8.1325 9.4900
endloop
endfacet
facet normal -1.0000 0.0000 0.0000
outer loop
	vertex -0.5000 -11.8625 -3.9488
	vertex -0.5000 -12.1363 -3.0025
	vertex -0.5000 -12.3363 -2.0263
endloop
endfacet
facet normal -1.0000 0.0000 0.0000
outer loop
	vertex -0.5000 -12.3363 -2.0263
	vertex -0.5000 -12.4588 -1.0250
	vertex -0.5000 -11.8625 -3.9488
endloop
endfacet
facet normal -1.0000 0.0000 0.0000
outer loop
	vertex -0.5000 -11.8625 -3.9488
	vertex -0.5000 -12.4588 -1.0250
	vertex -0.5000 -12.5000 0.0000
endloop
endfacet
facet normal -1.0000 0.0000 0.0000
outer loop
	vertex -0.5000 -11.1038 -5.7425
	vertex -0.5000 -11.5175 -4.8638
	vertex -0.5000 -11.8625 -3.9488
endloop
endfacet
facet normal -1.0000 0.0000 0.0000
outer loop
	vertex -0.5000 -11.1038 -5.7425
	vertex -0.5000 -11.8625 -3.9488
	vertex -0.5000 -12.5000 0.0000
endloop
endfacet
facet normal -1.0000 0.0000 0.0000
outer loop
	vertex -0.5000 -12.5000 0.0000
	vertex -0.5000 -10.6263 -6.5825
	vertex -0.5000 -11.1038 -5.7425
endloop
endfacet
facet normal -1.0000 0.0000 0.0000
outer loop
	vertex -0.5000 -12.5000 0.0000
	vertex -0.5000 -10.0875 -7.3800
	vertex -0.5000 -10.6263 -6.5825
endloop
endfacet
facet normal -1.0000 0.0000 0.0000
outer loop
	vertex -0.5000 -12.5000 0.0000
	vertex -0.5000 -9.4900 -8.1325
	vertex -0.5000 -10.0875 -7.3800
endloop
endfacet
facet normal -1.0000 0.0000 0.0000
outer loop
	vertex -0.5000 -11.8625 3.9488
	vertex -0.5000 -12.3363 2.0263
	vertex -0.5000 -12.1363 3.0025
endloop
endfacet
facet normal -1.0000 0.0000 0.0000
outer loop
	vertex -0.5000 -11.8625 3.9488
	vertex -0.5000 -11.5175 4.8638
	vertex -0.5000 -12.3363 2.0263
endloop
endfacet
facet normal -1.0000 0.0000 0.0000
outer loop
	vertex -0.5000 -11.5175 4.8638
	vertex -0.5000 -12.4588 1.0250
	vertex -0.5000 -12.3363 2.0263
endloop
endfacet
facet normal -1.0000 0.0000 0.0000
outer loop
	vertex -0.5000 -12.5000 0.0000
	vertex -0.5000 -12.4588 1.0250
	vertex -0.5000 -11.5175 4.8638
endloop
endfacet
facet normal -1.0000 0.0000 0.0000
outer loop
	vertex -0.5000 -11.1038 5.7425
	vertex -0.5000 -12.5000 0.0000
	vertex -0.5000 -11.5175 4.8638
endloop
endfacet
facet normal -1.0000 0.0000 0.0000
outer loop
	vertex -0.5000 -10.6263 6.5825
	vertex -0.5000 -12.5000 0.0000
	vertex -0.5000 -11.1038 5.7425
endloop
endfacet
facet normal -1.0000 0.0000 0.0000
outer loop
	vertex -0.5000 -10.0875 7.3800
	vertex -0.5000 -12.5000 0.0000
	vertex -0.5000 -10.6263 6.5825
endloop
endfacet
facet normal -1.0000 0.0000 0.0000
outer loop
	vertex -0.5000 -9.4900 8.1325
	vertex -0.5000 -12.5000 0.0000
	vertex -0.5000 -10.0875 7.3800
endloop
endfacet
facet normal -1.0000 0.0000 0.0000
outer loop
	vertex -0.5000 -9.4900 8.1325
	vertex -0.5000 -9.4900 -8.1325
	vertex -0.5000 -12.5000 0.0000
endloop
endfacet
facet normal -1.0000 0.0000 0.0000
outer loop
	vertex -0.5000 -9.4900 -8.1325
	vertex -0.5000 -9.4900 8.1325
	vertex -0.5000 -8.1325 9.4900
endloop
endfacet
facet normal -1.0000 0.0000 0.0000
outer loop
	vertex -0.5000 -9.4900 -8.1325
	vertex -0.5000 -8.1325 -9.4900
	vertex -0.5000 -8.8375 -8.8375
endloop
endfacet
facet normal -1.0000 0.0000 0.0000
outer loop
	vertex -0.5000 -9.4900 -8.1325
	vertex -0.5000 -7.3800 -10.0863
	vertex -0.5000 -8.1325 -9.4900
endloop
endfacet
facet normal -1.0000 0.0000 0.0000
outer loop
	vertex -0.5000 7.3800 -10.0863
	vertex -0.5000 6.5825 -10.6263
	vertex -0.5000 5.7425 -11.1038
endloop
endfacet
facet normal -1.0000 0.0000 0.0000
outer loop
	vertex -0.5000 5.7425 -11.1038
	vertex -0.5000 4.8638 -11.5175
	vertex -0.5000 3.9488 -11.8625
endloop
endfacet
facet normal -1.0000 0.0000 0.0000
outer loop
	vertex -0.5000 3.0025 -12.1363
	vertex -0.5000 5.7425 -11.1038
	vertex -0.5000 3.9488 -11.8625
endloop
endfacet
facet normal -1.0000 0.0000 0.0000
outer loop
	vertex -0.5000 1.0250 -12.4588
	vertex -0.5000 3.0025 -12.1363
	vertex -0.5000 2.0263 -12.3363
endloop
endfacet
facet normal -1.0000 0.0000 0.0000
outer loop
	vertex -0.5000 -5.7425 -11.1038
	vertex -0.5000 -3.9488 -11.8625
	vertex -0.5000 -4.8638 -11.5175
endloop
endfacet
facet normal -1.0000 0.0000 0.0000
outer loop
	vertex -0.5000 -3.0025 -12.1363
	vertex -0.5000 -3.9488 -11.8625
	vertex -0.5000 -5.7425 -11.1038
endloop
endfacet
facet normal -1.0000 0.0000 0.0000
outer loop
	vertex -0.5000 -7.3800 -10.0863
	vertex -0.5000 -5.7425 -11.1038
	vertex -0.5000 -6.5825 -10.6263
endloop
endfacet
facet normal -1.0000 0.0000 0.0000
outer loop
	vertex -0.5000 -5.7425 -11.1038
	vertex -0.5000 -7.3800 -10.0863
	vertex -0.5000 -3.0025 -12.1363
endloop
endfacet
facet normal -1.0000 0.0000 0.0000
outer loop
	vertex -0.5000 -7.3800 -10.0863
	vertex -0.5000 -2.0263 -12.3363
	vertex -0.5000 -3.0025 -12.1363
endloop
endfacet
facet normal -1.0000 0.0000 0.0000
outer loop
	vertex -0.5000 -7.3800 -10.0863
	vertex -0.5000 -1.0250 -12.4588
	vertex -0.5000 -2.0263 -12.3363
endloop
endfacet
facet normal -1.0000 0.0000 0.0000
outer loop
	vertex -0.5000 -7.3800 -10.0863
	vertex -0.5000 0.0000 -12.5000
	vertex -0.5000 -1.0250 -12.4588
endloop
endfacet
facet normal -1.0000 0.0000 0.0000
outer loop
	vertex -0.5000 0.0000 -12.5000
	vertex -0.5000 -7.3800 -10.0863
	vertex -0.5000 1.0250 -12.4588
endloop
endfacet
facet normal -1.0000 0.0000 0.0000
outer loop
	vertex -0.5000 -7.3800 -10.0863
	vertex -0.5000 3.0025 -12.1363
	vertex -0.5000 1.0250 -12.4588
endloop
endfacet
facet normal -1.0000 0.0000 0.0000
outer loop
	vertex -0.5000 3.0025 -12.1363
	vertex -0.5000 -7.3800 -10.0863
	vertex -0.5000 5.7425 -11.1038
endloop
endfacet
facet normal -1.0000 0.0000 0.0000
outer loop
	vertex -0.5000 5.7425 -11.1038
	vertex -0.5000 -7.3800 -10.0863
	vertex -0.5000 7.3800 -10.0863
endloop
endfacet
facet normal -1.0000 0.0000 0.0000
outer loop
	vertex -0.5000 7.3800 -10.0863
	vertex -0.5000 -7.3800 -10.0863
	vertex -0.5000 -9.4900 -8.1325
endloop
endfacet
facet normal -1.0000 0.0000 0.0000
outer loop
	vertex -0.5000 7.3800 -10.0863
	vertex -0.5000 -9.4900 -8.1325
	vertex -0.5000 8.1325 -9.4900
endloop
endfacet
facet normal -1.0000 0.0000 0.0000
outer loop
	vertex -0.5000 8.8375 -8.8375
	vertex -0.5000 8.1325 -9.4900
	vertex -0.5000 -9.4900 -8.1325
endloop
endfacet
facet normal -1.0000 0.0000 0.0000
outer loop
	vertex -0.5000 8.8375 -8.8375
	vertex -0.5000 -9.4900 -8.1325
	vertex -0.5000 -8.1325 9.4900
endloop
endfacet
facet normal -1.0000 0.0000 0.0000
outer loop
	vertex -0.5000 9.4900 -8.1325
	vertex -0.5000 8.8375 -8.8375
	vertex -0.5000 -8.1325 9.4900
endloop
endfacet
facet normal -1.0000 0.0000 0.0000
outer loop
	vertex -0.5000 -3.9488 11.8625
	vertex -0.5000 -5.7425 11.1038
	vertex -0.5000 -4.8638 11.5175
endloop
endfacet
facet normal -1.0000 0.0000 0.0000
outer loop
	vertex -0.5000 -2.0263 12.3363
	vertex -0.5000 -3.9488 11.8625
	vertex -0.5000 -3.0025 12.1363
endloop
endfacet
facet normal -1.0000 0.0000 0.0000
outer loop
	vertex -0.5000 -3.9488 11.8625
	vertex -0.5000 -2.0263 12.3363
	vertex -0.5000 -1.0250 12.4588
endloop
endfacet
facet normal -1.0000 0.0000 0.0000
outer loop
	vertex -0.5000 0.0000 12.5000
	vertex -0.5000 -3.9488 11.8625
	vertex -0.5000 -1.0250 12.4588
endloop
endfacet
facet normal -1.0000 0.0000 0.0000
outer loop
	vertex -0.5000 0.0000 12.5000
	vertex -0.5000 -5.7425 11.1038
	vertex -0.5000 -3.9488 11.8625
endloop
endfacet
facet normal -1.0000 0.0000 0.0000
outer loop
	vertex -0.5000 -5.7425 11.1038
	vertex -0.5000 0.0000 12.5000
	vertex -0.5000 -6.5825 10.6263
endloop
endfacet
facet normal -1.0000 0.0000 0.0000
outer loop
	vertex -0.5000 -6.5825 10.6263
	vertex -0.5000 0.0000 12.5000
	vertex -0.5000 -7.3800 10.0875
endloop
endfacet
facet normal -1.0000 0.0000 0.0000
outer loop
	vertex -0.5000 -7.3800 10.0875
	vertex -0.5000 0.0000 12.5000
	vertex -0.5000 -8.1325 9.4900
endloop
endfacet
facet normal -1.0000 0.0000 0.0000
outer loop
	vertex -0.5000 3.9488 11.8625
	vertex -0.5000 2.0263 12.3363
	vertex -0.5000 3.0025 12.1363
endloop
endfacet
facet normal -1.0000 0.0000 0.0000
outer loop
	vertex -0.5000 3.9488 11.8625
	vertex -0.5000 4.8638 11.5175
	vertex -0.5000 2.0263 12.3363
endloop
endfacet
facet normal -1.0000 0.0000 0.0000
outer loop
	vertex -0.5000 4.8638 11.5175
	vertex -0.5000 1.0250 12.4588
	vertex -0.5000 2.0263 12.3363
endloop
endfacet
facet normal -1.0000 0.0000 0.0000
outer loop
	vertex -0.5000 0.0000 12.5000
	vertex -0.5000 1.0250 12.4588
	vertex -0.5000 4.8638 11.5175
endloop
endfacet
facet normal -1.0000 0.0000 0.0000
outer loop
	vertex -0.5000 5.7425 11.1038
	vertex -0.5000 0.0000 12.5000
	vertex -0.5000 4.8638 11.5175
endloop
endfacet
facet normal -1.0000 0.0000 0.0000
outer loop
	vertex -0.5000 6.5825 10.6263
	vertex -0.5000 0.0000 12.5000
	vertex -0.5000 5.7425 11.1038
endloop
endfacet
facet normal -1.0000 0.0000 0.0000
outer loop
	vertex -0.5000 7.3800 10.0875
	vertex -0.5000 0.0000 12.5000
	vertex -0.5000 6.5825 10.6263
endloop
endfacet
facet normal -1.0000 0.0000 0.0000
outer loop
	vertex -0.5000 8.1325 9.4900
	vertex -0.5000 0.0000 12.5000
	vertex -0.5000 7.3800 10.0875
endloop
endfacet
facet normal -1.0000 0.0000 0.0000
outer loop
	vertex -0.5000 0.0000 12.5000
	vertex -0.5000 8.1325 9.4900
	vertex -0.5000 -8.1325 9.4900
endloop
endfacet
facet normal -1.0000 0.0000 0.0000
outer loop
	vertex -0.5000 8.1325 9.4900
	vertex -0.5000 9.4900 -8.1325
	vertex -0.5000 -8.1325 9.4900
endloop
endfacet
facet normal -1.0000 0.0000 0.0000
outer loop
	vertex -0.5000 10.0863 -7.3800
	vertex -0.5000 9.4900 -8.1325
	vertex -0.5000 8.1325 9.4900
endloop
endfacet
facet normal -1.0000 0.0000 0.0000
outer loop
	vertex -0.5000 10.0863 -7.3800
	vertex -0.5000 8.1325 9.4900
	vertex -0.5000 10.0863 7.3800
endloop
endfacet
facet normal -1.0000 0.0000 0.0000
outer loop
	vertex -0.5000 10.0863 7.3800
	vertex -0.5000 11.1038 -5.7425
	vertex -0.5000 10.0863 -7.3800
endloop
endfacet
facet normal -1.0000 0.0000 0.0000
outer loop
	vertex -0.5000 11.8625 -3.9488
	vertex -0.5000 11.5175 -4.8638
	vertex -0.5000 11.1038 -5.7425
endloop
endfacet
facet normal -1.0000 0.0000 0.0000
outer loop
	vertex -0.5000 11.8625 -3.9488
	vertex -0.5000 11.1038 -5.7425
	vertex -0.5000 10.0863 7.3800
endloop
endfacet
facet normal -1.0000 0.0000 0.0000
outer loop
	vertex -0.5000 11.8625 -3.9488
	vertex -0.5000 10.0863 7.3800
	vertex -0.5000 11.1038 5.7425
endloop
endfacet
facet normal -1.0000 0.0000 0.0000
outer loop
	vertex -0.5000 12.1363 -3.0025
	vertex -0.5000 11.8625 -3.9488
	vertex -0.5000 11.1038 5.7425
endloop
endfacet
facet normal -1.0000 0.0000 0.0000
outer loop
	vertex -0.5000 12.1363 -3.0025
	vertex -0.5000 11.1038 5.7425
	vertex -0.5000 11.5175 4.8638
endloop
endfacet
facet normal -1.0000 0.0000 0.0000
outer loop
	vertex -0.5000 12.3363 -2.0263
	vertex -0.5000 12.1363 -3.0025
	vertex -0.5000 11.5175 4.8638
endloop
endfacet
facet normal -1.0000 0.0000 0.0000
outer loop
	vertex -0.5000 12.3363 -2.0263
	vertex -0.5000 11.5175 4.8638
	vertex -0.5000 11.8625 3.9488
endloop
endfacet
facet normal -1.0000 0.0000 0.0000
outer loop
	vertex -0.5000 12.4588 -1.0250
	vertex -0.5000 12.3363 -2.0263
	vertex -0.5000 11.8625 3.9488
endloop
endfacet
facet normal -1.0000 0.0000 0.0000
outer loop
	vertex -0.5000 12.4588 -1.0250
	vertex -0.5000 11.8625 3.9488
	vertex -0.5000 12.1363 3.0025
endloop
endfacet
facet normal -1.0000 0.0000 0.0000
outer loop
	vertex -0.5000 12.4588 1.0250
	vertex -0.5000 12.5000 0.0000
	vertex -0.5000 12.3363 2.0263
endloop
endfacet
facet normal -1.0000 0.0000 0.0000
outer loop
	vertex -0.5000 12.5000 0.0000
	vertex -0.5000 12.1363 3.0025
	vertex -0.5000 12.3363 2.0263
endloop
endfacet
facet normal -1.0000 0.0000 0.0000
outer loop
	vertex -0.5000 12.5000 0.0000
	vertex -0.5000 12.4588 -1.0250
	vertex -0.5000 12.1363 3.0025
endloop
endfacet
facet normal 0.0000 0.0402 0.9992
outer loop
	vertex 0.5000 1.0250 12.4588
	vertex -0.5000 1.0250 12.4588
	vertex -0.5000 0.0000 12.5000
endloop
endfacet
facet normal 0.0000 0.0402 0.9992
outer loop
	vertex 0.5000 1.0250 12.4588
	vertex -0.5000 0.0000 12.5000
	vertex 0.5000 0.0000 12.5000
endloop
endfacet
facet normal 0.0000 -0.0402 0.9992
outer loop
	vertex 0.5000 0.0000 12.5000
	vertex -0.5000 0.0000 12.5000
	vertex -0.5000 -1.0250 12.4588
endloop
endfacet
facet normal 0.0000 -0.0402 0.9992
outer loop
	vertex 0.5000 0.0000 12.5000
	vertex -0.5000 -1.0250 12.4588
	vertex 0.5000 -1.0250 12.4588
endloop
endfacet
facet normal 0.0000 -0.1214 0.9926
outer loop
	vertex 0.5000 -1.0250 12.4588
	vertex -0.5000 -1.0250 12.4588
	vertex -0.5000 -2.0263 12.3363
endloop
endfacet
facet normal 0.0000 -0.1214 0.9926
outer loop
	vertex 0.5000 -1.0250 12.4588
	vertex -0.5000 -2.0263 12.3363
	vertex 0.5000 -2.0263 12.3363
endloop
endfacet
facet normal 0.0000 -0.2007 0.9797
outer loop
	vertex 0.5000 -2.0263 12.3363
	vertex -0.5000 -2.0263 12.3363
	vertex -0.5000 -3.0025 12.1363
endloop
endfacet
facet normal 0.0000 -0.2007 0.9797
outer loop
	vertex 0.5000 -2.0263 12.3363
	vertex -0.5000 -3.0025 12.1363
	vertex 0.5000 -3.0025 12.1363
endloop
endfacet
facet normal 0.0000 -0.2779 0.9606
outer loop
	vertex 0.5000 -3.0025 12.1363
	vertex -0.5000 -3.0025 12.1363
	vertex -0.5000 -3.9488 11.8625
endloop
endfacet
facet normal 0.0000 -0.2779 0.9606
outer loop
	vertex 0.5000 -3.0025 12.1363
	vertex -0.5000 -3.9488 11.8625
	vertex 0.5000 -3.9488 11.8625
endloop
endfacet
facet normal 0.0000 -0.3528 0.9357
outer loop
	vertex 0.5000 -3.9488 11.8625
	vertex -0.5000 -3.9488 11.8625
	vertex -0.5000 -4.8638 11.5175
endloop
endfacet
facet normal 0.0000 -0.3528 0.9357
outer loop
	vertex 0.5000 -3.9488 11.8625
	vertex -0.5000 -4.8638 11.5175
	vertex 0.5000 -4.8638 11.5175
endloop
endfacet
facet normal 0.0000 -0.4260 0.9047
outer loop
	vertex 0.5000 -4.8638 11.5175
	vertex -0.5000 -4.8638 11.5175
	vertex -0.5000 -5.7425 11.1038
endloop
endfacet
facet normal 0.0000 -0.4260 0.9047
outer loop
	vertex 0.5000 -4.8638 11.5175
	vertex -0.5000 -5.7425 11.1038
	vertex 0.5000 -5.7425 11.1038
endloop
endfacet
facet normal 0.0000 -0.4942 0.8694
outer loop
	vertex 0.5000 -5.7425 11.1038
	vertex -0.5000 -5.7425 11.1038
	vertex -0.5000 -6.5825 10.6263
endloop
endfacet
facet normal 0.0000 -0.4942 0.8694
outer loop
	vertex 0.5000 -5.7425 11.1038
	vertex -0.5000 -6.5825 10.6263
	vertex 0.5000 -6.5825 10.6263
endloop
endfacet
facet normal 0.0000 -0.5598 0.8286
outer loop
	vertex 0.5000 -6.5825 10.6263
	vertex -0.5000 -6.5825 10.6263
	vertex -0.5000 -7.3800 10.0875
endloop
endfacet
facet normal 0.0000 -0.5598 0.8286
outer loop
	vertex 0.5000 -6.5825 10.6263
	vertex -0.5000 -7.3800 10.0875
	vertex 0.5000 -7.3800 10.0875
endloop
endfacet
facet normal 0.0000 -0.6218 0.7831
outer loop
	vertex 0.5000 -7.3800 10.0875
	vertex -0.5000 -7.3800 10.0875
	vertex -0.5000 -8.1325 9.4900
endloop
endfacet
facet normal 0.0000 -0.6218 0.7831
outer loop
	vertex 0.5000 -7.3800 10.0875
	vertex -0.5000 -8.1325 9.4900
	vertex 0.5000 -8.1325 9.4900
endloop
endfacet
facet normal 0.0000 -0.6793 0.7339
outer loop
	vertex 0.5000 -8.1325 9.4900
	vertex -0.5000 -8.1325 9.4900
	vertex -0.5000 -8.8375 8.8375
endloop
endfacet
facet normal 0.0000 -0.6793 0.7339
outer loop
	vertex 0.5000 -8.1325 9.4900
	vertex -0.5000 -8.8375 8.8375
	vertex 0.5000 -8.8375 8.8375
endloop
endfacet
facet normal 0.0000 -0.7339 0.6793
outer loop
	vertex 0.5000 -8.8375 8.8375
	vertex -0.5000 -8.8375 8.8375
	vertex -0.5000 -9.4900 8.1325
endloop
endfacet
facet normal 0.0000 -0.7339 0.6793
outer loop
	vertex 0.5000 -8.8375 8.8375
	vertex -0.5000 -9.4900 8.1325
	vertex 0.5000 -9.4900 8.1325
endloop
endfacet
facet normal 0.0000 -0.7831 0.6218
outer loop
	vertex 0.5000 -9.4900 8.1325
	vertex -0.5000 -9.4900 8.1325
	vertex -0.5000 -10.0875 7.3800
endloop
endfacet
facet normal 0.0000 -0.7831 0.6218
outer loop
	vertex 0.5000 -9.4900 8.1325
	vertex -0.5000 -10.0875 7.3800
	vertex 0.5000 -10.0875 7.3800
endloop
endfacet
facet normal 0.0000 -0.8286 0.5598
outer loop
	vertex 0.5000 -10.0875 7.3800
	vertex -0.5000 -10.0875 7.3800
	vertex -0.5000 -10.6263 6.5825
endloop
endfacet
facet normal 0.0000 -0.8286 0.5598
outer loop
	vertex 0.5000 -10.0875 7.3800
	vertex -0.5000 -10.6263 6.5825
	vertex 0.5000 -10.6263 6.5825
endloop
endfacet
facet normal 0.0000 -0.8694 0.4942
outer loop
	vertex 0.5000 -10.6263 6.5825
	vertex -0.5000 -10.6263 6.5825
	vertex -0.5000 -11.1038 5.7425
endloop
endfacet
facet normal 0.0000 -0.8694 0.4942
outer loop
	vertex 0.5000 -10.6263 6.5825
	vertex -0.5000 -11.1038 5.7425
	vertex 0.5000 -11.1038 5.7425
endloop
endfacet
facet normal 0.0000 -0.9047 0.4260
outer loop
	vertex 0.5000 -11.1038 5.7425
	vertex -0.5000 -11.1038 5.7425
	vertex -0.5000 -11.5175 4.8638
endloop
endfacet
facet normal 0.0000 -0.9047 0.4260
outer loop
	vertex 0.5000 -11.1038 5.7425
	vertex -0.5000 -11.5175 4.8638
	vertex 0.5000 -11.5175 4.8638
endloop
endfacet
facet normal 0.0000 -0.9357 0.3528
outer loop
	vertex 0.5000 -11.5175 4.8638
	vertex -0.5000 -11.5175 4.8638
	vertex -0.5000 -11.8625 3.9488
endloop
endfacet
facet normal 0.0000 -0.9357 0.3528
outer loop
	vertex 0.5000 -11.5175 4.8638
	vertex -0.5000 -11.8625 3.9488
	vertex 0.5000 -11.8625 3.9488
endloop
endfacet
facet normal 0.0000 -0.9606 0.2779
outer loop
	vertex 0.5000 -11.8625 3.9488
	vertex -0.5000 -11.8625 3.9488
	vertex -0.5000 -12.1363 3.0025
endloop
endfacet
facet normal 0.0000 -0.9606 0.2779
outer loop
	vertex 0.5000 -11.8625 3.9488
	vertex -0.5000 -12.1363 3.0025
	vertex 0.5000 -12.1363 3.0025
endloop
endfacet
facet normal 0.0000 -0.9797 0.2007
outer loop
	vertex 0.5000 -12.1363 3.0025
	vertex -0.5000 -12.1363 3.0025
	vertex -0.5000 -12.3363 2.0263
endloop
endfacet
facet normal 0.0000 -0.9797 0.2007
outer loop
	vertex 0.5000 -12.1363 3.0025
	vertex -0.5000 -12.3363 2.0263
	vertex 0.5000 -12.3363 2.0263
endloop
endfacet
facet normal 0.0000 -0.9926 0.1214
outer loop
	vertex 0.5000 -12.3363 2.0263
	vertex -0.5000 -12.3363 2.0263
	vertex -0.5000 -12.4588 1.0250
endloop
endfacet
facet normal 0.0000 -0.9926 0.1214
outer loop
	vertex 0.5000 -12.3363 2.0263
	vertex -0.5000 -12.4588 1.0250
	vertex 0.5000 -12.4588 1.0250
endloop
endfacet
facet normal 0.0000 -0.9992 0.0402
outer loop
	vertex 0.5000 -12.4588 1.0250
	vertex -0.5000 -12.4588 1.0250
	vertex -0.5000 -12.5000 0.0000
endloop
endfacet
facet normal 0.0000 -0.9992 0.0402
outer loop
	vertex 0.5000 -12.4588 1.0250
	vertex -0.5000 -12.5000 0.0000
	vertex 0.5000 -12.5000 0.0000
endloop
endfacet
facet normal 0.0000 -0.9992 -0.0402
outer loop
	vertex 0.5000 -12.5000 0.0000
	vertex -0.5000 -12.5000 0.0000
	vertex -0.5000 -12.4588 -1.0250
endloop
endfacet
facet normal 0.0000 -0.9992 -0.0402
outer loop
	vertex 0.5000 -12.5000 0.0000
	vertex -0.5000 -12.4588 -1.0250
	vertex 0.5000 -12.4588 -1.0250
endloop
endfacet
facet normal 0.0000 -0.9926 -0.1214
outer loop
	vertex 0.5000 -12.4588 -1.0250
	vertex -0.5000 -12.4588 -1.0250
	vertex -0.5000 -12.3363 -2.0263
endloop
endfacet
facet normal 0.0000 -0.9926 -0.1214
outer loop
	vertex 0.5000 -12.4588 -1.0250
	vertex -0.5000 -12.3363 -2.0263
	vertex 0.5000 -12.3363 -2.0263
endloop
endfacet
facet normal 0.0000 -0.9797 -0.2007
outer loop
	vertex 0.5000 -12.3363 -2.0263
	vertex -0.5000 -12.3363 -2.0263
	vertex -0.5000 -12.1363 -3.0025
endloop
endfacet
facet normal 0.0000 -0.9797 -0.2007
outer loop
	vertex 0.5000 -12.3363 -2.0263
	vertex -0.5000 -12.1363 -3.0025
	vertex 0.5000 -12.1363 -3.0025
endloop
endfacet
facet normal 0.0000 -0.9606 -0.2779
outer loop
	vertex 0.5000 -12.1363 -3.0025
	vertex -0.5000 -12.1363 -3.0025
	vertex -0.5000 -11.8625 -3.9488
endloop
endfacet
facet normal 0.0000 -0.9606 -0.2779
outer loop
	vertex 0.5000 -12.1363 -3.0025
	vertex -0.5000 -11.8625 -3.9488
	vertex 0.5000 -11.8625 -3.9488
endloop
endfacet
facet normal 0.0000 -0.9357 -0.3528
outer loop
	vertex 0.5000 -11.8625 -3.9488
	vertex -0.5000 -11.8625 -3.9488
	vertex -0.5000 -11.5175 -4.8638
endloop
endfacet
facet normal 0.0000 -0.9357 -0.3528
outer loop
	vertex 0.5000 -11.8625 -3.9488
	vertex -0.5000 -11.5175 -4.8638
	vertex 0.5000 -11.5175 -4.8638
endloop
endfacet
facet normal 0.0000 -0.9047 -0.4260
outer loop
	vertex 0.5000 -11.5175 -4.8638
	vertex -0.5000 -11.5175 -4.8638
	vertex -0.5000 -11.1038 -5.7425
endloop
endfacet
facet normal 0.0000 -0.9047 -0.4260
outer loop
	vertex 0.5000 -11.5175 -4.8638
	vertex -0.5000 -11.1038 -5.7425
	vertex 0.5000 -11.1038 -5.7425
endloop
endfacet
facet normal 0.0000 -0.8694 -0.4942
outer loop
	vertex 0.5000 -11.1038 -5.7425
	vertex -0.5000 -11.1038 -5.7425
	vertex -0.5000 -10.6263 -6.5825
endloop
endfacet
facet normal 0.0000 -0.8694 -0.4942
outer loop
	vertex 0.5000 -11.1038 -5.7425
	vertex -0.5000 -10.6263 -6.5825
	vertex 0.5000 -10.6263 -6.5825
endloop
endfacet
facet normal 0.0000 -0.8286 -0.5598
outer loop
	vertex 0.5000 -10.6263 -6.5825
	vertex -0.5000 -10.6263 -6.5825
	vertex -0.5000 -10.0875 -7.3800
endloop
endfacet
facet normal 0.0000 -0.8286 -0.5598
outer loop
	vertex 0.5000 -10.6263 -6.5825
	vertex -0.5000 -10.0875 -7.3800
	vertex 0.5000 -10.0875 -7.3800
endloop
endfacet
facet normal 0.0000 -0.7831 -0.6218
outer loop
	vertex 0.5000 -10.0875 -7.3800
	vertex -0.5000 -10.0875 -7.3800
	vertex -0.5000 -9.4900 -8.1325
endloop
endfacet
facet normal 0.0000 -0.7831 -0.6218
outer loop
	vertex 0.5000 -10.0875 -7.3800
	vertex -0.5000 -9.4900 -8.1325
	vertex 0.5000 -9.4900 -8.1325
endloop
endfacet
facet normal 0.0000 -0.7339 -0.6793
outer loop
	vertex 0.5000 -9.4900 -8.1325
	vertex -0.5000 -9.4900 -8.1325
	vertex -0.5000 -8.8375 -8.8375
endloop
endfacet
facet normal 0.0000 -0.7339 -0.6793
outer loop
	vertex 0.5000 -9.4900 -8.1325
	vertex -0.5000 -8.8375 -8.8375
	vertex 0.5000 -8.8375 -8.8375
endloop
endfacet
facet normal 0.0000 -0.6793 -0.7339
outer loop
	vertex 0.5000 -8.8375 -8.8375
	vertex -0.5000 -8.8375 -8.8375
	vertex -0.5000 -8.1325 -9.4900
endloop
endfacet
facet normal 0.0000 -0.6793 -0.7339
outer loop
	vertex 0.5000 -8.8375 -8.8375
	vertex -0.5000 -8.1325 -9.4900
	vertex 0.5000 -8.1325 -9.4900
endloop
endfacet
facet normal 0.0000 -0.6210 -0.7838
outer loop
	vertex 0.5000 -8.1325 -9.4900
	vertex -0.5000 -8.1325 -9.4900
	vertex -0.5000 -7.3800 -10.0863
endloop
endfacet
facet normal 0.0000 -0.6210 -0.7838
outer loop
	vertex 0.5000 -8.1325 -9.4900
	vertex -0.5000 -7.3800 -10.0863
	vertex 0.5000 -7.3800 -10.0863
endloop
endfacet
facet normal 0.0000 -0.5607 -0.8280
outer loop
	vertex 0.5000 -7.3800 -10.0863
	vertex -0.5000 -7.3800 -10.0863
	vertex -0.5000 -6.5825 -10.6263
endloop
endfacet
facet normal 0.0000 -0.5607 -0.8280
outer loop
	vertex 0.5000 -7.3800 -10.0863
	vertex -0.5000 -6.5825 -10.6263
	vertex 0.5000 -6.5825 -10.6263
endloop
endfacet
facet normal 0.0000 -0.4942 -0.8694
outer loop
	vertex 0.5000 -6.5825 -10.6263
	vertex -0.5000 -6.5825 -10.6263
	vertex -0.5000 -5.7425 -11.1038
endloop
endfacet
facet normal 0.0000 -0.4942 -0.8694
outer loop
	vertex 0.5000 -6.5825 -10.6263
	vertex -0.5000 -5.7425 -11.1038
	vertex 0.5000 -5.7425 -11.1038
endloop
endfacet
facet normal 0.0000 -0.4260 -0.9047
outer loop
	vertex 0.5000 -5.7425 -11.1038
	vertex -0.5000 -5.7425 -11.1038
	vertex -0.5000 -4.8638 -11.5175
endloop
endfacet
facet normal 0.0000 -0.4260 -0.9047
outer loop
	vertex 0.5000 -5.7425 -11.1038
	vertex -0.5000 -4.8638 -11.5175
	vertex 0.5000 -4.8638 -11.5175
endloop
endfacet
facet normal 0.0000 -0.3528 -0.9357
outer loop
	vertex 0.5000 -4.8638 -11.5175
	vertex -0.5000 -4.8638 -11.5175
	vertex -0.5000 -3.9488 -11.8625
endloop
endfacet
facet normal 0.0000 -0.3528 -0.9357
outer loop
	vertex 0.5000 -4.8638 -11.5175
	vertex -0.5000 -3.9488 -11.8625
	vertex 0.5000 -3.9488 -11.8625
endloop
endfacet
facet normal 0.0000 -0.2779 -0.9606
outer loop
	vertex 0.5000 -3.9488 -11.8625
	vertex -0.5000 -3.9488 -11.8625
	vertex -0.5000 -3.0025 -12.1363
endloop
endfacet
facet normal 0.0000 -0.2779 -0.9606
outer loop
	vertex 0.5000 -3.9488 -11.8625
	vertex -0.5000 -3.0025 -12.1363
	vertex 0.5000 -3.0025 -12.1363
endloop
endfacet
facet normal 0.0000 -0.2007 -0.9797
outer loop
	vertex 0.5000 -3.0025 -12.1363
	vertex -0.5000 -3.0025 -12.1363
	vertex -0.5000 -2.0263 -12.3363
endloop
endfacet
facet normal 0.0000 -0.2007 -0.9797
outer loop
	vertex 0.5000 -3.0025 -12.1363
	vertex -0.5000 -2.0263 -12.3363
	vertex 0.5000 -2.0263 -12.3363
endloop
endfacet
facet normal 0.0000 -0.1214 -0.9926
outer loop
	vertex 0.5000 -2.0263 -12.3363
	vertex -0.5000 -2.0263 -12.3363
	vertex -0.5000 -1.0250 -12.4588
endloop
endfacet
facet normal 0.0000 -0.1214 -0.9926
outer loop
	vertex 0.5000 -2.0263 -12.3363
	vertex -0.5000 -1.0250 -12.4588
	vertex 0.5000 -1.0250 -12.4588
endloop
endfacet
facet normal 0.0000 -0.0402 -0.9992
outer loop
	vertex 0.5000 -1.0250 -12.4588
	vertex -0.5000 -1.0250 -12.4588
	vertex -0.5000 0.0000 -12.5000
endloop
endfacet
facet normal 0.0000 -0.0402 -0.9992
outer loop
	vertex 0.5000 -1.0250 -12.4588
	vertex -0.5000 0.0000 -12.5000
	vertex 0.5000 0.0000 -12.5000
endloop
endfacet
facet normal 0.0000 0.0402 -0.9992
outer loop
	vertex 0.5000 0.0000 -12.5000
	vertex -0.5000 0.0000 -12.5000
	vertex -0.5000 1.0250 -12.4588
endloop
endfacet
facet normal 0.0000 0.0402 -0.9992
outer loop
	vertex 0.5000 0.0000 -12.5000
	vertex -0.5000 1.0250 -12.4588
	vertex 0.5000 1.0250 -12.4588
endloop
endfacet
facet normal 0.0000 0.1214 -0.9926
outer loop
	vertex 0.5000 1.0250 -12.4588
	vertex -0.5000 1.0250 -12.4588
	vertex -0.5000 2.0263 -12.3363
endloop
endfacet
facet normal 0.0000 0.1214 -0.9926
outer loop
	vertex 0.5000 1.0250 -12.4588
	vertex -0.5000 2.0263 -12.3363
	vertex 0.5000 2.0263 -12.3363
endloop
endfacet
facet normal 0.0000 0.2007 -0.9797
outer loop
	vertex 0.5000 2.0263 -12.3363
	vertex -0.5000 2.0263 -12.3363
	vertex -0.5000 3.0025 -12.1363
endloop
endfacet
facet normal 0.0000 0.2007 -0.9797
outer loop
	vertex 0.5000 2.0263 -12.3363
	vertex -0.5000 3.0025 -12.1363
	vertex 0.5000 3.0025 -12.1363
endloop
endfacet
facet normal 0.0000 0.2779 -0.9606
outer loop
	vertex 0.5000 3.0025 -12.1363
	vertex -0.5000 3.0025 -12.1363
	vertex -0.5000 3.9488 -11.8625
endloop
endfacet
facet normal 0.0000 0.2779 -0.9606
outer loop
	vertex 0.5000 3.0025 -12.1363
	vertex -0.5000 3.9488 -11.8625
	vertex 0.5000 3.9488 -11.8625
endloop
endfacet
facet normal 0.0000 0.3528 -0.9357
outer loop
	vertex 0.5000 3.9488 -11.8625
	vertex -0.5000 3.9488 -11.8625
	vertex -0.5000 4.8638 -11.5175
endloop
endfacet
facet normal 0.0000 0.3528 -0.9357
outer loop
	vertex 0.5000 3.9488 -11.8625
	vertex -0.5000 4.8638 -11.5175
	vertex 0.5000 4.8638 -11.5175
endloop
endfacet
facet normal 0.0000 0.4260 -0.9047
outer loop
	vertex 0.5000 4.8638 -11.5175
	vertex -0.5000 4.8638 -11.5175
	vertex -0.5000 5.7425 -11.1038
endloop
endfacet
facet normal 0.0000 0.4260 -0.9047
outer loop
	vertex 0.5000 4.8638 -11.5175
	vertex -0.5000 5.7425 -11.1038
	vertex 0.5000 5.7425 -11.1038
endloop
endfacet
facet normal 0.0000 0.4942 -0.8694
outer loop
	vertex 0.5000 5.7425 -11.1038
	vertex -0.5000 5.7425 -11.1038
	vertex -0.5000 6.5825 -10.6263
endloop
endfacet
facet normal 0.0000 0.4942 -0.8694
outer loop
	vertex 0.5000 5.7425 -11.1038
	vertex -0.5000 6.5825 -10.6263
	vertex 0.5000 6.5825 -10.6263
endloop
endfacet
facet normal 0.0000 0.5607 -0.8280
outer loop
	vertex 0.5000 6.5825 -10.6263
	vertex -0.5000 6.5825 -10.6263
	vertex -0.5000 7.3800 -10.0863
endloop
endfacet
facet normal 0.0000 0.5607 -0.8280
outer loop
	vertex 0.5000 6.5825 -10.6263
	vertex -0.5000 7.3800 -10.0863
	vertex 0.5000 7.3800 -10.0863
endloop
endfacet
facet normal 0.0000 0.6210 -0.7838
outer loop
	vertex 0.5000 7.3800 -10.0863
	vertex -0.5000 7.3800 -10.0863
	vertex -0.5000 8.1325 -9.4900
endloop
endfacet
facet normal 0.0000 0.6210 -0.7838
outer loop
	vertex 0.5000 7.3800 -10.0863
	vertex -0.5000 8.1325 -9.4900
	vertex 0.5000 8.1325 -9.4900
endloop
endfacet
facet normal 0.0000 0.6793 -0.7339
outer loop
	vertex 0.5000 8.1325 -9.4900
	vertex -0.5000 8.1325 -9.4900
	vertex -0.5000 8.8375 -8.8375
endloop
endfacet
facet normal 0.0000 0.6793 -0.7339
outer loop
	vertex 0.5000 8.1325 -9.4900
	vertex -0.5000 8.8375 -8.8375
	vertex 0.5000 8.8375 -8.8375
endloop
endfacet
facet normal 0.0000 0.7339 -0.6793
outer loop
	vertex 0.5000 8.8375 -8.8375
	vertex -0.5000 8.8375 -8.8375
	vertex -0.5000 9.4900 -8.1325
endloop
endfacet
facet normal 0.0000 0.7339 -0.6793
outer loop
	vertex 0.5000 8.8375 -8.8375
	vertex -0.5000 9.4900 -8.1325
	vertex 0.5000 9.4900 -8.1325
endloop
endfacet
facet normal 0.0000 0.7838 -0.6210
outer loop
	vertex 0.5000 9.4900 -8.1325
	vertex -0.5000 9.4900 -8.1325
	vertex -0.5000 10.0863 -7.3800
endloop
endfacet
facet normal 0.0000 0.7838 -0.6210
outer loop
	vertex 0.5000 9.4900 -8.1325
	vertex -0.5000 10.0863 -7.3800
	vertex 0.5000 10.0863 -7.3800
endloop
endfacet
facet normal 0.0000 0.8280 -0.5607
outer loop
	vertex 0.5000 10.0863 -7.3800
	vertex -0.5000 10.0863 -7.3800
	vertex -0.5000 10.6263 -6.5825
endloop
endfacet
facet normal 0.0000 0.8280 -0.5607
outer loop
	vertex 0.5000 10.0863 -7.3800
	vertex -0.5000 10.6263 -6.5825
	vertex 0.5000 10.6263 -6.5825
endloop
endfacet
facet normal 0.0000 0.8694 -0.4942
outer loop
	vertex 0.5000 10.6263 -6.5825
	vertex -0.5000 10.6263 -6.5825
	vertex -0.5000 11.1038 -5.7425
endloop
endfacet
facet normal 0.0000 0.8694 -0.4942
outer loop
	vertex 0.5000 10.6263 -6.5825
	vertex -0.5000 11.1038 -5.7425
	vertex 0.5000 11.1038 -5.7425
endloop
endfacet
facet normal 0.0000 0.9047 -0.4260
outer loop
	vertex 0.5000 11.1038 -5.7425
	vertex -0.5000 11.1038 -5.7425
	vertex -0.5000 11.5175 -4.8638
endloop
endfacet
facet normal 0.0000 0.9047 -0.4260
outer loop
	vertex 0.5000 11.1038 -5.7425
	vertex -0.5000 11.5175 -4.8638
	vertex 0.5000 11.5175 -4.8638
endloop
endfacet
facet normal 0.0000 0.9357 -0.3528
outer loop
	vertex 0.5000 11.5175 -4.8638
	vertex -0.5000 11.5175 -4.8638
	vertex -0.5000 11.8625 -3.9488
endloop
endfacet
facet normal 0.0000 0.9357 -0.3528
outer loop
	vertex 0.5000 11.5175 -4.8638
	vertex -0.5000 11.8625 -3.9488
	vertex 0.5000 11.8625 -3.9488
endloop
endfacet
facet normal 0.0000 0.9606 -0.2779
outer loop
	vertex 0.5000 11.8625 -3.9488
	vertex -0.5000 11.8625 -3.9488
	vertex -0.5000 12.1363 -3.0025
endloop
endfacet
facet normal 0.0000 0.9606 -0.2779
outer loop
	vertex 0.5000 11.8625 -3.9488
	vertex -0.5000 12.1363 -3.0025
	vertex 0.5000 12.1363 -3.0025
endloop
endfacet
facet normal 0.0000 0.9797 -0.2007
outer loop
	vertex 0.5000 12.1363 -3.0025
	vertex -0.5000 12.1363 -3.0025
	vertex -0.5000 12.3363 -2.0263
endloop
endfacet
facet normal 0.0000 0.9797 -0.2007
outer loop
	vertex 0.5000 12.1363 -3.0025
	vertex -0.5000 12.3363 -2.0263
	vertex 0.5000 12.3363 -2.0263
endloop
endfacet
facet normal 0.0000 0.9926 -0.1214
outer loop
	vertex 0.5000 12.3363 -2.0263
	vertex -0.5000 12.3363 -2.0263
	vertex -0.5000 12.4588 -1.0250
endloop
endfacet
facet normal 0.0000 0.9926 -0.1214
outer loop
	vertex 0.5000 12.3363 -2.0263
	vertex -0.5000 12.4588 -1.0250
	vertex 0.5000 12.4588 -1.0250
endloop
endfacet
facet normal 0.0000 0.9992 -0.0402
outer loop
	vertex 0.5000 12.4588 -1.0250
	vertex -0.5000 12.4588 -1.0250
	vertex -0.5000 12.5000 0.0000
endloop
endfacet
facet normal 0.0000 0.9992 -0.0402
outer loop
	vertex 0.5000 12.4588 -1.0250
	vertex -0.5000 12.5000 0.0000
	vertex 0.5000 12.5000 0.0000
endloop
endfacet
facet normal 0.0000 0.9992 0.0402
outer loop
	vertex 0.5000 12.5000 0.0000
	vertex -0.5000 12.5000 0.0000
	vertex -0.5000 12.4588 1.0250
endloop
endfacet
facet normal 0.0000 0.9992 0.0402
outer loop
	vertex 0.5000 12.5000 0.0000
	vertex -0.5000 12.4588 1.0250
	vertex 0.5000 12.4588 1.0250
endloop
endfacet
facet normal 0.0000 0.9926 0.1214
outer loop
	vertex 0.5000 12.4588 1.0250
	vertex -0.5000 12.4588 1.0250
	vertex -0.5000 12.3363 2.0263
endloop
endfacet
facet normal 0.0000 0.9926 0.1214
outer loop
	vertex 0.5000 12.4588 1.0250
	vertex -0.5000 12.3363 2.0263
	vertex 0.5000 12.3363 2.0263
endloop
endfacet
facet normal 0.0000 0.9797 0.2007
outer loop
	vertex 0.5000 12.3363 2.0263
	vertex -0.5000 12.3363 2.0263
	vertex -0.5000 12.1363 3.0025
endloop
endfacet
facet normal 0.0000 0.9797 0.2007
outer loop
	vertex 0.5000 12.3363 2.0263
	vertex -0.5000 12.1363 3.0025
	vertex 0.5000 12.1363 3.0025
endloop
endfacet
facet normal 0.0000 0.9606 0.2779
outer loop
	vertex 0.5000 12.1363 3.0025
	vertex -0.5000 12.1363 3.0025
	vertex -0.5000 11.8625 3.9488
endloop
endfacet
facet normal 0.0000 0.9606 0.2779
outer loop
	vertex 0.5000 12.1363 3.0025
	vertex -0.5000 11.8625 3.9488
	vertex 0.5000 11.8625 3.9488
endloop
endfacet
facet normal 0.0000 0.9357 0.3528
outer loop
	vertex 0.5000 11.8625 3.9488
	vertex -0.5000 11.8625 3.9488
	vertex -0.5000 11.5175 4.8638
endloop
endfacet
facet normal 0.0000 0.9357 0.3528
outer loop
	vertex 0.5000 11.8625 3.9488
	vertex -0.5000 11.5175 4.8638
	vertex 0.5000 11.5175 4.8638
endloop
endfacet
facet normal 0.0000 0.9047 0.4260
outer loop
	vertex 0.5000 11.5175 4.8638
	vertex -0.5000 11.5175 4.8638
	vertex -0.5000 11.1038 5.7425
endloop
endfacet
facet normal 0.0000 0.9047 0.4260
outer loop
	vertex 0.5000 11.5175 4.8638
	vertex -0.5000 11.1038 5.7425
	vertex 0.5000 11.1038 5.7425
endloop
endfacet
facet normal 0.0000 0.8694 0.4942
outer loop
	vertex 0.5000 11.1038 5.7425
	vertex -0.5000 11.1038 5.7425
	vertex -0.5000 10.6263 6.5825
endloop
endfacet
facet normal 0.0000 0.8694 0.4942
outer loop
	vertex 0.5000 11.1038 5.7425
	vertex -0.5000 10.6263 6.5825
	vertex 0.5000 10.6263 6.5825
endloop
endfacet
facet normal 0.0000 0.8280 0.5607
outer loop
	vertex 0.5000 10.6263 6.5825
	vertex -0.5000 10.6263 6.5825
	vertex -0.5000 10.0863 7.3800
endloop
endfacet
facet normal 0.0000 0.8280 0.5607
outer loop
	vertex 0.5000 10.6263 6.5825
	vertex -0.5000 10.0863 7.3800
	vertex 0.5000 10.0863 7.3800
endloop
endfacet
facet normal 0.0000 0.7838 0.6210
outer loop
	vertex 0.5000 10.0863 7.3800
	vertex -0.5000 10.0863 7.3800
	vertex -0.5000 9.4900 8.1325
endloop
endfacet
facet normal 0.0000 0.7838 0.6210
outer loop
	vertex 0.5000 10.0863 7.3800
	vertex -0.5000 9.4900 8.1325
	vertex 0.5000 9.4900 8.1325
endloop
endfacet
facet normal 0.0000 0.7339 0.6793
outer loop
	vertex 0.5000 9.4900 8.1325
	vertex -0.5000 9.4900 8.1325
	vertex -0.5000 8.8375 8.8375
endloop
endfacet
facet normal 0.0000 0.7339 0.6793
outer loop
	vertex 0.5000 9.4900 8.1325
	vertex -0.5000 8.8375 8.8375
	vertex 0.5000 8.8375 8.8375
endloop
endfacet
facet normal 0.0000 0.6793 0.7339
outer loop
	vertex 0.5000 8.8375 8.8375
	vertex -0.5000 8.8375 8.8375
	vertex -0.5000 8.1325 9.4900
endloop
endfacet
facet normal 0.0000 0.6793 0.7339
outer loop
	vertex 0.5000 8.8375 8.8375
	vertex -0.5000 8.1325 9.4900
	vertex 0.5000 8.1325 9.4900
endloop
endfacet
facet normal 0.0000 0.6218 0.7831
outer loop
	vertex 0.5000 8.1325 9.4900
	vertex -0.5000 8.1325 9.4900
	vertex -0.5000 7.3800 10.0875
endloop
endfacet
facet normal 0.0000 0.6218 0.7831
outer loop
	vertex 0.5000 8.1325 9.4900
	vertex -0.5000 7.3800 10.0875
	vertex 0.5000 7.3800 10.0875
endloop
endfacet
facet normal 0.0000 0.5598 0.8286
outer loop
	vertex 0.5000 7.3800 10.0875
	vertex -0.5000 7.3800 10.0875
	vertex -0.5000 6.5825 10.6263
endloop
endfacet
facet normal 0.0000 0.5598 0.8286
outer loop
	vertex 0.5000 7.3800 10.0875
	vertex -0.5000 6.5825 10.6263
	vertex 0.5000 6.5825 10.6263
endloop
endfacet
facet normal 0.0000 0.4942 0.8694
outer loop
	vertex 0.5000 6.5825 10.6263
	vertex -0.5000 6.5825 10.6263
	vertex -0.5000 5.7425 11.1038
endloop
endfacet
facet normal 0.0000 0.4942 0.8694
outer loop
	vertex 0.5000 6.5825 10.6263
	vertex -0.5000 5.7425 11.1038
	vertex 0.5000 5.7425 11.1038
endloop
endfacet
facet normal 0.0000 0.4260 0.9047
outer loop
	vertex 0.5000 5.7425 11.1038
	vertex -0.5000 5.7425 11.1038
	vertex -0.5000 4.8638 11.5175
endloop
endfacet
facet normal 0.0000 0.4260 0.9047
outer loop
	vertex 0.5000 5.7425 11.1038
	vertex -0.5000 4.8638 11.5175
	vertex 0.5000 4.8638 11.5175
endloop
endfacet
facet normal 0.0000 0.3528 0.9357
outer loop
	vertex 0.5000 4.8638 11.5175
	vertex -0.5000 4.8638 11.5175
	vertex -0.5000 3.9488 11.8625
endloop
endfacet
facet normal 0.0000 0.3528 0.9357
outer loop
	vertex 0.5000 4.8638 11.5175
	vertex -0.5000 3.9488 11.8625
	vertex 0.5000 3.9488 11.8625
endloop
endfacet
facet normal 0.0000 0.2779 0.9606
outer loop
	vertex 0.5000 3.9488 11.8625
	vertex -0.5000 3.9488 11.8625
	vertex -0.5000 3.0025 12.1363
endloop
endfacet
facet normal 0.0000 0.2779 0.9606
outer loop
	vertex 0.5000 3.9488 11.8625
	vertex -0.5000 3.0025 12.1363
	vertex 0.5000 3.0025 12.1363
endloop
endfacet
facet normal 0.0000 0.2007 0.9797
outer loop
	vertex 0.5000 3.0025 12.1363
	vertex -0.5000 3.0025 12.1363
	vertex -0.5000 2.0263 12.3363
endloop
endfacet
facet normal 0.0000 0.2007 0.9797
outer loop
	vertex 0.5000 3.0025 12.1363
	vertex -0.5000 2.0263 12.3363
	vertex 0.5000 2.0263 12.3363
endloop
endfacet
facet normal 0.0000 0.1214 0.9926
outer loop
	vertex 0.5000 2.0263 12.3363
	vertex -0.5000 2.0263 12.3363
	vertex -0.5000 1.0250 12.4588
endloop
endfacet
facet normal 0.0000 0.1214 0.9926
outer loop
	vertex 0.5000 2.0263 12.3363
	vertex -0.5000 1.0250 12.4588
	vertex 0.5000 1.0250 12.4588
endloop
endfacet
endsolid Composite Mesh
