solid Composite Mesh
facet normal 1.0000 0.0000 0.0000
outer loop
	vertex 0.5000 -0.7969 3.9531
	vertex 0.5000 -2.1016 3.5391
	vertex 0.5000 -2.1016 0.7266
endloop
endfacet
facet normal 1.0000 0.0000 0.0000
outer loop
	vertex 0.5000 2.0938 0.7266
	vertex 0.5000 2.0938 3.5000
	vertex 0.5000 0.6719 3.9531
endloop
endfacet
facet normal 1.0000 0.0000 0.0000
outer loop
	vertex 0.5000 0.6719 3.9531
	vertex 0.5000 -2.1016 0.7266
	vertex 0.5000 2.0938 0.7266
endloop
endfacet
facet normal 1.0000 0.0000 0.0000
outer loop
	vertex 0.5000 0.6719 3.9531
	vertex 0.5000 -0.7969 3.9531
	vertex 0.5000 -2.1016 0.7266
endloop
endfacet
facet normal 1.0000 0.0000 0.0000
outer loop
	vertex 0.5000 0.6719 3.9531
	vertex 0.5000 -0.6797 4.8359
	vertex 0.5000 -0.7969 3.9531
endloop
endfacet
facet normal 1.0000 0.0000 0.0000
outer loop
	vertex 0.5000 0.7813 4.8359
	vertex 0.5000 -0.6797 4.8359
	vertex 0.5000 0.6719 3.9531
endloop
endfacet
facet normal 1.0000 0.0000 0.0000
outer loop
	vertex 0.5000 5.6406 3.9531
	vertex 0.5000 4.3281 3.5391
	vertex 0.5000 4.3281 -3.6172
endloop
endfacet
facet normal 1.0000 0.0000 0.0000
outer loop
	vertex 0.5000 -4.3203 -3.5625
	vertex 0.5000 -4.3203 3.5000
	vertex 0.5000 -5.7578 3.9531
endloop
endfacet
facet normal 1.0000 0.0000 0.0000
outer loop
	vertex 0.5000 -4.3203 -3.5625
	vertex 0.5000 -5.7578 3.9531
	vertex 0.5000 -5.6328 -4.0547
endloop
endfacet
facet normal 1.0000 0.0000 0.0000
outer loop
	vertex 0.5000 -5.7578 3.9531
	vertex 0.5000 -11.8625 -3.9488
	vertex 0.5000 -5.6328 -4.0547
endloop
endfacet
facet normal 1.0000 0.0000 0.0000
outer loop
	vertex 0.5000 -11.5175 -4.8638
	vertex 0.5000 -5.6328 -4.0547
	vertex 0.5000 -11.8625 -3.9488
endloop
endfacet
facet normal 1.0000 0.0000 0.0000
outer loop
	vertex 0.5000 -11.5175 -4.8638
	vertex 0.5000 -11.1038 -5.7425
	vertex 0.5000 -5.6328 -4.0547
endloop
endfacet
facet normal 1.0000 0.0000 0.0000
outer loop
	vertex 0.5000 -5.6328 -4.0547
	vertex 0.5000 -11.1038 -5.7425
	vertex 0.5000 -5.7109 -4.8828
endloop
endfacet
facet normal 1.0000 0.0000 0.0000
outer loop
	vertex 0.5000 -5.7109 -4.8828
	vertex 0.5000 -11.1038 -5.7425
	vertex 0.5000 -10.6263 -6.5825
endloop
endfacet
facet normal 1.0000 0.0000 0.0000
outer loop
	vertex 0.5000 -5.7109 -4.8828
	vertex 0.5000 -10.6263 -6.5825
	vertex 0.5000 -10.0875 -7.3800
endloop
endfacet
facet normal 1.0000 0.0000 0.0000
outer loop
	vertex 0.5000 -5.7109 -4.8828
	vertex 0.5000 -10.0875 -7.3800
	vertex 0.5000 -9.4900 -8.1325
endloop
endfacet
facet normal 1.0000 0.0000 0.0000
outer loop
	vertex 0.5000 -5.7109 -4.8828
	vertex 0.5000 -9.4900 -8.1325
	vertex 0.5000 -8.8375 -8.8375
endloop
endfacet
facet normal 1.0000 0.0000 0.0000
outer loop
	vertex 0.5000 -5.7109 -4.8828
	vertex 0.5000 -8.8375 -8.8375
	vertex 0.5000 -8.1325 -9.4900
endloop
endfacet
facet normal 1.0000 0.0000 0.0000
outer loop
	vertex 0.5000 -5.7109 -4.8828
	vertex 0.5000 -8.1325 -9.4900
	vertex 0.5000 -7.3800 -10.0863
endloop
endfacet
facet normal 1.0000 0.0000 0.0000
outer loop
	vertex 0.5000 -5.7109 -4.8828
	vertex 0.5000 -7.3800 -10.0863
	vertex 0.5000 -6.5825 -10.6263
endloop
endfacet
facet normal 1.0000 0.0000 0.0000
outer loop
	vertex 0.5000 -5.7109 -4.8828
	vertex 0.5000 -6.5825 -10.6263
	vertex 0.5000 -5.7425 -11.1038
endloop
endfacet
facet normal 1.0000 0.0000 0.0000
outer loop
	vertex 0.5000 -4.8638 -11.5175
	vertex 0.5000 -5.7109 -4.8828
	vertex 0.5000 -5.7425 -11.1038
endloop
endfacet
facet normal 1.0000 0.0000 0.0000
outer loop
	vertex 0.5000 -0.7969 -4.8828
	vertex 0.5000 -5.7109 -4.8828
	vertex 0.5000 -4.8638 -11.5175
endloop
endfacet
facet normal 1.0000 0.0000 0.0000
outer loop
	vertex 0.5000 -0.7969 -4.8828
	vertex 0.5000 -4.8638 -11.5175
	vertex 0.5000 -3.9488 -11.8625
endloop
endfacet
facet normal 1.0000 0.0000 0.0000
outer loop
	vertex 0.5000 -0.7969 -4.8828
	vertex 0.5000 -3.9488 -11.8625
	vertex 0.5000 -3.0025 -12.1363
endloop
endfacet
facet normal 1.0000 0.0000 0.0000
outer loop
	vertex 0.5000 -0.7969 -4.8828
	vertex 0.5000 -3.0025 -12.1363
	vertex 0.5000 -2.0263 -12.3363
endloop
endfacet
facet normal 1.0000 0.0000 0.0000
outer loop
	vertex 0.5000 -2.1016 -0.6563
	vertex 0.5000 -2.1016 -3.6172
	vertex 0.5000 -0.6719 -3.9922
endloop
endfacet
facet normal 1.0000 0.0000 0.0000
outer loop
	vertex 0.5000 2.0938 -0.6563
	vertex 0.5000 -2.1016 -0.6563
	vertex 0.5000 -0.6719 -3.9922
endloop
endfacet
facet normal 1.0000 0.0000 0.0000
outer loop
	vertex 0.5000 2.0938 -0.6563
	vertex 0.5000 0.7969 -4.0547
	vertex 0.5000 2.0938 -3.5625
endloop
endfacet
facet normal 1.0000 0.0000 0.0000
outer loop
	vertex 0.5000 0.7969 -4.0547
	vertex 0.5000 2.0938 -0.6563
	vertex 0.5000 -0.6719 -3.9922
endloop
endfacet
facet normal 1.0000 0.0000 0.0000
outer loop
	vertex 0.5000 0.7969 -4.0547
	vertex 0.5000 -0.6719 -3.9922
	vertex 0.5000 0.7031 -4.8828
endloop
endfacet
facet normal 1.0000 0.0000 0.0000
outer loop
	vertex 0.5000 0.7031 -4.8828
	vertex 0.5000 -0.6719 -3.9922
	vertex 0.5000 -0.7969 -4.8828
endloop
endfacet
facet normal 1.0000 0.0000 0.0000
outer loop
	vertex 0.5000 0.7031 -4.8828
	vertex 0.5000 -0.7969 -4.8828
	vertex 0.5000 -2.0263 -12.3363
endloop
endfacet
facet normal 1.0000 0.0000 0.0000
outer loop
	vertex 0.5000 -1.0250 -12.4588
	vertex 0.5000 0.7031 -4.8828
	vertex 0.5000 -2.0263 -12.3363
endloop
endfacet
facet normal 1.0000 0.0000 0.0000
outer loop
	vertex 0.5000 0.0000 -12.5000
	vertex 0.5000 0.7031 -4.8828
	vertex 0.5000 -1.0250 -12.4588
endloop
endfacet
facet normal 1.0000 0.0000 0.0000
outer loop
	vertex 0.5000 0.7031 -4.8828
	vertex 0.5000 0.0000 -12.5000
	vertex 0.5000 1.0250 -12.4588
endloop
endfacet
facet normal 1.0000 0.0000 0.0000
outer loop
	vertex 0.5000 0.7031 -4.8828
	vertex 0.5000 1.0250 -12.4588
	vertex 0.5000 2.0263 -12.3363
endloop
endfacet
facet normal 1.0000 0.0000 0.0000
outer loop
	vertex 0.5000 0.7031 -4.8828
	vertex 0.5000 2.0263 -12.3363
	vertex 0.5000 3.0025 -12.1363
endloop
endfacet
facet normal 1.0000 0.0000 0.0000
outer loop
	vertex 0.5000 0.7031 -4.8828
	vertex 0.5000 3.0025 -12.1363
	vertex 0.5000 3.9488 -11.8625
endloop
endfacet
facet normal 1.0000 0.0000 0.0000
outer loop
	vertex 0.5000 4.8638 -11.5175
	vertex 0.5000 0.7031 -4.8828
	vertex 0.5000 3.9488 -11.8625
endloop
endfacet
facet normal 1.0000 0.0000 0.0000
outer loop
	vertex 0.5000 5.6406 -4.8828
	vertex 0.5000 0.7031 -4.8828
	vertex 0.5000 4.8638 -11.5175
endloop
endfacet
facet normal 1.0000 0.0000 0.0000
outer loop
	vertex 0.5000 5.7425 -11.1038
	vertex 0.5000 5.6406 -4.8828
	vertex 0.5000 4.8638 -11.5175
endloop
endfacet
facet normal 1.0000 0.0000 0.0000
outer loop
	vertex 0.5000 6.5825 -10.6263
	vertex 0.5000 5.6406 -4.8828
	vertex 0.5000 5.7425 -11.1038
endloop
endfacet
facet normal 1.0000 0.0000 0.0000
outer loop
	vertex 0.5000 7.3800 -10.0863
	vertex 0.5000 5.6406 -4.8828
	vertex 0.5000 6.5825 -10.6263
endloop
endfacet
facet normal 1.0000 0.0000 0.0000
outer loop
	vertex 0.5000 8.1325 -9.4900
	vertex 0.5000 5.6406 -4.8828
	vertex 0.5000 7.3800 -10.0863
endloop
endfacet
facet normal 1.0000 0.0000 0.0000
outer loop
	vertex 0.5000 8.8375 -8.8375
	vertex 0.5000 5.6406 -4.8828
	vertex 0.5000 8.1325 -9.4900
endloop
endfacet
facet normal 1.0000 0.0000 0.0000
outer loop
	vertex 0.5000 9.4900 -8.1325
	vertex 0.5000 5.6406 -4.8828
	vertex 0.5000 8.8375 -8.8375
endloop
endfacet
facet normal 1.0000 0.0000 0.0000
outer loop
	vertex 0.5000 10.0863 -7.3800
	vertex 0.5000 5.6406 -4.8828
	vertex 0.5000 9.4900 -8.1325
endloop
endfacet
facet normal 1.0000 0.0000 0.0000
outer loop
	vertex 0.5000 10.6263 -6.5825
	vertex 0.5000 5.6406 -4.8828
	vertex 0.5000 10.0863 -7.3800
endloop
endfacet
facet normal 1.0000 0.0000 0.0000
outer loop
	vertex 0.5000 11.1038 -5.7425
	vertex 0.5000 5.6406 -4.8828
	vertex 0.5000 10.6263 -6.5825
endloop
endfacet
facet normal 1.0000 0.0000 0.0000
outer loop
	vertex 0.5000 5.7344 -3.9922
	vertex 0.5000 5.6406 -4.8828
	vertex 0.5000 11.1038 -5.7425
endloop
endfacet
facet normal 1.0000 0.0000 0.0000
outer loop
	vertex 0.5000 5.7344 -3.9922
	vertex 0.5000 11.1038 -5.7425
	vertex 0.5000 11.5175 -4.8638
endloop
endfacet
facet normal 1.0000 0.0000 0.0000
outer loop
	vertex 0.5000 11.8625 -3.9488
	vertex 0.5000 5.7344 -3.9922
	vertex 0.5000 11.5175 -4.8638
endloop
endfacet
facet normal 1.0000 0.0000 0.0000
outer loop
	vertex 0.5000 12.1363 -3.0025
	vertex 0.5000 5.7344 -3.9922
	vertex 0.5000 11.8625 -3.9488
endloop
endfacet
facet normal 1.0000 0.0000 0.0000
outer loop
	vertex 0.5000 4.3281 -3.6172
	vertex 0.5000 5.7344 -3.9922
	vertex 0.5000 12.1363 -3.0025
endloop
endfacet
facet normal 1.0000 0.0000 0.0000
outer loop
	vertex 0.5000 4.3281 -3.6172
	vertex 0.5000 12.1363 -3.0025
	vertex 0.5000 12.3363 -2.0263
endloop
endfacet
facet normal 1.0000 0.0000 0.0000
outer loop
	vertex 0.5000 4.3281 -3.6172
	vertex 0.5000 12.3363 -2.0263
	vertex 0.5000 5.6406 3.9531
endloop
endfacet
facet normal 1.0000 0.0000 0.0000
outer loop
	vertex 0.5000 12.3363 -2.0263
	vertex 0.5000 12.4588 -1.0250
	vertex 0.5000 5.6406 3.9531
endloop
endfacet
facet normal 1.0000 0.0000 0.0000
outer loop
	vertex 0.5000 5.6406 3.9531
	vertex 0.5000 12.4588 -1.0250
	vertex 0.5000 12.5000 0.0000
endloop
endfacet
facet normal 1.0000 0.0000 0.0000
outer loop
	vertex 0.5000 5.6406 3.9531
	vertex 0.5000 12.5000 0.0000
	vertex 0.5000 12.4588 1.0250
endloop
endfacet
facet normal 1.0000 0.0000 0.0000
outer loop
	vertex 0.5000 5.6406 3.9531
	vertex 0.5000 12.4588 1.0250
	vertex 0.5000 12.3363 2.0263
endloop
endfacet
facet normal 1.0000 0.0000 0.0000
outer loop
	vertex 0.5000 11.8625 3.9488
	vertex 0.5000 12.3363 2.0263
	vertex 0.5000 12.1363 3.0025
endloop
endfacet
facet normal 1.0000 0.0000 0.0000
outer loop
	vertex 0.5000 11.8625 3.9488
	vertex 0.5000 5.6406 3.9531
	vertex 0.5000 12.3363 2.0263
endloop
endfacet
facet normal 1.0000 0.0000 0.0000
outer loop
	vertex 0.5000 11.5175 4.8638
	vertex 0.5000 5.6406 3.9531
	vertex 0.5000 11.8625 3.9488
endloop
endfacet
facet normal 1.0000 0.0000 0.0000
outer loop
	vertex 0.5000 11.5175 4.8638
	vertex 0.5000 5.7578 4.8359
	vertex 0.5000 5.6406 3.9531
endloop
endfacet
facet normal 1.0000 0.0000 0.0000
outer loop
	vertex 0.5000 11.5175 4.8638
	vertex 0.5000 11.1038 5.7425
	vertex 0.5000 5.7578 4.8359
endloop
endfacet
facet normal 1.0000 0.0000 0.0000
outer loop
	vertex 0.5000 11.1038 5.7425
	vertex 0.5000 10.6263 6.5825
	vertex 0.5000 5.7578 4.8359
endloop
endfacet
facet normal 1.0000 0.0000 0.0000
outer loop
	vertex 0.5000 10.6263 6.5825
	vertex 0.5000 10.0863 7.3800
	vertex 0.5000 5.7578 4.8359
endloop
endfacet
facet normal 1.0000 0.0000 0.0000
outer loop
	vertex 0.5000 10.0863 7.3800
	vertex 0.5000 9.4900 8.1325
	vertex 0.5000 5.7578 4.8359
endloop
endfacet
facet normal 1.0000 0.0000 0.0000
outer loop
	vertex 0.5000 9.4900 8.1325
	vertex 0.5000 8.8375 8.8375
	vertex 0.5000 5.7578 4.8359
endloop
endfacet
facet normal 1.0000 0.0000 0.0000
outer loop
	vertex 0.5000 8.8375 8.8375
	vertex 0.5000 8.1325 9.4900
	vertex 0.5000 5.7578 4.8359
endloop
endfacet
facet normal 1.0000 0.0000 0.0000
outer loop
	vertex 0.5000 8.1325 9.4900
	vertex 0.5000 7.3800 10.0875
	vertex 0.5000 5.7578 4.8359
endloop
endfacet
facet normal 1.0000 0.0000 0.0000
outer loop
	vertex 0.5000 7.3800 10.0875
	vertex 0.5000 6.5825 10.6263
	vertex 0.5000 5.7578 4.8359
endloop
endfacet
facet normal 1.0000 0.0000 0.0000
outer loop
	vertex 0.5000 6.5825 10.6263
	vertex 0.5000 5.7425 11.1038
	vertex 0.5000 5.7578 4.8359
endloop
endfacet
facet normal 1.0000 0.0000 0.0000
outer loop
	vertex 0.5000 5.7578 4.8359
	vertex 0.5000 5.7425 11.1038
	vertex 0.5000 4.8638 11.5175
endloop
endfacet
facet normal 1.0000 0.0000 0.0000
outer loop
	vertex 0.5000 0.7813 4.8359
	vertex 0.5000 5.7578 4.8359
	vertex 0.5000 4.8638 11.5175
endloop
endfacet
facet normal 1.0000 0.0000 0.0000
outer loop
	vertex 0.5000 4.8638 11.5175
	vertex 0.5000 3.9488 11.8625
	vertex 0.5000 0.7813 4.8359
endloop
endfacet
facet normal 1.0000 0.0000 0.0000
outer loop
	vertex 0.5000 3.9488 11.8625
	vertex 0.5000 3.0025 12.1363
	vertex 0.5000 0.7813 4.8359
endloop
endfacet
facet normal 1.0000 0.0000 0.0000
outer loop
	vertex 0.5000 3.0025 12.1363
	vertex 0.5000 2.0263 12.3363
	vertex 0.5000 0.7813 4.8359
endloop
endfacet
facet normal 1.0000 0.0000 0.0000
outer loop
	vertex 0.5000 2.0263 12.3363
	vertex 0.5000 1.0250 12.4588
	vertex 0.5000 0.7813 4.8359
endloop
endfacet
facet normal 1.0000 0.0000 0.0000
outer loop
	vertex 0.5000 1.0250 12.4588
	vertex 0.5000 0.0000 12.5000
	vertex 0.5000 0.7813 4.8359
endloop
endfacet
facet normal 1.0000 0.0000 0.0000
outer loop
	vertex 0.5000 0.7813 4.8359
	vertex 0.5000 0.0000 12.5000
	vertex 0.5000 -0.6797 4.8359
endloop
endfacet
facet normal 1.0000 0.0000 0.0000
outer loop
	vertex 0.5000 0.0000 12.5000
	vertex 0.5000 -1.0250 12.4588
	vertex 0.5000 -0.6797 4.8359
endloop
endfacet
facet normal 1.0000 0.0000 0.0000
outer loop
	vertex 0.5000 -0.6797 4.8359
	vertex 0.5000 -1.0250 12.4588
	vertex 0.5000 -2.0263 12.3363
endloop
endfacet
facet normal 1.0000 0.0000 0.0000
outer loop
	vertex 0.5000 -0.6797 4.8359
	vertex 0.5000 -2.0263 12.3363
	vertex 0.5000 -3.0025 12.1363
endloop
endfacet
facet normal 1.0000 0.0000 0.0000
outer loop
	vertex 0.5000 -0.6797 4.8359
	vertex 0.5000 -3.0025 12.1363
	vertex 0.5000 -3.9488 11.8625
endloop
endfacet
facet normal 1.0000 0.0000 0.0000
outer loop
	vertex 0.5000 -0.6797 4.8359
	vertex 0.5000 -3.9488 11.8625
	vertex 0.5000 -4.8638 11.5175
endloop
endfacet
facet normal 1.0000 0.0000 0.0000
outer loop
	vertex 0.5000 -0.6797 4.8359
	vertex 0.5000 -4.8638 11.5175
	vertex 0.5000 -5.6172 4.8359
endloop
endfacet
facet normal 1.0000 0.0000 0.0000
outer loop
	vertex 0.5000 -4.8638 11.5175
	vertex 0.5000 -5.7425 11.1038
	vertex 0.5000 -5.6172 4.8359
endloop
endfacet
facet normal 1.0000 0.0000 0.0000
outer loop
	vertex 0.5000 -5.6172 4.8359
	vertex 0.5000 -5.7425 11.1038
	vertex 0.5000 -6.5825 10.6263
endloop
endfacet
facet normal 1.0000 0.0000 0.0000
outer loop
	vertex 0.5000 -5.6172 4.8359
	vertex 0.5000 -6.5825 10.6263
	vertex 0.5000 -7.3800 10.0875
endloop
endfacet
facet normal 1.0000 0.0000 0.0000
outer loop
	vertex 0.5000 -5.6172 4.8359
	vertex 0.5000 -7.3800 10.0875
	vertex 0.5000 -8.1325 9.4900
endloop
endfacet
facet normal 1.0000 0.0000 0.0000
outer loop
	vertex 0.5000 -5.6172 4.8359
	vertex 0.5000 -8.1325 9.4900
	vertex 0.5000 -8.8375 8.8375
endloop
endfacet
facet normal 1.0000 0.0000 0.0000
outer loop
	vertex 0.5000 -5.6172 4.8359
	vertex 0.5000 -8.8375 8.8375
	vertex 0.5000 -9.4900 8.1325
endloop
endfacet
facet normal 1.0000 0.0000 0.0000
outer loop
	vertex 0.5000 -5.6172 4.8359
	vertex 0.5000 -9.4900 8.1325
	vertex 0.5000 -10.0875 7.3800
endloop
endfacet
facet normal 1.0000 0.0000 0.0000
outer loop
	vertex 0.5000 -10.0875 7.3800
	vertex 0.5000 -10.6263 6.5825
	vertex 0.5000 -5.6172 4.8359
endloop
endfacet
facet normal 1.0000 0.0000 0.0000
outer loop
	vertex 0.5000 -5.6172 4.8359
	vertex 0.5000 -10.6263 6.5825
	vertex 0.5000 -5.7578 3.9531
endloop
endfacet
facet normal 1.0000 0.0000 0.0000
outer loop
	vertex 0.5000 -5.7578 3.9531
	vertex 0.5000 -10.6263 6.5825
	vertex 0.5000 -11.1038 5.7425
endloop
endfacet
facet normal 1.0000 0.0000 0.0000
outer loop
	vertex 0.5000 -11.1038 5.7425
	vertex 0.5000 -11.8625 -3.9488
	vertex 0.5000 -5.7578 3.9531
endloop
endfacet
facet normal 1.0000 0.0000 0.0000
outer loop
	vertex 0.5000 -12.1363 -3.0025
	vertex 0.5000 -11.8625 -3.9488
	vertex 0.5000 -11.1038 5.7425
endloop
endfacet
facet normal 1.0000 0.0000 0.0000
outer loop
	vertex 0.5000 -12.1363 -3.0025
	vertex 0.5000 -11.1038 5.7425
	vertex 0.5000 -11.5175 4.8638
endloop
endfacet
facet normal 1.0000 0.0000 0.0000
outer loop
	vertex 0.5000 -12.3363 -2.0263
	vertex 0.5000 -12.1363 -3.0025
	vertex 0.5000 -11.5175 4.8638
endloop
endfacet
facet normal 1.0000 0.0000 0.0000
outer loop
	vertex 0.5000 -12.3363 -2.0263
	vertex 0.5000 -11.5175 4.8638
	vertex 0.5000 -11.8625 3.9488
endloop
endfacet
facet normal 1.0000 0.0000 0.0000
outer loop
	vertex 0.5000 -12.4588 -1.0250
	vertex 0.5000 -12.3363 -2.0263
	vertex 0.5000 -11.8625 3.9488
endloop
endfacet
facet normal 1.0000 0.0000 0.0000
outer loop
	vertex 0.5000 -12.4588 -1.0250
	vertex 0.5000 -11.8625 3.9488
	vertex 0.5000 -12.1363 3.0025
endloop
endfacet
facet normal 1.0000 0.0000 0.0000
outer loop
	vertex 0.5000 -12.4588 1.0250
	vertex 0.5000 -12.5000 0.0000
	vertex 0.5000 -12.3363 2.0263
endloop
endfacet
facet normal 1.0000 0.0000 0.0000
outer loop
	vertex 0.5000 -12.5000 0.0000
	vertex 0.5000 -12.1363 3.0025
	vertex 0.5000 -12.3363 2.0263
endloop
endfacet
facet normal 1.0000 0.0000 0.0000
outer loop
	vertex 0.5000 -12.5000 0.0000
	vertex 0.5000 -12.4588 -1.0250
	vertex 0.5000 -12.1363 3.0025
endloop
endfacet
facet normal 1.0000 0.0000 0.0000
outer loop
	vertex 0.0000 -4.3203 -3.5625
	vertex 0.0000 -5.6328 -4.0547
	vertex 0.0000 -5.7109 -4.8828
endloop
endfacet
facet normal 1.0000 0.0000 0.0000
outer loop
	vertex 0.0000 -0.6719 -3.9922
	vertex 0.0000 -2.1016 -3.6172
	vertex 0.0000 -0.7969 -4.8828
endloop
endfacet
facet normal 1.0000 0.0000 0.0000
outer loop
	vertex 0.0000 -5.7109 -4.8828
	vertex 0.0000 -0.7969 -4.8828
	vertex 0.0000 -2.1016 -3.6172
endloop
endfacet
facet normal 1.0000 0.0000 0.0000
outer loop
	vertex 0.0000 -2.1016 -3.6172
	vertex 0.0000 -4.3203 -3.5625
	vertex 0.0000 -5.7109 -4.8828
endloop
endfacet
facet normal 1.0000 0.0000 0.0000
outer loop
	vertex 0.0000 -2.1016 -3.6172
	vertex 0.0000 -2.1016 -0.6563
	vertex 0.0000 -4.3203 -3.5625
endloop
endfacet
facet normal 1.0000 0.0000 0.0000
outer loop
	vertex 0.0000 -2.1016 -0.6563
	vertex 0.0000 -4.3203 3.5000
	vertex 0.0000 -4.3203 -3.5625
endloop
endfacet
facet normal 1.0000 0.0000 0.0000
outer loop
	vertex 0.0000 2.0938 -3.5625
	vertex 0.0000 0.7969 -4.0547
	vertex 0.0000 0.7031 -4.8828
endloop
endfacet
facet normal 1.0000 0.0000 0.0000
outer loop
	vertex 0.0000 5.7344 -3.9922
	vertex 0.0000 4.3281 -3.6172
	vertex 0.0000 5.6406 -4.8828
endloop
endfacet
facet normal 1.0000 0.0000 0.0000
outer loop
	vertex 0.0000 0.7031 -4.8828
	vertex 0.0000 5.6406 -4.8828
	vertex 0.0000 4.3281 -3.6172
endloop
endfacet
facet normal 1.0000 0.0000 0.0000
outer loop
	vertex 0.0000 4.3281 -3.6172
	vertex 0.0000 2.0938 -3.5625
	vertex 0.0000 0.7031 -4.8828
endloop
endfacet
facet normal 1.0000 0.0000 0.0000
outer loop
	vertex 0.0000 2.0938 -0.6563
	vertex 0.0000 2.0938 -3.5625
	vertex 0.0000 4.3281 -3.6172
endloop
endfacet
facet normal 1.0000 0.0000 0.0000
outer loop
	vertex 0.0000 4.3281 3.5391
	vertex 0.0000 2.0938 -0.6563
	vertex 0.0000 4.3281 -3.6172
endloop
endfacet
facet normal 1.0000 0.0000 0.0000
outer loop
	vertex 0.0000 4.3281 3.5391
	vertex 0.0000 5.6406 3.9531
	vertex 0.0000 5.7578 4.8359
endloop
endfacet
facet normal 1.0000 0.0000 0.0000
outer loop
	vertex 0.0000 0.7813 4.8359
	vertex 0.0000 4.3281 3.5391
	vertex 0.0000 5.7578 4.8359
endloop
endfacet
facet normal 1.0000 0.0000 0.0000
outer loop
	vertex 0.0000 0.6719 3.9531
	vertex 0.0000 2.0938 3.5000
	vertex 0.0000 0.7813 4.8359
endloop
endfacet
facet normal 1.0000 0.0000 0.0000
outer loop
	vertex 0.0000 0.7813 4.8359
	vertex 0.0000 2.0938 3.5000
	vertex 0.0000 4.3281 3.5391
endloop
endfacet
facet normal 1.0000 0.0000 0.0000
outer loop
	vertex 0.0000 4.3281 3.5391
	vertex 0.0000 2.0938 3.5000
	vertex 0.0000 2.0938 0.7266
endloop
endfacet
facet normal 1.0000 0.0000 0.0000
outer loop
	vertex 0.0000 4.3281 3.5391
	vertex 0.0000 2.0938 0.7266
	vertex 0.0000 2.0938 -0.6563
endloop
endfacet
facet normal 1.0000 0.0000 0.0000
outer loop
	vertex 0.0000 2.0938 -0.6563
	vertex 0.0000 2.0938 0.7266
	vertex 0.0000 -2.1016 -0.6563
endloop
endfacet
facet normal 1.0000 0.0000 0.0000
outer loop
	vertex 0.0000 2.0938 0.7266
	vertex 0.0000 -2.1016 0.7266
	vertex 0.0000 -2.1016 -0.6563
endloop
endfacet
facet normal 1.0000 0.0000 0.0000
outer loop
	vertex 0.0000 -2.1016 -0.6563
	vertex 0.0000 -2.1016 0.7266
	vertex 0.0000 -4.3203 3.5000
endloop
endfacet
facet normal 1.0000 0.0000 0.0000
outer loop
	vertex 0.0000 -2.1016 0.7266
	vertex 0.0000 -2.1016 3.5391
	vertex 0.0000 -4.3203 3.5000
endloop
endfacet
facet normal 1.0000 0.0000 0.0000
outer loop
	vertex 0.0000 -2.1016 3.5391
	vertex 0.0000 -0.7969 3.9531
	vertex 0.0000 -0.6797 4.8359
endloop
endfacet
facet normal 1.0000 0.0000 0.0000
outer loop
	vertex 0.0000 -5.6172 4.8359
	vertex 0.0000 -2.1016 3.5391
	vertex 0.0000 -0.6797 4.8359
endloop
endfacet
facet normal 1.0000 0.0000 0.0000
outer loop
	vertex 0.0000 -5.6172 4.8359
	vertex 0.0000 -4.3203 3.5000
	vertex 0.0000 -2.1016 3.5391
endloop
endfacet
facet normal 1.0000 0.0000 0.0000
outer loop
	vertex 0.0000 -5.7578 3.9531
	vertex 0.0000 -4.3203 3.5000
	vertex 0.0000 -5.6172 4.8359
endloop
endfacet
facet normal 0.0000 -0.9903 0.1390
outer loop
	vertex 0.0000 -0.6719 -3.9922
	vertex 0.0000 -0.7969 -4.8828
	vertex 0.5000 -0.7969 -4.8828
endloop
endfacet
facet normal 0.0000 -0.9903 0.1390
outer loop
	vertex 0.0000 -0.6719 -3.9922
	vertex 0.5000 -0.7969 -4.8828
	vertex 0.5000 -0.6719 -3.9922
endloop
endfacet
facet normal 0.0000 -0.2537 -0.9673
outer loop
	vertex 0.0000 -2.1016 -3.6172
	vertex 0.0000 -0.6719 -3.9922
	vertex 0.5000 -0.6719 -3.9922
endloop
endfacet
facet normal 0.0000 -0.2537 -0.9673
outer loop
	vertex 0.0000 -2.1016 -3.6172
	vertex 0.5000 -0.6719 -3.9922
	vertex 0.5000 -2.1016 -3.6172
endloop
endfacet
facet normal 0.0000 -1.0000 0.0000
outer loop
	vertex 0.0000 -2.1016 -0.6563
	vertex 0.0000 -2.1016 -3.6172
	vertex 0.5000 -2.1016 -3.6172
endloop
endfacet
facet normal 0.0000 -1.0000 0.0000
outer loop
	vertex 0.0000 -2.1016 -0.6563
	vertex 0.5000 -2.1016 -3.6172
	vertex 0.5000 -2.1016 -0.6563
endloop
endfacet
facet normal 0.0000 0.0000 1.0000
outer loop
	vertex 0.0000 2.0938 -0.6563
	vertex 0.0000 -2.1016 -0.6563
	vertex 0.5000 -2.1016 -0.6563
endloop
endfacet
facet normal 0.0000 0.0000 1.0000
outer loop
	vertex 0.0000 2.0938 -0.6563
	vertex 0.5000 -2.1016 -0.6563
	vertex 0.5000 2.0938 -0.6563
endloop
endfacet
facet normal 0.0000 1.0000 0.0000
outer loop
	vertex 0.0000 2.0938 -3.5625
	vertex 0.0000 2.0938 -0.6563
	vertex 0.5000 2.0938 -0.6563
endloop
endfacet
facet normal 0.0000 1.0000 0.0000
outer loop
	vertex 0.0000 2.0938 -3.5625
	vertex 0.5000 2.0938 -0.6563
	vertex 0.5000 2.0938 -3.5625
endloop
endfacet
facet normal 0.0000 0.3548 -0.9349
outer loop
	vertex 0.0000 0.7969 -4.0547
	vertex 0.0000 2.0938 -3.5625
	vertex 0.5000 2.0938 -3.5625
endloop
endfacet
facet normal 0.0000 0.3548 -0.9349
outer loop
	vertex 0.0000 0.7969 -4.0547
	vertex 0.5000 2.0938 -3.5625
	vertex 0.5000 0.7969 -4.0547
endloop
endfacet
facet normal 0.0000 0.9937 -0.1125
outer loop
	vertex 0.0000 0.7031 -4.8828
	vertex 0.0000 0.7969 -4.0547
	vertex 0.5000 0.7969 -4.0547
endloop
endfacet
facet normal 0.0000 0.9937 -0.1125
outer loop
	vertex 0.0000 0.7031 -4.8828
	vertex 0.5000 0.7969 -4.0547
	vertex 0.5000 0.7031 -4.8828
endloop
endfacet
facet normal 0.0000 0.0000 1.0000
outer loop
	vertex 0.0000 5.6406 -4.8828
	vertex 0.0000 0.7031 -4.8828
	vertex 0.5000 0.7031 -4.8828
endloop
endfacet
facet normal 0.0000 0.0000 1.0000
outer loop
	vertex 0.0000 5.6406 -4.8828
	vertex 0.5000 0.7031 -4.8828
	vertex 0.5000 5.6406 -4.8828
endloop
endfacet
facet normal 0.0000 -0.9945 0.1047
outer loop
	vertex 0.0000 5.7344 -3.9922
	vertex 0.0000 5.6406 -4.8828
	vertex 0.5000 5.6406 -4.8828
endloop
endfacet
facet normal 0.0000 -0.9945 0.1047
outer loop
	vertex 0.0000 5.7344 -3.9922
	vertex 0.5000 5.6406 -4.8828
	vertex 0.5000 5.7344 -3.9922
endloop
endfacet
facet normal 0.0000 -0.2577 -0.9662
outer loop
	vertex 0.0000 4.3281 -3.6172
	vertex 0.0000 5.7344 -3.9922
	vertex 0.5000 5.7344 -3.9922
endloop
endfacet
facet normal 0.0000 -0.2577 -0.9662
outer loop
	vertex 0.0000 4.3281 -3.6172
	vertex 0.5000 5.7344 -3.9922
	vertex 0.5000 4.3281 -3.6172
endloop
endfacet
facet normal 0.0000 -1.0000 0.0000
outer loop
	vertex 0.0000 4.3281 3.5391
	vertex 0.0000 4.3281 -3.6172
	vertex 0.5000 4.3281 -3.6172
endloop
endfacet
facet normal 0.0000 -1.0000 0.0000
outer loop
	vertex 0.0000 4.3281 3.5391
	vertex 0.5000 4.3281 -3.6172
	vertex 0.5000 4.3281 3.5391
endloop
endfacet
facet normal 0.0000 -0.3009 0.9537
outer loop
	vertex 0.0000 5.6406 3.9531
	vertex 0.0000 4.3281 3.5391
	vertex 0.5000 4.3281 3.5391
endloop
endfacet
facet normal 0.0000 -0.3009 0.9537
outer loop
	vertex 0.0000 5.6406 3.9531
	vertex 0.5000 4.3281 3.5391
	vertex 0.5000 5.6406 3.9531
endloop
endfacet
facet normal 0.0000 -0.9913 0.1316
outer loop
	vertex 0.0000 5.7578 4.8359
	vertex 0.0000 5.6406 3.9531
	vertex 0.5000 5.6406 3.9531
endloop
endfacet
facet normal 0.0000 -0.9913 0.1316
outer loop
	vertex 0.0000 5.7578 4.8359
	vertex 0.5000 5.6406 3.9531
	vertex 0.5000 5.7578 4.8359
endloop
endfacet
facet normal 0.0000 0.0000 -1.0000
outer loop
	vertex 0.0000 0.7813 4.8359
	vertex 0.0000 5.7578 4.8359
	vertex 0.5000 5.7578 4.8359
endloop
endfacet
facet normal 0.0000 0.0000 -1.0000
outer loop
	vertex 0.0000 0.7813 4.8359
	vertex 0.5000 5.7578 4.8359
	vertex 0.5000 0.7813 4.8359
endloop
endfacet
facet normal 0.0000 0.9924 -0.1230
outer loop
	vertex 0.0000 0.6719 3.9531
	vertex 0.0000 0.7813 4.8359
	vertex 0.5000 0.7813 4.8359
endloop
endfacet
facet normal 0.0000 0.9924 -0.1230
outer loop
	vertex 0.0000 0.6719 3.9531
	vertex 0.5000 0.7813 4.8359
	vertex 0.5000 0.6719 3.9531
endloop
endfacet
facet normal 0.0000 0.3036 0.9528
outer loop
	vertex 0.0000 2.0938 3.5000
	vertex 0.0000 0.6719 3.9531
	vertex 0.5000 0.6719 3.9531
endloop
endfacet
facet normal 0.0000 0.3036 0.9528
outer loop
	vertex 0.0000 2.0938 3.5000
	vertex 0.5000 0.6719 3.9531
	vertex 0.5000 2.0938 3.5000
endloop
endfacet
facet normal 0.0000 1.0000 0.0000
outer loop
	vertex 0.0000 2.0938 0.7266
	vertex 0.0000 2.0938 3.5000
	vertex 0.5000 2.0938 3.5000
endloop
endfacet
facet normal 0.0000 1.0000 0.0000
outer loop
	vertex 0.0000 2.0938 0.7266
	vertex 0.5000 2.0938 3.5000
	vertex 0.5000 2.0938 0.7266
endloop
endfacet
facet normal 0.0000 0.0000 -1.0000
outer loop
	vertex 0.0000 -2.1016 0.7266
	vertex 0.0000 2.0938 0.7266
	vertex 0.5000 2.0938 0.7266
endloop
endfacet
facet normal 0.0000 0.0000 -1.0000
outer loop
	vertex 0.0000 -2.1016 0.7266
	vertex 0.5000 2.0938 0.7266
	vertex 0.5000 -2.1016 0.7266
endloop
endfacet
facet normal 0.0000 -1.0000 0.0000
outer loop
	vertex 0.0000 -2.1016 3.5391
	vertex 0.0000 -2.1016 0.7266
	vertex 0.5000 -2.1016 0.7266
endloop
endfacet
facet normal 0.0000 -1.0000 0.0000
outer loop
	vertex 0.0000 -2.1016 3.5391
	vertex 0.5000 -2.1016 0.7266
	vertex 0.5000 -2.1016 3.5391
endloop
endfacet
facet normal 0.0000 -0.3025 0.9532
outer loop
	vertex 0.0000 -0.7969 3.9531
	vertex 0.0000 -2.1016 3.5391
	vertex 0.5000 -2.1016 3.5391
endloop
endfacet
facet normal 0.0000 -0.3025 0.9532
outer loop
	vertex 0.0000 -0.7969 3.9531
	vertex 0.5000 -2.1016 3.5391
	vertex 0.5000 -0.7969 3.9531
endloop
endfacet
facet normal 0.0000 -0.9913 0.1316
outer loop
	vertex 0.0000 -0.6797 4.8359
	vertex 0.0000 -0.7969 3.9531
	vertex 0.5000 -0.7969 3.9531
endloop
endfacet
facet normal 0.0000 -0.9913 0.1316
outer loop
	vertex 0.0000 -0.6797 4.8359
	vertex 0.5000 -0.7969 3.9531
	vertex 0.5000 -0.6797 4.8359
endloop
endfacet
facet normal 0.0000 0.0000 -1.0000
outer loop
	vertex 0.0000 -5.6172 4.8359
	vertex 0.0000 -0.6797 4.8359
	vertex 0.5000 -0.6797 4.8359
endloop
endfacet
facet normal 0.0000 0.0000 -1.0000
outer loop
	vertex 0.0000 -5.6172 4.8359
	vertex 0.5000 -0.6797 4.8359
	vertex 0.5000 -5.6172 4.8359
endloop
endfacet
facet normal 0.0000 0.9875 -0.1573
outer loop
	vertex 0.0000 -5.7578 3.9531
	vertex 0.0000 -5.6172 4.8359
	vertex 0.5000 -5.6172 4.8359
endloop
endfacet
facet normal 0.0000 0.9875 -0.1573
outer loop
	vertex 0.0000 -5.7578 3.9531
	vertex 0.5000 -5.6172 4.8359
	vertex 0.5000 -5.7578 3.9531
endloop
endfacet
facet normal 0.0000 0.3006 0.9537
outer loop
	vertex 0.0000 -4.3203 3.5000
	vertex 0.0000 -5.7578 3.9531
	vertex 0.5000 -5.7578 3.9531
endloop
endfacet
facet normal 0.0000 0.3006 0.9537
outer loop
	vertex 0.0000 -4.3203 3.5000
	vertex 0.5000 -5.7578 3.9531
	vertex 0.5000 -4.3203 3.5000
endloop
endfacet
facet normal 0.0000 1.0000 0.0000
outer loop
	vertex 0.0000 -4.3203 -3.5625
	vertex 0.0000 -4.3203 3.5000
	vertex 0.5000 -4.3203 3.5000
endloop
endfacet
facet normal 0.0000 1.0000 0.0000
outer loop
	vertex 0.0000 -4.3203 -3.5625
	vertex 0.5000 -4.3203 3.5000
	vertex 0.5000 -4.3203 -3.5625
endloop
endfacet
facet normal 0.0000 0.3511 -0.9363
outer loop
	vertex 0.0000 -5.6328 -4.0547
	vertex 0.0000 -4.3203 -3.5625
	vertex 0.5000 -4.3203 -3.5625
endloop
endfacet
facet normal 0.0000 0.3511 -0.9363
outer loop
	vertex 0.0000 -5.6328 -4.0547
	vertex 0.5000 -4.3203 -3.5625
	vertex 0.5000 -5.6328 -4.0547
endloop
endfacet
facet normal 0.0000 0.9956 -0.0939
outer loop
	vertex 0.0000 -5.7109 -4.8828
	vertex 0.0000 -5.6328 -4.0547
	vertex 0.5000 -5.6328 -4.0547
endloop
endfacet
facet normal 0.0000 0.9956 -0.0939
outer loop
	vertex 0.0000 -5.7109 -4.8828
	vertex 0.5000 -5.6328 -4.0547
	vertex 0.5000 -5.7109 -4.8828
endloop
endfacet
facet normal 0.0000 0.0000 1.0000
outer loop
	vertex 0.0000 -0.7969 -4.8828
	vertex 0.0000 -5.7109 -4.8828
	vertex 0.5000 -5.7109 -4.8828
endloop
endfacet
facet normal 0.0000 0.0000 1.0000
outer loop
	vertex 0.0000 -0.7969 -4.8828
	vertex 0.5000 -5.7109 -4.8828
	vertex 0.5000 -0.7969 -4.8828
endloop
endfacet
facet normal -1.0000 0.0000 0.0000
outer loop
	vertex -0.5000 -11.8625 -3.9488
	vertex -0.5000 -12.1363 -3.0025
	vertex -0.5000 -12.3363 -2.0263
endloop
endfacet
facet normal -1.0000 0.0000 0.0000
outer loop
	vertex -0.5000 -12.3363 -2.0263
	vertex -0.5000 -12.4588 -1.0250
	vertex -0.5000 -11.8625 -3.9488
endloop
endfacet
facet normal -1.0000 0.0000 0.0000
outer loop
	vertex -0.5000 -11.8625 -3.9488
	vertex -0.5000 -12.4588 -1.0250
	vertex -0.5000 -12.5000 0.0000
endloop
endfacet
facet normal -1.0000 0.0000 0.0000
outer loop
	vertex -0.5000 -11.8625 3.9488
	vertex -0.5000 -12.3363 2.0263
	vertex -0.5000 -12.1363 3.0025
endloop
endfacet
facet normal -1.0000 0.0000 0.0000
outer loop
	vertex -0.5000 -11.8625 3.9488
	vertex -0.5000 -11.5175 4.8638
	vertex -0.5000 -12.3363 2.0263
endloop
endfacet
facet normal -1.0000 0.0000 0.0000
outer loop
	vertex -0.5000 -11.5175 4.8638
	vertex -0.5000 -12.4588 1.0250
	vertex -0.5000 -12.3363 2.0263
endloop
endfacet
facet normal -1.0000 0.0000 0.0000
outer loop
	vertex -0.5000 -12.5000 0.0000
	vertex -0.5000 -12.4588 1.0250
	vertex -0.5000 -11.5175 4.8638
endloop
endfacet
facet normal -1.0000 0.0000 0.0000
outer loop
	vertex -0.5000 4.6367 4.8359
	vertex -0.5000 11.1038 5.7425
	vertex -0.5000 11.5175 4.8638
endloop
endfacet
facet normal -1.0000 0.0000 0.0000
outer loop
	vertex -0.5000 4.6367 4.8359
	vertex -0.5000 10.6263 6.5825
	vertex -0.5000 11.1038 5.7425
endloop
endfacet
facet normal -1.0000 0.0000 0.0000
outer loop
	vertex -0.5000 4.6367 4.8359
	vertex -0.5000 10.0863 7.3800
	vertex -0.5000 10.6263 6.5825
endloop
endfacet
facet normal -1.0000 0.0000 0.0000
outer loop
	vertex -0.5000 4.6367 4.8359
	vertex -0.5000 9.4900 8.1325
	vertex -0.5000 10.0863 7.3800
endloop
endfacet
facet normal -1.0000 0.0000 0.0000
outer loop
	vertex -0.5000 4.6367 4.8359
	vertex -0.5000 8.8375 8.8375
	vertex -0.5000 9.4900 8.1325
endloop
endfacet
facet normal -1.0000 0.0000 0.0000
outer loop
	vertex -0.5000 4.6367 4.8359
	vertex -0.5000 8.1325 9.4900
	vertex -0.5000 8.8375 8.8375
endloop
endfacet
facet normal -1.0000 0.0000 0.0000
outer loop
	vertex -0.5000 4.6367 4.8359
	vertex -0.5000 7.3800 10.0875
	vertex -0.5000 8.1325 9.4900
endloop
endfacet
facet normal -1.0000 0.0000 0.0000
outer loop
	vertex -0.5000 4.6367 4.8359
	vertex -0.5000 6.5825 10.6263
	vertex -0.5000 7.3800 10.0875
endloop
endfacet
facet normal -1.0000 0.0000 0.0000
outer loop
	vertex -0.5000 4.6367 4.8359
	vertex -0.5000 5.7425 11.1038
	vertex -0.5000 6.5825 10.6263
endloop
endfacet
facet normal -1.0000 0.0000 0.0000
outer loop
	vertex -0.5000 4.6367 4.8359
	vertex -0.5000 4.8638 11.5175
	vertex -0.5000 5.7425 11.1038
endloop
endfacet
facet normal -1.0000 0.0000 0.0000
outer loop
	vertex -0.5000 3.9488 11.8625
	vertex -0.5000 4.8638 11.5175
	vertex -0.5000 4.6367 4.8359
endloop
endfacet
facet normal -1.0000 0.0000 0.0000
outer loop
	vertex -0.5000 3.0025 12.1363
	vertex -0.5000 3.9488 11.8625
	vertex -0.5000 4.6367 4.8359
endloop
endfacet
facet normal -1.0000 0.0000 0.0000
outer loop
	vertex -0.5000 2.0263 12.3363
	vertex -0.5000 3.0025 12.1363
	vertex -0.5000 4.6367 4.8359
endloop
endfacet
facet normal -1.0000 0.0000 0.0000
outer loop
	vertex -0.5000 1.0250 12.4588
	vertex -0.5000 2.0263 12.3363
	vertex -0.5000 4.6367 4.8359
endloop
endfacet
facet normal -1.0000 0.0000 0.0000
outer loop
	vertex -0.5000 0.0000 12.5000
	vertex -0.5000 1.0250 12.4588
	vertex -0.5000 4.6367 4.8359
endloop
endfacet
facet normal -1.0000 0.0000 0.0000
outer loop
	vertex -0.5000 0.0000 12.5000
	vertex -0.5000 4.6367 4.8359
	vertex -0.5000 -4.6367 4.8359
endloop
endfacet
facet normal -1.0000 0.0000 0.0000
outer loop
	vertex -0.5000 -4.6367 4.8359
	vertex -0.5000 -1.0250 12.4588
	vertex -0.5000 0.0000 12.5000
endloop
endfacet
facet normal -1.0000 0.0000 0.0000
outer loop
	vertex -0.5000 -4.6367 4.8359
	vertex -0.5000 -2.0263 12.3363
	vertex -0.5000 -1.0250 12.4588
endloop
endfacet
facet normal -1.0000 0.0000 0.0000
outer loop
	vertex -0.5000 -4.6367 4.8359
	vertex -0.5000 -3.0025 12.1363
	vertex -0.5000 -2.0263 12.3363
endloop
endfacet
facet normal -1.0000 0.0000 0.0000
outer loop
	vertex -0.5000 -4.6367 4.8359
	vertex -0.5000 -3.9488 11.8625
	vertex -0.5000 -3.0025 12.1363
endloop
endfacet
facet normal -1.0000 0.0000 0.0000
outer loop
	vertex -0.5000 -4.8638 11.5175
	vertex -0.5000 -3.9488 11.8625
	vertex -0.5000 -4.6367 4.8359
endloop
endfacet
facet normal -1.0000 0.0000 0.0000
outer loop
	vertex -0.5000 -5.7425 11.1038
	vertex -0.5000 -4.8638 11.5175
	vertex -0.5000 -4.6367 4.8359
endloop
endfacet
facet normal -1.0000 0.0000 0.0000
outer loop
	vertex -0.5000 -6.5825 10.6263
	vertex -0.5000 -5.7425 11.1038
	vertex -0.5000 -4.6367 4.8359
endloop
endfacet
facet normal -1.0000 0.0000 0.0000
outer loop
	vertex -0.5000 -7.3800 10.0875
	vertex -0.5000 -6.5825 10.6263
	vertex -0.5000 -4.6367 4.8359
endloop
endfacet
facet normal -1.0000 0.0000 0.0000
outer loop
	vertex -0.5000 -8.1325 9.4900
	vertex -0.5000 -7.3800 10.0875
	vertex -0.5000 -4.6367 4.8359
endloop
endfacet
facet normal -1.0000 0.0000 0.0000
outer loop
	vertex -0.5000 -8.8375 8.8375
	vertex -0.5000 -8.1325 9.4900
	vertex -0.5000 -4.6367 4.8359
endloop
endfacet
facet normal -1.0000 0.0000 0.0000
outer loop
	vertex -0.5000 -9.4900 8.1325
	vertex -0.5000 -8.8375 8.8375
	vertex -0.5000 -4.6367 4.8359
endloop
endfacet
facet normal -1.0000 0.0000 0.0000
outer loop
	vertex -0.5000 -10.0875 7.3800
	vertex -0.5000 -9.4900 8.1325
	vertex -0.5000 -4.6367 4.8359
endloop
endfacet
facet normal -1.0000 0.0000 0.0000
outer loop
	vertex -0.5000 -10.6263 6.5825
	vertex -0.5000 -10.0875 7.3800
	vertex -0.5000 -4.6367 4.8359
endloop
endfacet
facet normal -1.0000 0.0000 0.0000
outer loop
	vertex -0.5000 -11.1038 5.7425
	vertex -0.5000 -10.6263 6.5825
	vertex -0.5000 -4.6367 4.8359
endloop
endfacet
facet normal -1.0000 0.0000 0.0000
outer loop
	vertex -0.5000 -11.5175 4.8638
	vertex -0.5000 -11.1038 5.7425
	vertex -0.5000 -4.6367 4.8359
endloop
endfacet
facet normal -1.0000 0.0000 0.0000
outer loop
	vertex -0.5000 -4.6367 4.8359
	vertex -0.5000 -4.3789 1.7656
	vertex -0.5000 -11.5175 4.8638
endloop
endfacet
facet normal -1.0000 0.0000 0.0000
outer loop
	vertex -0.5000 -4.3789 1.7656
	vertex -0.5000 -12.5000 0.0000
	vertex -0.5000 -11.5175 4.8638
endloop
endfacet
facet normal -1.0000 0.0000 0.0000
outer loop
	vertex -0.5000 -12.5000 0.0000
	vertex -0.5000 -4.3789 1.7656
	vertex -0.5000 -11.8625 -3.9488
endloop
endfacet
facet normal -1.0000 0.0000 0.0000
outer loop
	vertex -0.5000 -3.2930 1.9453
	vertex -0.5000 -2.8945 3.8047
	vertex -0.5000 -0.9883 3.8047
endloop
endfacet
facet normal -1.0000 0.0000 0.0000
outer loop
	vertex -0.5000 -0.9883 -3.6250
	vertex -0.5000 -3.2930 1.9453
	vertex -0.5000 -0.9883 3.8047
endloop
endfacet
facet normal -1.0000 0.0000 0.0000
outer loop
	vertex -0.5000 -3.2930 1.9453
	vertex -0.5000 -0.9883 -3.6250
	vertex -0.5000 -2.4961 -3.9766
endloop
endfacet
facet normal -1.0000 0.0000 0.0000
outer loop
	vertex -0.5000 -3.2930 1.9453
	vertex -0.5000 -2.4961 -3.9766
	vertex -0.5000 -4.3789 1.7656
endloop
endfacet
facet normal -1.0000 0.0000 0.0000
outer loop
	vertex -0.5000 -4.3789 1.7656
	vertex -0.5000 -2.4961 -3.9766
	vertex -0.5000 -11.8625 -3.9488
endloop
endfacet
facet normal -1.0000 0.0000 0.0000
outer loop
	vertex -0.5000 -11.8625 -3.9488
	vertex -0.5000 -2.4961 -3.9766
	vertex -0.5000 -11.5175 -4.8638
endloop
endfacet
facet normal -1.0000 0.0000 0.0000
outer loop
	vertex -0.5000 -11.5175 -4.8638
	vertex -0.5000 -2.4961 -3.9766
	vertex -0.5000 -11.1038 -5.7425
endloop
endfacet
facet normal -1.0000 0.0000 0.0000
outer loop
	vertex -0.5000 -2.4961 -3.9766
	vertex -0.5000 -10.6263 -6.5825
	vertex -0.5000 -11.1038 -5.7425
endloop
endfacet
facet normal -1.0000 0.0000 0.0000
outer loop
	vertex -0.5000 -2.4961 -3.9766
	vertex -0.5000 -10.0875 -7.3800
	vertex -0.5000 -10.6263 -6.5825
endloop
endfacet
facet normal -1.0000 0.0000 0.0000
outer loop
	vertex -0.5000 -2.3789 -4.8828
	vertex -0.5000 -10.0875 -7.3800
	vertex -0.5000 -2.4961 -3.9766
endloop
endfacet
facet normal -1.0000 0.0000 0.0000
outer loop
	vertex -0.5000 -10.0875 -7.3800
	vertex -0.5000 -2.3789 -4.8828
	vertex -0.5000 -9.4900 -8.1325
endloop
endfacet
facet normal -1.0000 0.0000 0.0000
outer loop
	vertex -0.5000 -9.4900 -8.1325
	vertex -0.5000 -2.3789 -4.8828
	vertex -0.5000 -8.8375 -8.8375
endloop
endfacet
facet normal -1.0000 0.0000 0.0000
outer loop
	vertex -0.5000 -8.8375 -8.8375
	vertex -0.5000 -2.3789 -4.8828
	vertex -0.5000 -8.1325 -9.4900
endloop
endfacet
facet normal -1.0000 0.0000 0.0000
outer loop
	vertex -0.5000 -8.1325 -9.4900
	vertex -0.5000 -2.3789 -4.8828
	vertex -0.5000 -7.3800 -10.0863
endloop
endfacet
facet normal -1.0000 0.0000 0.0000
outer loop
	vertex -0.5000 -7.3800 -10.0863
	vertex -0.5000 -2.3789 -4.8828
	vertex -0.5000 -6.5825 -10.6263
endloop
endfacet
facet normal -1.0000 0.0000 0.0000
outer loop
	vertex -0.5000 -6.5825 -10.6263
	vertex -0.5000 -2.3789 -4.8828
	vertex -0.5000 -5.7425 -11.1038
endloop
endfacet
facet normal -1.0000 0.0000 0.0000
outer loop
	vertex -0.5000 -5.7425 -11.1038
	vertex -0.5000 -2.3789 -4.8828
	vertex -0.5000 -4.8638 -11.5175
endloop
endfacet
facet normal -1.0000 0.0000 0.0000
outer loop
	vertex -0.5000 -4.8638 -11.5175
	vertex -0.5000 -2.3789 -4.8828
	vertex -0.5000 -3.9488 -11.8625
endloop
endfacet
facet normal -1.0000 0.0000 0.0000
outer loop
	vertex -0.5000 -2.3789 -4.8828
	vertex -0.5000 -3.0025 -12.1363
	vertex -0.5000 -3.9488 -11.8625
endloop
endfacet
facet normal -1.0000 0.0000 0.0000
outer loop
	vertex -0.5000 -2.3789 -4.8828
	vertex -0.5000 -2.0263 -12.3363
	vertex -0.5000 -3.0025 -12.1363
endloop
endfacet
facet normal -1.0000 0.0000 0.0000
outer loop
	vertex -0.5000 -2.3789 -4.8828
	vertex -0.5000 -1.0250 -12.4588
	vertex -0.5000 -2.0263 -12.3363
endloop
endfacet
facet normal -1.0000 0.0000 0.0000
outer loop
	vertex -0.5000 -2.3789 -4.8828
	vertex -0.5000 0.0000 -12.5000
	vertex -0.5000 -1.0250 -12.4588
endloop
endfacet
facet normal -1.0000 0.0000 0.0000
outer loop
	vertex -0.5000 0.0000 -12.5000
	vertex -0.5000 -2.3789 -4.8828
	vertex -0.5000 1.0250 -12.4588
endloop
endfacet
facet normal -1.0000 0.0000 0.0000
outer loop
	vertex -0.5000 1.0250 -12.4588
	vertex -0.5000 -2.3789 -4.8828
	vertex -0.5000 2.0263 -12.3363
endloop
endfacet
facet normal -1.0000 0.0000 0.0000
outer loop
	vertex -0.5000 -2.3789 -4.8828
	vertex -0.5000 2.6055 -4.8828
	vertex -0.5000 2.0263 -12.3363
endloop
endfacet
facet normal -1.0000 0.0000 0.0000
outer loop
	vertex -0.5000 2.6055 -4.8828
	vertex -0.5000 3.0025 -12.1363
	vertex -0.5000 2.0263 -12.3363
endloop
endfacet
facet normal -1.0000 0.0000 0.0000
outer loop
	vertex -0.5000 2.6055 -4.8828
	vertex -0.5000 3.9488 -11.8625
	vertex -0.5000 3.0025 -12.1363
endloop
endfacet
facet normal -1.0000 0.0000 0.0000
outer loop
	vertex -0.5000 2.6055 -4.8828
	vertex -0.5000 4.8638 -11.5175
	vertex -0.5000 3.9488 -11.8625
endloop
endfacet
facet normal -1.0000 0.0000 0.0000
outer loop
	vertex -0.5000 2.6055 -4.8828
	vertex -0.5000 5.7425 -11.1038
	vertex -0.5000 4.8638 -11.5175
endloop
endfacet
facet normal -1.0000 0.0000 0.0000
outer loop
	vertex -0.5000 2.6055 -4.8828
	vertex -0.5000 6.5825 -10.6263
	vertex -0.5000 5.7425 -11.1038
endloop
endfacet
facet normal -1.0000 0.0000 0.0000
outer loop
	vertex -0.5000 2.6055 -4.8828
	vertex -0.5000 7.3800 -10.0863
	vertex -0.5000 6.5825 -10.6263
endloop
endfacet
facet normal -1.0000 0.0000 0.0000
outer loop
	vertex -0.5000 2.6055 -4.8828
	vertex -0.5000 8.1325 -9.4900
	vertex -0.5000 7.3800 -10.0863
endloop
endfacet
facet normal -1.0000 0.0000 0.0000
outer loop
	vertex -0.5000 2.6055 -4.8828
	vertex -0.5000 8.8375 -8.8375
	vertex -0.5000 8.1325 -9.4900
endloop
endfacet
facet normal -1.0000 0.0000 0.0000
outer loop
	vertex -0.5000 2.6055 -4.8828
	vertex -0.5000 9.4900 -8.1325
	vertex -0.5000 8.8375 -8.8375
endloop
endfacet
facet normal -1.0000 0.0000 0.0000
outer loop
	vertex -0.5000 2.6055 -4.8828
	vertex -0.5000 10.0863 -7.3800
	vertex -0.5000 9.4900 -8.1325
endloop
endfacet
facet normal -1.0000 0.0000 0.0000
outer loop
	vertex -0.5000 2.6055 -4.8828
	vertex -0.5000 10.6263 -6.5825
	vertex -0.5000 10.0863 -7.3800
endloop
endfacet
facet normal -1.0000 0.0000 0.0000
outer loop
	vertex -0.5000 2.5273 -4.0469
	vertex -0.5000 10.6263 -6.5825
	vertex -0.5000 2.6055 -4.8828
endloop
endfacet
facet normal -1.0000 0.0000 0.0000
outer loop
	vertex -0.5000 11.1038 -5.7425
	vertex -0.5000 10.6263 -6.5825
	vertex -0.5000 2.5273 -4.0469
endloop
endfacet
facet normal -1.0000 0.0000 0.0000
outer loop
	vertex -0.5000 11.5175 -4.8638
	vertex -0.5000 11.1038 -5.7425
	vertex -0.5000 2.5273 -4.0469
endloop
endfacet
facet normal -1.0000 0.0000 0.0000
outer loop
	vertex -0.5000 11.5175 -4.8638
	vertex -0.5000 2.5273 -4.0469
	vertex -0.5000 11.8625 -3.9488
endloop
endfacet
facet normal -1.0000 0.0000 0.0000
outer loop
	vertex -0.5000 1.1758 3.8047
	vertex -0.5000 3.0273 3.8047
	vertex -0.5000 3.5742 1.7422
endloop
endfacet
facet normal -1.0000 0.0000 0.0000
outer loop
	vertex -0.5000 3.5742 1.7422
	vertex -0.5000 1.1758 -3.5938
	vertex -0.5000 1.1758 3.8047
endloop
endfacet
facet normal -1.0000 0.0000 0.0000
outer loop
	vertex -0.5000 1.1758 -3.5938
	vertex -0.5000 3.5742 1.7422
	vertex -0.5000 2.5273 -4.0469
endloop
endfacet
facet normal -1.0000 0.0000 0.0000
outer loop
	vertex -0.5000 4.5977 1.8906
	vertex -0.5000 2.5273 -4.0469
	vertex -0.5000 3.5742 1.7422
endloop
endfacet
facet normal -1.0000 0.0000 0.0000
outer loop
	vertex -0.5000 4.5977 1.8906
	vertex -0.5000 11.8625 -3.9488
	vertex -0.5000 2.5273 -4.0469
endloop
endfacet
facet normal -1.0000 0.0000 0.0000
outer loop
	vertex -0.5000 4.6367 4.8359
	vertex -0.5000 11.8625 -3.9488
	vertex -0.5000 4.5977 1.8906
endloop
endfacet
facet normal -1.0000 0.0000 0.0000
outer loop
	vertex -0.5000 12.1363 -3.0025
	vertex -0.5000 11.8625 -3.9488
	vertex -0.5000 4.6367 4.8359
endloop
endfacet
facet normal -1.0000 0.0000 0.0000
outer loop
	vertex -0.5000 12.1363 -3.0025
	vertex -0.5000 4.6367 4.8359
	vertex -0.5000 11.5175 4.8638
endloop
endfacet
facet normal -1.0000 0.0000 0.0000
outer loop
	vertex -0.5000 12.3363 -2.0263
	vertex -0.5000 12.1363 -3.0025
	vertex -0.5000 11.5175 4.8638
endloop
endfacet
facet normal -1.0000 0.0000 0.0000
outer loop
	vertex -0.5000 12.3363 -2.0263
	vertex -0.5000 11.5175 4.8638
	vertex -0.5000 11.8625 3.9488
endloop
endfacet
facet normal -1.0000 0.0000 0.0000
outer loop
	vertex -0.5000 12.4588 -1.0250
	vertex -0.5000 12.3363 -2.0263
	vertex -0.5000 11.8625 3.9488
endloop
endfacet
facet normal -1.0000 0.0000 0.0000
outer loop
	vertex -0.5000 12.4588 -1.0250
	vertex -0.5000 11.8625 3.9488
	vertex -0.5000 12.1363 3.0025
endloop
endfacet
facet normal -1.0000 0.0000 0.0000
outer loop
	vertex -0.5000 12.4588 1.0250
	vertex -0.5000 12.5000 0.0000
	vertex -0.5000 12.3363 2.0263
endloop
endfacet
facet normal -1.0000 0.0000 0.0000
outer loop
	vertex -0.5000 12.5000 0.0000
	vertex -0.5000 12.1363 3.0025
	vertex -0.5000 12.3363 2.0263
endloop
endfacet
facet normal -1.0000 0.0000 0.0000
outer loop
	vertex -0.5000 12.5000 0.0000
	vertex -0.5000 12.4588 -1.0250
	vertex -0.5000 12.1363 3.0025
endloop
endfacet
facet normal -1.0000 0.0000 0.0000
outer loop
	vertex 0.0000 3.0273 3.8047
	vertex 0.0000 4.5977 1.8906
	vertex 0.0000 3.5742 1.7422
endloop
endfacet
facet normal -1.0000 0.0000 0.0000
outer loop
	vertex 0.0000 -2.8945 3.8047
	vertex 0.0000 -3.2930 1.9453
	vertex 0.0000 -4.3789 1.7656
endloop
endfacet
facet normal -1.0000 0.0000 0.0000
outer loop
	vertex 0.0000 -2.8945 3.8047
	vertex 0.0000 -4.3789 1.7656
	vertex 0.0000 -4.6367 4.8359
endloop
endfacet
facet normal -1.0000 0.0000 0.0000
outer loop
	vertex 0.0000 -4.6367 4.8359
	vertex 0.0000 -0.9883 3.8047
	vertex 0.0000 -2.8945 3.8047
endloop
endfacet
facet normal -1.0000 0.0000 0.0000
outer loop
	vertex 0.0000 4.6367 4.8359
	vertex 0.0000 -0.9883 3.8047
	vertex 0.0000 -4.6367 4.8359
endloop
endfacet
facet normal -1.0000 0.0000 0.0000
outer loop
	vertex 0.0000 1.1758 -3.5938
	vertex 0.0000 2.5273 -4.0469
	vertex 0.0000 2.6055 -4.8828
endloop
endfacet
facet normal -1.0000 0.0000 0.0000
outer loop
	vertex 0.0000 -2.4961 -3.9766
	vertex 0.0000 -0.9883 -3.6250
	vertex 0.0000 -2.3789 -4.8828
endloop
endfacet
facet normal -1.0000 0.0000 0.0000
outer loop
	vertex 0.0000 2.6055 -4.8828
	vertex 0.0000 -2.3789 -4.8828
	vertex 0.0000 -0.9883 -3.6250
endloop
endfacet
facet normal -1.0000 0.0000 0.0000
outer loop
	vertex 0.0000 -0.9883 -3.6250
	vertex 0.0000 1.1758 -3.5938
	vertex 0.0000 2.6055 -4.8828
endloop
endfacet
facet normal -1.0000 0.0000 0.0000
outer loop
	vertex 0.0000 1.1758 -3.5938
	vertex 0.0000 -0.9883 -3.6250
	vertex 0.0000 -0.9883 3.8047
endloop
endfacet
facet normal -1.0000 0.0000 0.0000
outer loop
	vertex 0.0000 1.1758 -3.5938
	vertex 0.0000 -0.9883 3.8047
	vertex 0.0000 1.1758 3.8047
endloop
endfacet
facet normal -1.0000 0.0000 0.0000
outer loop
	vertex 0.0000 1.1758 3.8047
	vertex 0.0000 -0.9883 3.8047
	vertex 0.0000 4.6367 4.8359
endloop
endfacet
facet normal -1.0000 0.0000 0.0000
outer loop
	vertex 0.0000 4.6367 4.8359
	vertex 0.0000 3.0273 3.8047
	vertex 0.0000 1.1758 3.8047
endloop
endfacet
facet normal -1.0000 0.0000 0.0000
outer loop
	vertex 0.0000 3.0273 3.8047
	vertex 0.0000 4.6367 4.8359
	vertex 0.0000 4.5977 1.8906
endloop
endfacet
facet normal 0.0000 0.9917 0.1282
outer loop
	vertex 0.0000 -2.4961 -3.9766
	vertex 0.0000 -2.3789 -4.8828
	vertex -0.5000 -2.3789 -4.8828
endloop
endfacet
facet normal 0.0000 0.9917 0.1282
outer loop
	vertex 0.0000 -2.4961 -3.9766
	vertex -0.5000 -2.3789 -4.8828
	vertex -0.5000 -2.4961 -3.9766
endloop
endfacet
facet normal 0.0000 0.2271 -0.9739
outer loop
	vertex 0.0000 -0.9883 -3.6250
	vertex 0.0000 -2.4961 -3.9766
	vertex -0.5000 -2.4961 -3.9766
endloop
endfacet
facet normal 0.0000 0.2271 -0.9739
outer loop
	vertex 0.0000 -0.9883 -3.6250
	vertex -0.5000 -2.4961 -3.9766
	vertex -0.5000 -0.9883 -3.6250
endloop
endfacet
facet normal 0.0000 1.0000 0.0000
outer loop
	vertex 0.0000 -0.9883 3.8047
	vertex 0.0000 -0.9883 -3.6250
	vertex -0.5000 -0.9883 -3.6250
endloop
endfacet
facet normal 0.0000 1.0000 0.0000
outer loop
	vertex 0.0000 -0.9883 3.8047
	vertex -0.5000 -0.9883 -3.6250
	vertex -0.5000 -0.9883 3.8047
endloop
endfacet
facet normal 0.0000 0.0000 1.0000
outer loop
	vertex 0.0000 -2.8945 3.8047
	vertex 0.0000 -0.9883 3.8047
	vertex -0.5000 -0.9883 3.8047
endloop
endfacet
facet normal 0.0000 0.0000 1.0000
outer loop
	vertex 0.0000 -2.8945 3.8047
	vertex -0.5000 -0.9883 3.8047
	vertex -0.5000 -2.8945 3.8047
endloop
endfacet
facet normal 0.0000 -0.9778 0.2095
outer loop
	vertex 0.0000 -3.2930 1.9453
	vertex 0.0000 -2.8945 3.8047
	vertex -0.5000 -2.8945 3.8047
endloop
endfacet
facet normal 0.0000 -0.9778 0.2095
outer loop
	vertex 0.0000 -3.2930 1.9453
	vertex -0.5000 -2.8945 3.8047
	vertex -0.5000 -3.2930 1.9453
endloop
endfacet
facet normal 0.0000 -0.1632 0.9866
outer loop
	vertex 0.0000 -4.3789 1.7656
	vertex 0.0000 -3.2930 1.9453
	vertex -0.5000 -3.2930 1.9453
endloop
endfacet
facet normal 0.0000 -0.1632 0.9866
outer loop
	vertex 0.0000 -4.3789 1.7656
	vertex -0.5000 -3.2930 1.9453
	vertex -0.5000 -4.3789 1.7656
endloop
endfacet
facet normal 0.0000 0.9965 0.0837
outer loop
	vertex 0.0000 -4.6367 4.8359
	vertex 0.0000 -4.3789 1.7656
	vertex -0.5000 -4.3789 1.7656
endloop
endfacet
facet normal 0.0000 0.9965 0.0837
outer loop
	vertex 0.0000 -4.6367 4.8359
	vertex -0.5000 -4.3789 1.7656
	vertex -0.5000 -4.6367 4.8359
endloop
endfacet
facet normal 0.0000 0.0000 -1.0000
outer loop
	vertex 0.0000 4.6367 4.8359
	vertex 0.0000 -4.6367 4.8359
	vertex -0.5000 -4.6367 4.8359
endloop
endfacet
facet normal 0.0000 0.0000 -1.0000
outer loop
	vertex 0.0000 4.6367 4.8359
	vertex -0.5000 -4.6367 4.8359
	vertex -0.5000 4.6367 4.8359
endloop
endfacet
facet normal 0.0000 -0.9999 0.0133
outer loop
	vertex 0.0000 4.5977 1.8906
	vertex 0.0000 4.6367 4.8359
	vertex -0.5000 4.6367 4.8359
endloop
endfacet
facet normal 0.0000 -0.9999 0.0133
outer loop
	vertex 0.0000 4.5977 1.8906
	vertex -0.5000 4.6367 4.8359
	vertex -0.5000 4.5977 1.8906
endloop
endfacet
facet normal 0.0000 -0.1435 0.9896
outer loop
	vertex 0.0000 3.5742 1.7422
	vertex 0.0000 4.5977 1.8906
	vertex -0.5000 4.5977 1.8906
endloop
endfacet
facet normal 0.0000 -0.1435 0.9896
outer loop
	vertex 0.0000 3.5742 1.7422
	vertex -0.5000 4.5977 1.8906
	vertex -0.5000 3.5742 1.7422
endloop
endfacet
facet normal 0.0000 0.9666 0.2563
outer loop
	vertex 0.0000 3.0273 3.8047
	vertex 0.0000 3.5742 1.7422
	vertex -0.5000 3.5742 1.7422
endloop
endfacet
facet normal 0.0000 0.9666 0.2563
outer loop
	vertex 0.0000 3.0273 3.8047
	vertex -0.5000 3.5742 1.7422
	vertex -0.5000 3.0273 3.8047
endloop
endfacet
facet normal 0.0000 0.0000 1.0000
outer loop
	vertex 0.0000 1.1758 3.8047
	vertex 0.0000 3.0273 3.8047
	vertex -0.5000 3.0273 3.8047
endloop
endfacet
facet normal 0.0000 0.0000 1.0000
outer loop
	vertex 0.0000 1.1758 3.8047
	vertex -0.5000 3.0273 3.8047
	vertex -0.5000 1.1758 3.8047
endloop
endfacet
facet normal 0.0000 -1.0000 0.0000
outer loop
	vertex 0.0000 1.1758 -3.5938
	vertex 0.0000 1.1758 3.8047
	vertex -0.5000 1.1758 3.8047
endloop
endfacet
facet normal 0.0000 -1.0000 0.0000
outer loop
	vertex 0.0000 1.1758 -3.5938
	vertex -0.5000 1.1758 3.8047
	vertex -0.5000 1.1758 -3.5938
endloop
endfacet
facet normal 0.0000 -0.3179 -0.9481
outer loop
	vertex 0.0000 2.5273 -4.0469
	vertex 0.0000 1.1758 -3.5938
	vertex -0.5000 1.1758 -3.5938
endloop
endfacet
facet normal 0.0000 -0.3179 -0.9481
outer loop
	vertex 0.0000 2.5273 -4.0469
	vertex -0.5000 1.1758 -3.5938
	vertex -0.5000 2.5273 -4.0469
endloop
endfacet
facet normal 0.0000 -0.9957 -0.0931
outer loop
	vertex 0.0000 2.6055 -4.8828
	vertex 0.0000 2.5273 -4.0469
	vertex -0.5000 2.5273 -4.0469
endloop
endfacet
facet normal 0.0000 -0.9957 -0.0931
outer loop
	vertex 0.0000 2.6055 -4.8828
	vertex -0.5000 2.5273 -4.0469
	vertex -0.5000 2.6055 -4.8828
endloop
endfacet
facet normal 0.0000 0.0000 1.0000
outer loop
	vertex 0.0000 -2.3789 -4.8828
	vertex 0.0000 2.6055 -4.8828
	vertex -0.5000 2.6055 -4.8828
endloop
endfacet
facet normal 0.0000 0.0000 1.0000
outer loop
	vertex 0.0000 -2.3789 -4.8828
	vertex -0.5000 2.6055 -4.8828
	vertex -0.5000 -2.3789 -4.8828
endloop
endfacet
facet normal 0.0000 0.0402 0.9992
outer loop
	vertex 0.5000 1.0250 12.4588
	vertex -0.5000 1.0250 12.4588
	vertex -0.5000 0.0000 12.5000
endloop
endfacet
facet normal 0.0000 0.0402 0.9992
outer loop
	vertex 0.5000 1.0250 12.4588
	vertex -0.5000 0.0000 12.5000
	vertex 0.5000 0.0000 12.5000
endloop
endfacet
facet normal 0.0000 -0.0402 0.9992
outer loop
	vertex 0.5000 0.0000 12.5000
	vertex -0.5000 0.0000 12.5000
	vertex -0.5000 -1.0250 12.4588
endloop
endfacet
facet normal 0.0000 -0.0402 0.9992
outer loop
	vertex 0.5000 0.0000 12.5000
	vertex -0.5000 -1.0250 12.4588
	vertex 0.5000 -1.0250 12.4588
endloop
endfacet
facet normal 0.0000 -0.1214 0.9926
outer loop
	vertex 0.5000 -1.0250 12.4588
	vertex -0.5000 -1.0250 12.4588
	vertex -0.5000 -2.0263 12.3363
endloop
endfacet
facet normal 0.0000 -0.1214 0.9926
outer loop
	vertex 0.5000 -1.0250 12.4588
	vertex -0.5000 -2.0263 12.3363
	vertex 0.5000 -2.0263 12.3363
endloop
endfacet
facet normal 0.0000 -0.2007 0.9797
outer loop
	vertex 0.5000 -2.0263 12.3363
	vertex -0.5000 -2.0263 12.3363
	vertex -0.5000 -3.0025 12.1363
endloop
endfacet
facet normal 0.0000 -0.2007 0.9797
outer loop
	vertex 0.5000 -2.0263 12.3363
	vertex -0.5000 -3.0025 12.1363
	vertex 0.5000 -3.0025 12.1363
endloop
endfacet
facet normal 0.0000 -0.2779 0.9606
outer loop
	vertex 0.5000 -3.0025 12.1363
	vertex -0.5000 -3.0025 12.1363
	vertex -0.5000 -3.9488 11.8625
endloop
endfacet
facet normal 0.0000 -0.2779 0.9606
outer loop
	vertex 0.5000 -3.0025 12.1363
	vertex -0.5000 -3.9488 11.8625
	vertex 0.5000 -3.9488 11.8625
endloop
endfacet
facet normal 0.0000 -0.3528 0.9357
outer loop
	vertex 0.5000 -3.9488 11.8625
	vertex -0.5000 -3.9488 11.8625
	vertex -0.5000 -4.8638 11.5175
endloop
endfacet
facet normal 0.0000 -0.3528 0.9357
outer loop
	vertex 0.5000 -3.9488 11.8625
	vertex -0.5000 -4.8638 11.5175
	vertex 0.5000 -4.8638 11.5175
endloop
endfacet
facet normal 0.0000 -0.4260 0.9047
outer loop
	vertex 0.5000 -4.8638 11.5175
	vertex -0.5000 -4.8638 11.5175
	vertex -0.5000 -5.7425 11.1038
endloop
endfacet
facet normal 0.0000 -0.4260 0.9047
outer loop
	vertex 0.5000 -4.8638 11.5175
	vertex -0.5000 -5.7425 11.1038
	vertex 0.5000 -5.7425 11.1038
endloop
endfacet
facet normal 0.0000 -0.4942 0.8694
outer loop
	vertex 0.5000 -5.7425 11.1038
	vertex -0.5000 -5.7425 11.1038
	vertex -0.5000 -6.5825 10.6263
endloop
endfacet
facet normal 0.0000 -0.4942 0.8694
outer loop
	vertex 0.5000 -5.7425 11.1038
	vertex -0.5000 -6.5825 10.6263
	vertex 0.5000 -6.5825 10.6263
endloop
endfacet
facet normal 0.0000 -0.5598 0.8286
outer loop
	vertex 0.5000 -6.5825 10.6263
	vertex -0.5000 -6.5825 10.6263
	vertex -0.5000 -7.3800 10.0875
endloop
endfacet
facet normal 0.0000 -0.5598 0.8286
outer loop
	vertex 0.5000 -6.5825 10.6263
	vertex -0.5000 -7.3800 10.0875
	vertex 0.5000 -7.3800 10.0875
endloop
endfacet
facet normal 0.0000 -0.6218 0.7831
outer loop
	vertex 0.5000 -7.3800 10.0875
	vertex -0.5000 -7.3800 10.0875
	vertex -0.5000 -8.1325 9.4900
endloop
endfacet
facet normal 0.0000 -0.6218 0.7831
outer loop
	vertex 0.5000 -7.3800 10.0875
	vertex -0.5000 -8.1325 9.4900
	vertex 0.5000 -8.1325 9.4900
endloop
endfacet
facet normal 0.0000 -0.6793 0.7339
outer loop
	vertex 0.5000 -8.1325 9.4900
	vertex -0.5000 -8.1325 9.4900
	vertex -0.5000 -8.8375 8.8375
endloop
endfacet
facet normal 0.0000 -0.6793 0.7339
outer loop
	vertex 0.5000 -8.1325 9.4900
	vertex -0.5000 -8.8375 8.8375
	vertex 0.5000 -8.8375 8.8375
endloop
endfacet
facet normal 0.0000 -0.7339 0.6793
outer loop
	vertex 0.5000 -8.8375 8.8375
	vertex -0.5000 -8.8375 8.8375
	vertex -0.5000 -9.4900 8.1325
endloop
endfacet
facet normal 0.0000 -0.7339 0.6793
outer loop
	vertex 0.5000 -8.8375 8.8375
	vertex -0.5000 -9.4900 8.1325
	vertex 0.5000 -9.4900 8.1325
endloop
endfacet
facet normal 0.0000 -0.7831 0.6218
outer loop
	vertex 0.5000 -9.4900 8.1325
	vertex -0.5000 -9.4900 8.1325
	vertex -0.5000 -10.0875 7.3800
endloop
endfacet
facet normal 0.0000 -0.7831 0.6218
outer loop
	vertex 0.5000 -9.4900 8.1325
	vertex -0.5000 -10.0875 7.3800
	vertex 0.5000 -10.0875 7.3800
endloop
endfacet
facet normal 0.0000 -0.8286 0.5598
outer loop
	vertex 0.5000 -10.0875 7.3800
	vertex -0.5000 -10.0875 7.3800
	vertex -0.5000 -10.6263 6.5825
endloop
endfacet
facet normal 0.0000 -0.8286 0.5598
outer loop
	vertex 0.5000 -10.0875 7.3800
	vertex -0.5000 -10.6263 6.5825
	vertex 0.5000 -10.6263 6.5825
endloop
endfacet
facet normal 0.0000 -0.8694 0.4942
outer loop
	vertex 0.5000 -10.6263 6.5825
	vertex -0.5000 -10.6263 6.5825
	vertex -0.5000 -11.1038 5.7425
endloop
endfacet
facet normal 0.0000 -0.8694 0.4942
outer loop
	vertex 0.5000 -10.6263 6.5825
	vertex -0.5000 -11.1038 5.7425
	vertex 0.5000 -11.1038 5.7425
endloop
endfacet
facet normal 0.0000 -0.9047 0.4260
outer loop
	vertex 0.5000 -11.1038 5.7425
	vertex -0.5000 -11.1038 5.7425
	vertex -0.5000 -11.5175 4.8638
endloop
endfacet
facet normal 0.0000 -0.9047 0.4260
outer loop
	vertex 0.5000 -11.1038 5.7425
	vertex -0.5000 -11.5175 4.8638
	vertex 0.5000 -11.5175 4.8638
endloop
endfacet
facet normal 0.0000 -0.9357 0.3528
outer loop
	vertex 0.5000 -11.5175 4.8638
	vertex -0.5000 -11.5175 4.8638
	vertex -0.5000 -11.8625 3.9488
endloop
endfacet
facet normal 0.0000 -0.9357 0.3528
outer loop
	vertex 0.5000 -11.5175 4.8638
	vertex -0.5000 -11.8625 3.9488
	vertex 0.5000 -11.8625 3.9488
endloop
endfacet
facet normal 0.0000 -0.9606 0.2779
outer loop
	vertex 0.5000 -11.8625 3.9488
	vertex -0.5000 -11.8625 3.9488
	vertex -0.5000 -12.1363 3.0025
endloop
endfacet
facet normal 0.0000 -0.9606 0.2779
outer loop
	vertex 0.5000 -11.8625 3.9488
	vertex -0.5000 -12.1363 3.0025
	vertex 0.5000 -12.1363 3.0025
endloop
endfacet
facet normal 0.0000 -0.9797 0.2007
outer loop
	vertex 0.5000 -12.1363 3.0025
	vertex -0.5000 -12.1363 3.0025
	vertex -0.5000 -12.3363 2.0263
endloop
endfacet
facet normal 0.0000 -0.9797 0.2007
outer loop
	vertex 0.5000 -12.1363 3.0025
	vertex -0.5000 -12.3363 2.0263
	vertex 0.5000 -12.3363 2.0263
endloop
endfacet
facet normal 0.0000 -0.9926 0.1214
outer loop
	vertex 0.5000 -12.3363 2.0263
	vertex -0.5000 -12.3363 2.0263
	vertex -0.5000 -12.4588 1.0250
endloop
endfacet
facet normal 0.0000 -0.9926 0.1214
outer loop
	vertex 0.5000 -12.3363 2.0263
	vertex -0.5000 -12.4588 1.0250
	vertex 0.5000 -12.4588 1.0250
endloop
endfacet
facet normal 0.0000 -0.9992 0.0402
outer loop
	vertex 0.5000 -12.4588 1.0250
	vertex -0.5000 -12.4588 1.0250
	vertex -0.5000 -12.5000 0.0000
endloop
endfacet
facet normal 0.0000 -0.9992 0.0402
outer loop
	vertex 0.5000 -12.4588 1.0250
	vertex -0.5000 -12.5000 0.0000
	vertex 0.5000 -12.5000 0.0000
endloop
endfacet
facet normal 0.0000 -0.9992 -0.0402
outer loop
	vertex 0.5000 -12.5000 0.0000
	vertex -0.5000 -12.5000 0.0000
	vertex -0.5000 -12.4588 -1.0250
endloop
endfacet
facet normal 0.0000 -0.9992 -0.0402
outer loop
	vertex 0.5000 -12.5000 0.0000
	vertex -0.5000 -12.4588 -1.0250
	vertex 0.5000 -12.4588 -1.0250
endloop
endfacet
facet normal 0.0000 -0.9926 -0.1214
outer loop
	vertex 0.5000 -12.4588 -1.0250
	vertex -0.5000 -12.4588 -1.0250
	vertex -0.5000 -12.3363 -2.0263
endloop
endfacet
facet normal 0.0000 -0.9926 -0.1214
outer loop
	vertex 0.5000 -12.4588 -1.0250
	vertex -0.5000 -12.3363 -2.0263
	vertex 0.5000 -12.3363 -2.0263
endloop
endfacet
facet normal 0.0000 -0.9797 -0.2007
outer loop
	vertex 0.5000 -12.3363 -2.0263
	vertex -0.5000 -12.3363 -2.0263
	vertex -0.5000 -12.1363 -3.0025
endloop
endfacet
facet normal 0.0000 -0.9797 -0.2007
outer loop
	vertex 0.5000 -12.3363 -2.0263
	vertex -0.5000 -12.1363 -3.0025
	vertex 0.5000 -12.1363 -3.0025
endloop
endfacet
facet normal 0.0000 -0.9606 -0.2779
outer loop
	vertex 0.5000 -12.1363 -3.0025
	vertex -0.5000 -12.1363 -3.0025
	vertex -0.5000 -11.8625 -3.9488
endloop
endfacet
facet normal 0.0000 -0.9606 -0.2779
outer loop
	vertex 0.5000 -12.1363 -3.0025
	vertex -0.5000 -11.8625 -3.9488
	vertex 0.5000 -11.8625 -3.9488
endloop
endfacet
facet normal 0.0000 -0.9357 -0.3528
outer loop
	vertex 0.5000 -11.8625 -3.9488
	vertex -0.5000 -11.8625 -3.9488
	vertex -0.5000 -11.5175 -4.8638
endloop
endfacet
facet normal 0.0000 -0.9357 -0.3528
outer loop
	vertex 0.5000 -11.8625 -3.9488
	vertex -0.5000 -11.5175 -4.8638
	vertex 0.5000 -11.5175 -4.8638
endloop
endfacet
facet normal 0.0000 -0.9047 -0.4260
outer loop
	vertex 0.5000 -11.5175 -4.8638
	vertex -0.5000 -11.5175 -4.8638
	vertex -0.5000 -11.1038 -5.7425
endloop
endfacet
facet normal 0.0000 -0.9047 -0.4260
outer loop
	vertex 0.5000 -11.5175 -4.8638
	vertex -0.5000 -11.1038 -5.7425
	vertex 0.5000 -11.1038 -5.7425
endloop
endfacet
facet normal 0.0000 -0.8694 -0.4942
outer loop
	vertex 0.5000 -11.1038 -5.7425
	vertex -0.5000 -11.1038 -5.7425
	vertex -0.5000 -10.6263 -6.5825
endloop
endfacet
facet normal 0.0000 -0.8694 -0.4942
outer loop
	vertex 0.5000 -11.1038 -5.7425
	vertex -0.5000 -10.6263 -6.5825
	vertex 0.5000 -10.6263 -6.5825
endloop
endfacet
facet normal 0.0000 -0.8286 -0.5598
outer loop
	vertex 0.5000 -10.6263 -6.5825
	vertex -0.5000 -10.6263 -6.5825
	vertex -0.5000 -10.0875 -7.3800
endloop
endfacet
facet normal 0.0000 -0.8286 -0.5598
outer loop
	vertex 0.5000 -10.6263 -6.5825
	vertex -0.5000 -10.0875 -7.3800
	vertex 0.5000 -10.0875 -7.3800
endloop
endfacet
facet normal 0.0000 -0.7831 -0.6218
outer loop
	vertex 0.5000 -10.0875 -7.3800
	vertex -0.5000 -10.0875 -7.3800
	vertex -0.5000 -9.4900 -8.1325
endloop
endfacet
facet normal 0.0000 -0.7831 -0.6218
outer loop
	vertex 0.5000 -10.0875 -7.3800
	vertex -0.5000 -9.4900 -8.1325
	vertex 0.5000 -9.4900 -8.1325
endloop
endfacet
facet normal 0.0000 -0.7339 -0.6793
outer loop
	vertex 0.5000 -9.4900 -8.1325
	vertex -0.5000 -9.4900 -8.1325
	vertex -0.5000 -8.8375 -8.8375
endloop
endfacet
facet normal 0.0000 -0.7339 -0.6793
outer loop
	vertex 0.5000 -9.4900 -8.1325
	vertex -0.5000 -8.8375 -8.8375
	vertex 0.5000 -8.8375 -8.8375
endloop
endfacet
facet normal 0.0000 -0.6793 -0.7339
outer loop
	vertex 0.5000 -8.8375 -8.8375
	vertex -0.5000 -8.8375 -8.8375
	vertex -0.5000 -8.1325 -9.4900
endloop
endfacet
facet normal 0.0000 -0.6793 -0.7339
outer loop
	vertex 0.5000 -8.8375 -8.8375
	vertex -0.5000 -8.1325 -9.4900
	vertex 0.5000 -8.1325 -9.4900
endloop
endfacet
facet normal 0.0000 -0.6210 -0.7838
outer loop
	vertex 0.5000 -8.1325 -9.4900
	vertex -0.5000 -8.1325 -9.4900
	vertex -0.5000 -7.3800 -10.0863
endloop
endfacet
facet normal 0.0000 -0.6210 -0.7838
outer loop
	vertex 0.5000 -8.1325 -9.4900
	vertex -0.5000 -7.3800 -10.0863
	vertex 0.5000 -7.3800 -10.0863
endloop
endfacet
facet normal 0.0000 -0.5607 -0.8280
outer loop
	vertex 0.5000 -7.3800 -10.0863
	vertex -0.5000 -7.3800 -10.0863
	vertex -0.5000 -6.5825 -10.6263
endloop
endfacet
facet normal 0.0000 -0.5607 -0.8280
outer loop
	vertex 0.5000 -7.3800 -10.0863
	vertex -0.5000 -6.5825 -10.6263
	vertex 0.5000 -6.5825 -10.6263
endloop
endfacet
facet normal 0.0000 -0.4942 -0.8694
outer loop
	vertex 0.5000 -6.5825 -10.6263
	vertex -0.5000 -6.5825 -10.6263
	vertex -0.5000 -5.7425 -11.1038
endloop
endfacet
facet normal 0.0000 -0.4942 -0.8694
outer loop
	vertex 0.5000 -6.5825 -10.6263
	vertex -0.5000 -5.7425 -11.1038
	vertex 0.5000 -5.7425 -11.1038
endloop
endfacet
facet normal 0.0000 -0.4260 -0.9047
outer loop
	vertex 0.5000 -5.7425 -11.1038
	vertex -0.5000 -5.7425 -11.1038
	vertex -0.5000 -4.8638 -11.5175
endloop
endfacet
facet normal 0.0000 -0.4260 -0.9047
outer loop
	vertex 0.5000 -5.7425 -11.1038
	vertex -0.5000 -4.8638 -11.5175
	vertex 0.5000 -4.8638 -11.5175
endloop
endfacet
facet normal 0.0000 -0.3528 -0.9357
outer loop
	vertex 0.5000 -4.8638 -11.5175
	vertex -0.5000 -4.8638 -11.5175
	vertex -0.5000 -3.9488 -11.8625
endloop
endfacet
facet normal 0.0000 -0.3528 -0.9357
outer loop
	vertex 0.5000 -4.8638 -11.5175
	vertex -0.5000 -3.9488 -11.8625
	vertex 0.5000 -3.9488 -11.8625
endloop
endfacet
facet normal 0.0000 -0.2779 -0.9606
outer loop
	vertex 0.5000 -3.9488 -11.8625
	vertex -0.5000 -3.9488 -11.8625
	vertex -0.5000 -3.0025 -12.1363
endloop
endfacet
facet normal 0.0000 -0.2779 -0.9606
outer loop
	vertex 0.5000 -3.9488 -11.8625
	vertex -0.5000 -3.0025 -12.1363
	vertex 0.5000 -3.0025 -12.1363
endloop
endfacet
facet normal 0.0000 -0.2007 -0.9797
outer loop
	vertex 0.5000 -3.0025 -12.1363
	vertex -0.5000 -3.0025 -12.1363
	vertex -0.5000 -2.0263 -12.3363
endloop
endfacet
facet normal 0.0000 -0.2007 -0.9797
outer loop
	vertex 0.5000 -3.0025 -12.1363
	vertex -0.5000 -2.0263 -12.3363
	vertex 0.5000 -2.0263 -12.3363
endloop
endfacet
facet normal 0.0000 -0.1214 -0.9926
outer loop
	vertex 0.5000 -2.0263 -12.3363
	vertex -0.5000 -2.0263 -12.3363
	vertex -0.5000 -1.0250 -12.4588
endloop
endfacet
facet normal 0.0000 -0.1214 -0.9926
outer loop
	vertex 0.5000 -2.0263 -12.3363
	vertex -0.5000 -1.0250 -12.4588
	vertex 0.5000 -1.0250 -12.4588
endloop
endfacet
facet normal 0.0000 -0.0402 -0.9992
outer loop
	vertex 0.5000 -1.0250 -12.4588
	vertex -0.5000 -1.0250 -12.4588
	vertex -0.5000 0.0000 -12.5000
endloop
endfacet
facet normal 0.0000 -0.0402 -0.9992
outer loop
	vertex 0.5000 -1.0250 -12.4588
	vertex -0.5000 0.0000 -12.5000
	vertex 0.5000 0.0000 -12.5000
endloop
endfacet
facet normal 0.0000 0.0402 -0.9992
outer loop
	vertex 0.5000 0.0000 -12.5000
	vertex -0.5000 0.0000 -12.5000
	vertex -0.5000 1.0250 -12.4588
endloop
endfacet
facet normal 0.0000 0.0402 -0.9992
outer loop
	vertex 0.5000 0.0000 -12.5000
	vertex -0.5000 1.0250 -12.4588
	vertex 0.5000 1.0250 -12.4588
endloop
endfacet
facet normal 0.0000 0.1214 -0.9926
outer loop
	vertex 0.5000 1.0250 -12.4588
	vertex -0.5000 1.0250 -12.4588
	vertex -0.5000 2.0263 -12.3363
endloop
endfacet
facet normal 0.0000 0.1214 -0.9926
outer loop
	vertex 0.5000 1.0250 -12.4588
	vertex -0.5000 2.0263 -12.3363
	vertex 0.5000 2.0263 -12.3363
endloop
endfacet
facet normal 0.0000 0.2007 -0.9797
outer loop
	vertex 0.5000 2.0263 -12.3363
	vertex -0.5000 2.0263 -12.3363
	vertex -0.5000 3.0025 -12.1363
endloop
endfacet
facet normal 0.0000 0.2007 -0.9797
outer loop
	vertex 0.5000 2.0263 -12.3363
	vertex -0.5000 3.0025 -12.1363
	vertex 0.5000 3.0025 -12.1363
endloop
endfacet
facet normal 0.0000 0.2779 -0.9606
outer loop
	vertex 0.5000 3.0025 -12.1363
	vertex -0.5000 3.0025 -12.1363
	vertex -0.5000 3.9488 -11.8625
endloop
endfacet
facet normal 0.0000 0.2779 -0.9606
outer loop
	vertex 0.5000 3.0025 -12.1363
	vertex -0.5000 3.9488 -11.8625
	vertex 0.5000 3.9488 -11.8625
endloop
endfacet
facet normal 0.0000 0.3528 -0.9357
outer loop
	vertex 0.5000 3.9488 -11.8625
	vertex -0.5000 3.9488 -11.8625
	vertex -0.5000 4.8638 -11.5175
endloop
endfacet
facet normal 0.0000 0.3528 -0.9357
outer loop
	vertex 0.5000 3.9488 -11.8625
	vertex -0.5000 4.8638 -11.5175
	vertex 0.5000 4.8638 -11.5175
endloop
endfacet
facet normal 0.0000 0.4260 -0.9047
outer loop
	vertex 0.5000 4.8638 -11.5175
	vertex -0.5000 4.8638 -11.5175
	vertex -0.5000 5.7425 -11.1038
endloop
endfacet
facet normal 0.0000 0.4260 -0.9047
outer loop
	vertex 0.5000 4.8638 -11.5175
	vertex -0.5000 5.7425 -11.1038
	vertex 0.5000 5.7425 -11.1038
endloop
endfacet
facet normal 0.0000 0.4942 -0.8694
outer loop
	vertex 0.5000 5.7425 -11.1038
	vertex -0.5000 5.7425 -11.1038
	vertex -0.5000 6.5825 -10.6263
endloop
endfacet
facet normal 0.0000 0.4942 -0.8694
outer loop
	vertex 0.5000 5.7425 -11.1038
	vertex -0.5000 6.5825 -10.6263
	vertex 0.5000 6.5825 -10.6263
endloop
endfacet
facet normal 0.0000 0.5607 -0.8280
outer loop
	vertex 0.5000 6.5825 -10.6263
	vertex -0.5000 6.5825 -10.6263
	vertex -0.5000 7.3800 -10.0863
endloop
endfacet
facet normal 0.0000 0.5607 -0.8280
outer loop
	vertex 0.5000 6.5825 -10.6263
	vertex -0.5000 7.3800 -10.0863
	vertex 0.5000 7.3800 -10.0863
endloop
endfacet
facet normal 0.0000 0.6210 -0.7838
outer loop
	vertex 0.5000 7.3800 -10.0863
	vertex -0.5000 7.3800 -10.0863
	vertex -0.5000 8.1325 -9.4900
endloop
endfacet
facet normal 0.0000 0.6210 -0.7838
outer loop
	vertex 0.5000 7.3800 -10.0863
	vertex -0.5000 8.1325 -9.4900
	vertex 0.5000 8.1325 -9.4900
endloop
endfacet
facet normal 0.0000 0.6793 -0.7339
outer loop
	vertex 0.5000 8.1325 -9.4900
	vertex -0.5000 8.1325 -9.4900
	vertex -0.5000 8.8375 -8.8375
endloop
endfacet
facet normal 0.0000 0.6793 -0.7339
outer loop
	vertex 0.5000 8.1325 -9.4900
	vertex -0.5000 8.8375 -8.8375
	vertex 0.5000 8.8375 -8.8375
endloop
endfacet
facet normal 0.0000 0.7339 -0.6793
outer loop
	vertex 0.5000 8.8375 -8.8375
	vertex -0.5000 8.8375 -8.8375
	vertex -0.5000 9.4900 -8.1325
endloop
endfacet
facet normal 0.0000 0.7339 -0.6793
outer loop
	vertex 0.5000 8.8375 -8.8375
	vertex -0.5000 9.4900 -8.1325
	vertex 0.5000 9.4900 -8.1325
endloop
endfacet
facet normal 0.0000 0.7838 -0.6210
outer loop
	vertex 0.5000 9.4900 -8.1325
	vertex -0.5000 9.4900 -8.1325
	vertex -0.5000 10.0863 -7.3800
endloop
endfacet
facet normal 0.0000 0.7838 -0.6210
outer loop
	vertex 0.5000 9.4900 -8.1325
	vertex -0.5000 10.0863 -7.3800
	vertex 0.5000 10.0863 -7.3800
endloop
endfacet
facet normal 0.0000 0.8280 -0.5607
outer loop
	vertex 0.5000 10.0863 -7.3800
	vertex -0.5000 10.0863 -7.3800
	vertex -0.5000 10.6263 -6.5825
endloop
endfacet
facet normal 0.0000 0.8280 -0.5607
outer loop
	vertex 0.5000 10.0863 -7.3800
	vertex -0.5000 10.6263 -6.5825
	vertex 0.5000 10.6263 -6.5825
endloop
endfacet
facet normal 0.0000 0.8694 -0.4942
outer loop
	vertex 0.5000 10.6263 -6.5825
	vertex -0.5000 10.6263 -6.5825
	vertex -0.5000 11.1038 -5.7425
endloop
endfacet
facet normal 0.0000 0.8694 -0.4942
outer loop
	vertex 0.5000 10.6263 -6.5825
	vertex -0.5000 11.1038 -5.7425
	vertex 0.5000 11.1038 -5.7425
endloop
endfacet
facet normal 0.0000 0.9047 -0.4260
outer loop
	vertex 0.5000 11.1038 -5.7425
	vertex -0.5000 11.1038 -5.7425
	vertex -0.5000 11.5175 -4.8638
endloop
endfacet
facet normal 0.0000 0.9047 -0.4260
outer loop
	vertex 0.5000 11.1038 -5.7425
	vertex -0.5000 11.5175 -4.8638
	vertex 0.5000 11.5175 -4.8638
endloop
endfacet
facet normal 0.0000 0.9357 -0.3528
outer loop
	vertex 0.5000 11.5175 -4.8638
	vertex -0.5000 11.5175 -4.8638
	vertex -0.5000 11.8625 -3.9488
endloop
endfacet
facet normal 0.0000 0.9357 -0.3528
outer loop
	vertex 0.5000 11.5175 -4.8638
	vertex -0.5000 11.8625 -3.9488
	vertex 0.5000 11.8625 -3.9488
endloop
endfacet
facet normal 0.0000 0.9606 -0.2779
outer loop
	vertex 0.5000 11.8625 -3.9488
	vertex -0.5000 11.8625 -3.9488
	vertex -0.5000 12.1363 -3.0025
endloop
endfacet
facet normal 0.0000 0.9606 -0.2779
outer loop
	vertex 0.5000 11.8625 -3.9488
	vertex -0.5000 12.1363 -3.0025
	vertex 0.5000 12.1363 -3.0025
endloop
endfacet
facet normal 0.0000 0.9797 -0.2007
outer loop
	vertex 0.5000 12.1363 -3.0025
	vertex -0.5000 12.1363 -3.0025
	vertex -0.5000 12.3363 -2.0263
endloop
endfacet
facet normal 0.0000 0.9797 -0.2007
outer loop
	vertex 0.5000 12.1363 -3.0025
	vertex -0.5000 12.3363 -2.0263
	vertex 0.5000 12.3363 -2.0263
endloop
endfacet
facet normal 0.0000 0.9926 -0.1214
outer loop
	vertex 0.5000 12.3363 -2.0263
	vertex -0.5000 12.3363 -2.0263
	vertex -0.5000 12.4588 -1.0250
endloop
endfacet
facet normal 0.0000 0.9926 -0.1214
outer loop
	vertex 0.5000 12.3363 -2.0263
	vertex -0.5000 12.4588 -1.0250
	vertex 0.5000 12.4588 -1.0250
endloop
endfacet
facet normal 0.0000 0.9992 -0.0402
outer loop
	vertex 0.5000 12.4588 -1.0250
	vertex -0.5000 12.4588 -1.0250
	vertex -0.5000 12.5000 0.0000
endloop
endfacet
facet normal 0.0000 0.9992 -0.0402
outer loop
	vertex 0.5000 12.4588 -1.0250
	vertex -0.5000 12.5000 0.0000
	vertex 0.5000 12.5000 0.0000
endloop
endfacet
facet normal 0.0000 0.9992 0.0402
outer loop
	vertex 0.5000 12.5000 0.0000
	vertex -0.5000 12.5000 0.0000
	vertex -0.5000 12.4588 1.0250
endloop
endfacet
facet normal 0.0000 0.9992 0.0402
outer loop
	vertex 0.5000 12.5000 0.0000
	vertex -0.5000 12.4588 1.0250
	vertex 0.5000 12.4588 1.0250
endloop
endfacet
facet normal 0.0000 0.9926 0.1214
outer loop
	vertex 0.5000 12.4588 1.0250
	vertex -0.5000 12.4588 1.0250
	vertex -0.5000 12.3363 2.0263
endloop
endfacet
facet normal 0.0000 0.9926 0.1214
outer loop
	vertex 0.5000 12.4588 1.0250
	vertex -0.5000 12.3363 2.0263
	vertex 0.5000 12.3363 2.0263
endloop
endfacet
facet normal 0.0000 0.9797 0.2007
outer loop
	vertex 0.5000 12.3363 2.0263
	vertex -0.5000 12.3363 2.0263
	vertex -0.5000 12.1363 3.0025
endloop
endfacet
facet normal 0.0000 0.9797 0.2007
outer loop
	vertex 0.5000 12.3363 2.0263
	vertex -0.5000 12.1363 3.0025
	vertex 0.5000 12.1363 3.0025
endloop
endfacet
facet normal 0.0000 0.9606 0.2779
outer loop
	vertex 0.5000 12.1363 3.0025
	vertex -0.5000 12.1363 3.0025
	vertex -0.5000 11.8625 3.9488
endloop
endfacet
facet normal 0.0000 0.9606 0.2779
outer loop
	vertex 0.5000 12.1363 3.0025
	vertex -0.5000 11.8625 3.9488
	vertex 0.5000 11.8625 3.9488
endloop
endfacet
facet normal 0.0000 0.9357 0.3528
outer loop
	vertex 0.5000 11.8625 3.9488
	vertex -0.5000 11.8625 3.9488
	vertex -0.5000 11.5175 4.8638
endloop
endfacet
facet normal 0.0000 0.9357 0.3528
outer loop
	vertex 0.5000 11.8625 3.9488
	vertex -0.5000 11.5175 4.8638
	vertex 0.5000 11.5175 4.8638
endloop
endfacet
facet normal 0.0000 0.9047 0.4260
outer loop
	vertex 0.5000 11.5175 4.8638
	vertex -0.5000 11.5175 4.8638
	vertex -0.5000 11.1038 5.7425
endloop
endfacet
facet normal 0.0000 0.9047 0.4260
outer loop
	vertex 0.5000 11.5175 4.8638
	vertex -0.5000 11.1038 5.7425
	vertex 0.5000 11.1038 5.7425
endloop
endfacet
facet normal 0.0000 0.8694 0.4942
outer loop
	vertex 0.5000 11.1038 5.7425
	vertex -0.5000 11.1038 5.7425
	vertex -0.5000 10.6263 6.5825
endloop
endfacet
facet normal 0.0000 0.8694 0.4942
outer loop
	vertex 0.5000 11.1038 5.7425
	vertex -0.5000 10.6263 6.5825
	vertex 0.5000 10.6263 6.5825
endloop
endfacet
facet normal 0.0000 0.8280 0.5607
outer loop
	vertex 0.5000 10.6263 6.5825
	vertex -0.5000 10.6263 6.5825
	vertex -0.5000 10.0863 7.3800
endloop
endfacet
facet normal 0.0000 0.8280 0.5607
outer loop
	vertex 0.5000 10.6263 6.5825
	vertex -0.5000 10.0863 7.3800
	vertex 0.5000 10.0863 7.3800
endloop
endfacet
facet normal 0.0000 0.7838 0.6210
outer loop
	vertex 0.5000 10.0863 7.3800
	vertex -0.5000 10.0863 7.3800
	vertex -0.5000 9.4900 8.1325
endloop
endfacet
facet normal 0.0000 0.7838 0.6210
outer loop
	vertex 0.5000 10.0863 7.3800
	vertex -0.5000 9.4900 8.1325
	vertex 0.5000 9.4900 8.1325
endloop
endfacet
facet normal 0.0000 0.7339 0.6793
outer loop
	vertex 0.5000 9.4900 8.1325
	vertex -0.5000 9.4900 8.1325
	vertex -0.5000 8.8375 8.8375
endloop
endfacet
facet normal 0.0000 0.7339 0.6793
outer loop
	vertex 0.5000 9.4900 8.1325
	vertex -0.5000 8.8375 8.8375
	vertex 0.5000 8.8375 8.8375
endloop
endfacet
facet normal 0.0000 0.6793 0.7339
outer loop
	vertex 0.5000 8.8375 8.8375
	vertex -0.5000 8.8375 8.8375
	vertex -0.5000 8.1325 9.4900
endloop
endfacet
facet normal 0.0000 0.6793 0.7339
outer loop
	vertex 0.5000 8.8375 8.8375
	vertex -0.5000 8.1325 9.4900
	vertex 0.5000 8.1325 9.4900
endloop
endfacet
facet normal 0.0000 0.6218 0.7831
outer loop
	vertex 0.5000 8.1325 9.4900
	vertex -0.5000 8.1325 9.4900
	vertex -0.5000 7.3800 10.0875
endloop
endfacet
facet normal 0.0000 0.6218 0.7831
outer loop
	vertex 0.5000 8.1325 9.4900
	vertex -0.5000 7.3800 10.0875
	vertex 0.5000 7.3800 10.0875
endloop
endfacet
facet normal 0.0000 0.5598 0.8286
outer loop
	vertex 0.5000 7.3800 10.0875
	vertex -0.5000 7.3800 10.0875
	vertex -0.5000 6.5825 10.6263
endloop
endfacet
facet normal 0.0000 0.5598 0.8286
outer loop
	vertex 0.5000 7.3800 10.0875
	vertex -0.5000 6.5825 10.6263
	vertex 0.5000 6.5825 10.6263
endloop
endfacet
facet normal 0.0000 0.4942 0.8694
outer loop
	vertex 0.5000 6.5825 10.6263
	vertex -0.5000 6.5825 10.6263
	vertex -0.5000 5.7425 11.1038
endloop
endfacet
facet normal 0.0000 0.4942 0.8694
outer loop
	vertex 0.5000 6.5825 10.6263
	vertex -0.5000 5.7425 11.1038
	vertex 0.5000 5.7425 11.1038
endloop
endfacet
facet normal 0.0000 0.4260 0.9047
outer loop
	vertex 0.5000 5.7425 11.1038
	vertex -0.5000 5.7425 11.1038
	vertex -0.5000 4.8638 11.5175
endloop
endfacet
facet normal 0.0000 0.4260 0.9047
outer loop
	vertex 0.5000 5.7425 11.1038
	vertex -0.5000 4.8638 11.5175
	vertex 0.5000 4.8638 11.5175
endloop
endfacet
facet normal 0.0000 0.3528 0.9357
outer loop
	vertex 0.5000 4.8638 11.5175
	vertex -0.5000 4.8638 11.5175
	vertex -0.5000 3.9488 11.8625
endloop
endfacet
facet normal 0.0000 0.3528 0.9357
outer loop
	vertex 0.5000 4.8638 11.5175
	vertex -0.5000 3.9488 11.8625
	vertex 0.5000 3.9488 11.8625
endloop
endfacet
facet normal 0.0000 0.2779 0.9606
outer loop
	vertex 0.5000 3.9488 11.8625
	vertex -0.5000 3.9488 11.8625
	vertex -0.5000 3.0025 12.1363
endloop
endfacet
facet normal 0.0000 0.2779 0.9606
outer loop
	vertex 0.5000 3.9488 11.8625
	vertex -0.5000 3.0025 12.1363
	vertex 0.5000 3.0025 12.1363
endloop
endfacet
facet normal 0.0000 0.2007 0.9797
outer loop
	vertex 0.5000 3.0025 12.1363
	vertex -0.5000 3.0025 12.1363
	vertex -0.5000 2.0263 12.3363
endloop
endfacet
facet normal 0.0000 0.2007 0.9797
outer loop
	vertex 0.5000 3.0025 12.1363
	vertex -0.5000 2.0263 12.3363
	vertex 0.5000 2.0263 12.3363
endloop
endfacet
facet normal 0.0000 0.1214 0.9926
outer loop
	vertex 0.5000 2.0263 12.3363
	vertex -0.5000 2.0263 12.3363
	vertex -0.5000 1.0250 12.4588
endloop
endfacet
facet normal 0.0000 0.1214 0.9926
outer loop
	vertex 0.5000 2.0263 12.3363
	vertex -0.5000 1.0250 12.4588
	vertex 0.5000 1.0250 12.4588
endloop
endfacet
endsolid Composite Mesh
