<?xml version="1.0" encoding="UTF-8" standalone="no"?>
<!-- Created with Inkscape (http://www.inkscape.org/) -->

<svg
   width="960"
   height="540"
   viewBox="0 0 253.99999 142.875"
   version="1.1"
   id="svg1"
   inkscape:version="1.3.2 (091e20e, 2023-11-25, custom)"
   sodipodi:docname="game_creation.svg"
   inkscape:export-filename="game_creation.png"
   inkscape:export-xdpi="96"
   inkscape:export-ydpi="96"
   xmlns:inkscape="http://www.inkscape.org/namespaces/inkscape"
   xmlns:sodipodi="http://sodipodi.sourceforge.net/DTD/sodipodi-0.dtd"
   xmlns="http://www.w3.org/2000/svg"
   xmlns:svg="http://www.w3.org/2000/svg">
  <sodipodi:namedview
     id="namedview1"
     pagecolor="#ffffff"
     bordercolor="#000000"
     borderopacity="0.25"
     inkscape:showpageshadow="2"
     inkscape:pageopacity="0.0"
     inkscape:pagecheckerboard="0"
     inkscape:deskcolor="#d1d1d1"
     inkscape:document-units="px"
     inkscape:zoom="0.54236815"
     inkscape:cx="515.33262"
     inkscape:cy="155.79823"
     inkscape:window-width="1827"
     inkscape:window-height="1057"
     inkscape:window-x="85"
     inkscape:window-y="-8"
     inkscape:window-maximized="1"
     inkscape:current-layer="layer1"
     inkscape:export-bgcolor="#ffffffff" />
  <defs
     id="defs1">
    <inkscape:path-effect
       effect="skeletal"
       id="path-effect29"
       is_visible="true"
       lpeversion="1"
       pattern="M 0,4.9921382 C 0,2.2364779 2.2364779,0 4.9921382,0 c 2.7556602,0 4.9921381,2.2364779 4.9921381,4.9921382 0,2.7556602 -2.2364779,4.9921381 -4.9921381,4.9921381 C 2.2364779,9.9842763 0,7.7477984 0,4.9921382 Z"
       copytype="single_stretched"
       prop_scale="0.32906369"
       scale_y_rel="false"
       spacing="0"
       normal_offset="0"
       tang_offset="0"
       prop_units="false"
       vertical_pattern="false"
       hide_knot="false"
       fuse_tolerance="0" />
    <inkscape:path-effect
       effect="skeletal"
       id="path-effect28"
       is_visible="true"
       lpeversion="1"
       pattern="M 0,4.9921382 C 0,2.2364779 2.2364779,0 4.9921382,0 c 2.7556602,0 4.9921381,2.2364779 4.9921381,4.9921382 0,2.7556602 -2.2364779,4.9921381 -4.9921381,4.9921381 C 2.2364779,9.9842763 0,7.7477984 0,4.9921382 Z"
       copytype="single_stretched"
       prop_scale="0.39564074"
       scale_y_rel="false"
       spacing="0"
       normal_offset="0"
       tang_offset="0"
       prop_units="false"
       vertical_pattern="false"
       hide_knot="false"
       fuse_tolerance="0" />
    <inkscape:path-effect
       effect="skeletal"
       id="path-effect27"
       is_visible="true"
       lpeversion="1"
       pattern="M 0,4.9921382 C 0,2.2364779 2.2364779,0 4.9921382,0 c 2.7556602,0 4.9921381,2.2364779 4.9921381,4.9921382 0,2.7556602 -2.2364779,4.9921381 -4.9921381,4.9921381 C 2.2364779,9.9842763 0,7.7477984 0,4.9921382 Z"
       copytype="single_stretched"
       prop_scale="0.39564074"
       scale_y_rel="false"
       spacing="0"
       normal_offset="0"
       tang_offset="0"
       prop_units="false"
       vertical_pattern="false"
       hide_knot="false"
       fuse_tolerance="0" />
    <inkscape:path-effect
       effect="skeletal"
       id="path-effect26"
       is_visible="true"
       lpeversion="1"
       pattern="M 0,4.9921382 C 0,2.2364779 2.2364779,0 4.9921382,0 c 2.7556602,0 4.9921381,2.2364779 4.9921381,4.9921382 0,2.7556602 -2.2364779,4.9921381 -4.9921381,4.9921381 C 2.2364779,9.9842763 0,7.7477984 0,4.9921382 Z"
       copytype="single_stretched"
       prop_scale="0.39564074"
       scale_y_rel="false"
       spacing="0"
       normal_offset="0"
       tang_offset="0"
       prop_units="false"
       vertical_pattern="false"
       hide_knot="false"
       fuse_tolerance="0" />
    <inkscape:path-effect
       effect="skeletal"
       id="path-effect25"
       is_visible="true"
       lpeversion="1"
       pattern="M 0,4.9921382 C 0,2.2364779 2.2364779,0 4.9921382,0 c 2.7556602,0 4.9921381,2.2364779 4.9921381,4.9921382 0,2.7556602 -2.2364779,4.9921381 -4.9921381,4.9921381 C 2.2364779,9.9842763 0,7.7477984 0,4.9921382 Z"
       copytype="single_stretched"
       prop_scale="0.39564074"
       scale_y_rel="false"
       spacing="0"
       normal_offset="0"
       tang_offset="0"
       prop_units="false"
       vertical_pattern="false"
       hide_knot="false"
       fuse_tolerance="0" />
    <inkscape:path-effect
       effect="skeletal"
       id="path-effect24"
       is_visible="true"
       lpeversion="1"
       pattern="M 0,4.9921382 C 0,2.2364779 2.2364779,0 4.9921382,0 c 2.7556602,0 4.9921381,2.2364779 4.9921381,4.9921382 0,2.7556602 -2.2364779,4.9921381 -4.9921381,4.9921381 C 2.2364779,9.9842763 0,7.7477984 0,4.9921382 Z"
       copytype="single_stretched"
       prop_scale="0.39564074"
       scale_y_rel="false"
       spacing="0"
       normal_offset="0"
       tang_offset="0"
       prop_units="false"
       vertical_pattern="false"
       hide_knot="false"
       fuse_tolerance="0" />
    <inkscape:path-effect
       effect="skeletal"
       id="path-effect23"
       is_visible="true"
       lpeversion="1"
       pattern="M 0,4.9921382 C 0,2.2364779 2.2364779,0 4.9921382,0 c 2.7556602,0 4.9921381,2.2364779 4.9921381,4.9921382 0,2.7556602 -2.2364779,4.9921381 -4.9921381,4.9921381 C 2.2364779,9.9842763 0,7.7477984 0,4.9921382 Z"
       copytype="single_stretched"
       prop_scale="0.35464173"
       scale_y_rel="false"
       spacing="0"
       normal_offset="0"
       tang_offset="0"
       prop_units="false"
       vertical_pattern="false"
       hide_knot="false"
       fuse_tolerance="0" />
    <inkscape:path-effect
       effect="skeletal"
       id="path-effect21"
       is_visible="true"
       lpeversion="1"
       pattern="M 0,4.9921382 C 0,2.2364779 2.2364779,0 4.9921382,0 c 2.7556602,0 4.9921381,2.2364779 4.9921381,4.9921382 0,2.7556602 -2.2364779,4.9921381 -4.9921381,4.9921381 C 2.2364779,9.9842763 0,7.7477984 0,4.9921382 Z"
       copytype="single_stretched"
       prop_scale="0.35464173"
       scale_y_rel="false"
       spacing="0"
       normal_offset="0"
       tang_offset="0"
       prop_units="false"
       vertical_pattern="false"
       hide_knot="false"
       fuse_tolerance="0" />
    <inkscape:path-effect
       effect="skeletal"
       id="path-effect19"
       is_visible="true"
       lpeversion="1"
       pattern="M 0,4.9921382 C 0,2.2364779 2.2364779,0 4.9921382,0 c 2.7556602,0 4.9921381,2.2364779 4.9921381,4.9921382 0,2.7556602 -2.2364779,4.9921381 -4.9921381,4.9921381 C 2.2364779,9.9842763 0,7.7477984 0,4.9921382 Z"
       copytype="single_stretched"
       prop_scale="0.39564074"
       scale_y_rel="false"
       spacing="0"
       normal_offset="0"
       tang_offset="0"
       prop_units="false"
       vertical_pattern="false"
       hide_knot="false"
       fuse_tolerance="0" />
    <inkscape:path-effect
       effect="skeletal"
       id="path-effect18"
       is_visible="true"
       lpeversion="1"
       pattern="M 0,4.9921382 C 0,2.2364779 2.2364779,0 4.9921382,0 c 2.7556602,0 4.9921381,2.2364779 4.9921381,4.9921382 0,2.7556602 -2.2364779,4.9921381 -4.9921381,4.9921381 C 2.2364779,9.9842763 0,7.7477984 0,4.9921382 Z"
       copytype="single_stretched"
       prop_scale="0.39564074"
       scale_y_rel="false"
       spacing="0"
       normal_offset="0"
       tang_offset="0"
       prop_units="false"
       vertical_pattern="false"
       hide_knot="false"
       fuse_tolerance="0" />
    <inkscape:path-effect
       effect="skeletal"
       id="path-effect17"
       is_visible="true"
       lpeversion="1"
       pattern="M 0,4.9921382 C 0,2.2364779 2.2364779,0 4.9921382,0 c 2.7556602,0 4.9921381,2.2364779 4.9921381,4.9921382 0,2.7556602 -2.2364779,4.9921381 -4.9921381,4.9921381 C 2.2364779,9.9842763 0,7.7477984 0,4.9921382 Z"
       copytype="single_stretched"
       prop_scale="0.39564074"
       scale_y_rel="false"
       spacing="0"
       normal_offset="0"
       tang_offset="0"
       prop_units="false"
       vertical_pattern="false"
       hide_knot="false"
       fuse_tolerance="0" />
    <inkscape:path-effect
       effect="skeletal"
       id="path-effect16"
       is_visible="true"
       lpeversion="1"
       pattern="M 0,4.9921382 C 0,2.2364779 2.2364779,0 4.9921382,0 c 2.7556602,0 4.9921381,2.2364779 4.9921381,4.9921382 0,2.7556602 -2.2364779,4.9921381 -4.9921381,4.9921381 C 2.2364779,9.9842763 0,7.7477984 0,4.9921382 Z"
       copytype="single_stretched"
       prop_scale="0.39564074"
       scale_y_rel="false"
       spacing="0"
       normal_offset="0"
       tang_offset="0"
       prop_units="false"
       vertical_pattern="false"
       hide_knot="false"
       fuse_tolerance="0" />
    <inkscape:path-effect
       effect="skeletal"
       id="path-effect15"
       is_visible="true"
       lpeversion="1"
       pattern="M 0,4.9921382 C 0,2.2364779 2.2364779,0 4.9921382,0 c 2.7556602,0 4.9921381,2.2364779 4.9921381,4.9921382 0,2.7556602 -2.2364779,4.9921381 -4.9921381,4.9921381 C 2.2364779,9.9842763 0,7.7477984 0,4.9921382 Z"
       copytype="single_stretched"
       prop_scale="0.39564074"
       scale_y_rel="false"
       spacing="0"
       normal_offset="0"
       tang_offset="0"
       prop_units="false"
       vertical_pattern="false"
       hide_knot="false"
       fuse_tolerance="0" />
    <inkscape:path-effect
       effect="skeletal"
       id="path-effect14"
       is_visible="true"
       lpeversion="1"
       pattern="M 0,4.9921382 C 0,2.2364779 2.2364779,0 4.9921382,0 c 2.7556602,0 4.9921381,2.2364779 4.9921381,4.9921382 0,2.7556602 -2.2364779,4.9921381 -4.9921381,4.9921381 C 2.2364779,9.9842763 0,7.7477984 0,4.9921382 Z"
       copytype="single_stretched"
       prop_scale="0.35"
       scale_y_rel="false"
       spacing="0"
       normal_offset="0"
       tang_offset="0"
       prop_units="false"
       vertical_pattern="false"
       hide_knot="false"
       fuse_tolerance="0" />
    <inkscape:path-effect
       effect="skeletal"
       id="path-effect13"
       is_visible="true"
       lpeversion="1"
       pattern="M 0,4.9921382 C 0,2.2364779 2.2364779,0 4.9921382,0 c 2.7556602,0 4.9921381,2.2364779 4.9921381,4.9921382 0,2.7556602 -2.2364779,4.9921381 -4.9921381,4.9921381 C 2.2364779,9.9842763 0,7.7477984 0,4.9921382 Z"
       copytype="single_stretched"
       prop_scale="0.35"
       scale_y_rel="false"
       spacing="0"
       normal_offset="0"
       tang_offset="0"
       prop_units="false"
       vertical_pattern="false"
       hide_knot="false"
       fuse_tolerance="0" />
    <inkscape:path-effect
       effect="skeletal"
       id="path-effect12"
       is_visible="true"
       lpeversion="1"
       pattern="M 0,4.9921382 C 0,2.2364779 2.2364779,0 4.9921382,0 c 2.7556602,0 4.9921381,2.2364779 4.9921381,4.9921382 0,2.7556602 -2.2364779,4.9921381 -4.9921381,4.9921381 C 2.2364779,9.9842763 0,7.7477984 0,4.9921382 Z"
       copytype="single_stretched"
       prop_scale="0.35"
       scale_y_rel="false"
       spacing="0"
       normal_offset="0"
       tang_offset="0"
       prop_units="false"
       vertical_pattern="false"
       hide_knot="false"
       fuse_tolerance="0" />
    <inkscape:path-effect
       effect="skeletal"
       id="path-effect11"
       is_visible="true"
       lpeversion="1"
       pattern="M 0,4.9921382 C 0,2.2364779 2.2364779,0 4.9921382,0 c 2.7556602,0 4.9921381,2.2364779 4.9921381,4.9921382 0,2.7556602 -2.2364779,4.9921381 -4.9921381,4.9921381 C 2.2364779,9.9842763 0,7.7477984 0,4.9921382 Z"
       copytype="single_stretched"
       prop_scale="0.35"
       scale_y_rel="false"
       spacing="0"
       normal_offset="0"
       tang_offset="0"
       prop_units="false"
       vertical_pattern="false"
       hide_knot="false"
       fuse_tolerance="0" />
    <inkscape:path-effect
       effect="skeletal"
       id="path-effect10"
       is_visible="true"
       lpeversion="1"
       pattern="M 0,4.9921382 C 0,2.2364779 2.2364779,0 4.9921382,0 c 2.7556602,0 4.9921381,2.2364779 4.9921381,4.9921382 0,2.7556602 -2.2364779,4.9921381 -4.9921381,4.9921381 C 2.2364779,9.9842763 0,7.7477984 0,4.9921382 Z"
       copytype="single_stretched"
       prop_scale="0.35"
       scale_y_rel="false"
       spacing="0"
       normal_offset="0"
       tang_offset="0"
       prop_units="false"
       vertical_pattern="false"
       hide_knot="false"
       fuse_tolerance="0" />
    <inkscape:path-effect
       effect="skeletal"
       id="path-effect9"
       is_visible="true"
       lpeversion="1"
       pattern="M 0,4.9921382 C 0,2.2364779 2.2364779,0 4.9921382,0 c 2.7556602,0 4.9921381,2.2364779 4.9921381,4.9921382 0,2.7556602 -2.2364779,4.9921381 -4.9921381,4.9921381 C 2.2364779,9.9842763 0,7.7477984 0,4.9921382 Z"
       copytype="single_stretched"
       prop_scale="0.35"
       scale_y_rel="false"
       spacing="0"
       normal_offset="0"
       tang_offset="0"
       prop_units="false"
       vertical_pattern="false"
       hide_knot="false"
       fuse_tolerance="0" />
    <inkscape:path-effect
       effect="skeletal"
       id="path-effect8"
       is_visible="true"
       lpeversion="1"
       pattern="M 0,4.9921382 C 0,2.2364779 2.2364779,0 4.9921382,0 c 2.7556602,0 4.9921381,2.2364779 4.9921381,4.9921382 0,2.7556602 -2.2364779,4.9921381 -4.9921381,4.9921381 C 2.2364779,9.9842763 0,7.7477984 0,4.9921382 Z"
       copytype="single_stretched"
       prop_scale="0.35"
       scale_y_rel="false"
       spacing="0"
       normal_offset="0"
       tang_offset="0"
       prop_units="false"
       vertical_pattern="false"
       hide_knot="false"
       fuse_tolerance="0" />
    <inkscape:path-effect
       effect="skeletal"
       id="path-effect7"
       is_visible="true"
       lpeversion="1"
       pattern="M 0,4.9921382 C 0,2.2364779 2.2364779,0 4.9921382,0 c 2.7556602,0 4.9921381,2.2364779 4.9921381,4.9921382 0,2.7556602 -2.2364779,4.9921381 -4.9921381,4.9921381 C 2.2364779,9.9842763 0,7.7477984 0,4.9921382 Z"
       copytype="single_stretched"
       prop_scale="0.35"
       scale_y_rel="false"
       spacing="0"
       normal_offset="0"
       tang_offset="0"
       prop_units="false"
       vertical_pattern="false"
       hide_knot="false"
       fuse_tolerance="0" />
    <inkscape:path-effect
       effect="skeletal"
       id="path-effect6"
       is_visible="true"
       lpeversion="1"
       pattern="M 0,4.9921382 C 0,2.2364779 2.2364779,0 4.9921382,0 c 2.7556602,0 4.9921381,2.2364779 4.9921381,4.9921382 0,2.7556602 -2.2364779,4.9921381 -4.9921381,4.9921381 C 2.2364779,9.9842763 0,7.7477984 0,4.9921382 Z"
       copytype="single_stretched"
       prop_scale="0.35"
       scale_y_rel="false"
       spacing="0"
       normal_offset="0"
       tang_offset="0"
       prop_units="false"
       vertical_pattern="false"
       hide_knot="false"
       fuse_tolerance="0" />
    <inkscape:path-effect
       effect="skeletal"
       id="path-effect5"
       is_visible="true"
       lpeversion="1"
       pattern="M 0,4.9921382 C 0,2.2364779 2.2364779,0 4.9921382,0 c 2.7556602,0 4.9921381,2.2364779 4.9921381,4.9921382 0,2.7556602 -2.2364779,4.9921381 -4.9921381,4.9921381 C 2.2364779,9.9842763 0,7.7477984 0,4.9921382 Z"
       copytype="single_stretched"
       prop_scale="0.35"
       scale_y_rel="false"
       spacing="0"
       normal_offset="0"
       tang_offset="0"
       prop_units="false"
       vertical_pattern="false"
       hide_knot="false"
       fuse_tolerance="0" />
    <inkscape:path-effect
       effect="skeletal"
       id="path-effect4"
       is_visible="true"
       lpeversion="1"
       pattern="M 0,4.9921382 C 0,2.2364779 2.2364779,0 4.9921382,0 c 2.7556602,0 4.9921381,2.2364779 4.9921381,4.9921382 0,2.7556602 -2.2364779,4.9921381 -4.9921381,4.9921381 C 2.2364779,9.9842763 0,7.7477984 0,4.9921382 Z"
       copytype="single_stretched"
       prop_scale="0.35"
       scale_y_rel="false"
       spacing="0"
       normal_offset="0"
       tang_offset="0"
       prop_units="false"
       vertical_pattern="false"
       hide_knot="false"
       fuse_tolerance="0" />
    <inkscape:path-effect
       effect="skeletal"
       id="path-effect3"
       is_visible="true"
       lpeversion="1"
       pattern="M 0,4.9921382 C 0,2.2364779 2.2364779,0 4.9921382,0 c 2.7556602,0 4.9921381,2.2364779 4.9921381,4.9921382 0,2.7556602 -2.2364779,4.9921381 -4.9921381,4.9921381 C 2.2364779,9.9842763 0,7.7477984 0,4.9921382 Z"
       copytype="single_stretched"
       prop_scale="0.35"
       scale_y_rel="false"
       spacing="0"
       normal_offset="0"
       tang_offset="0"
       prop_units="false"
       vertical_pattern="false"
       hide_knot="false"
       fuse_tolerance="0" />
    <inkscape:path-effect
       effect="skeletal"
       id="path-effect2"
       is_visible="true"
       lpeversion="1"
       pattern="M 0,4.9921382 C 0,2.2364779 2.2364779,0 4.9921382,0 c 2.7556602,0 4.9921381,2.2364779 4.9921381,4.9921382 0,2.7556602 -2.2364779,4.9921381 -4.9921381,4.9921381 C 2.2364779,9.9842763 0,7.7477984 0,4.9921382 Z"
       copytype="single_stretched"
       prop_scale="0.35"
       scale_y_rel="false"
       spacing="0"
       normal_offset="0"
       tang_offset="0"
       prop_units="false"
       vertical_pattern="false"
       hide_knot="false"
       fuse_tolerance="0" />
    <inkscape:path-effect
       effect="skeletal"
       id="path-effect1"
       is_visible="true"
       lpeversion="1"
       pattern="M 0,4.9921382 C 0,2.2364779 2.2364779,0 4.9921382,0 c 2.7556602,0 4.9921381,2.2364779 4.9921381,4.9921382 0,2.7556602 -2.2364779,4.9921381 -4.9921381,4.9921381 C 2.2364779,9.9842763 0,7.7477984 0,4.9921382 Z"
       copytype="single_stretched"
       prop_scale="0.35464173"
       scale_y_rel="false"
       spacing="0"
       normal_offset="0"
       tang_offset="0"
       prop_units="false"
       vertical_pattern="false"
       hide_knot="false"
       fuse_tolerance="0" />
    <inkscape:path-effect
       effect="skeletal"
       id="path-effect1-5"
       is_visible="true"
       lpeversion="1"
       pattern="M 0,4.9921382 C 0,2.2364779 2.2364779,0 4.9921382,0 c 2.7556602,0 4.9921381,2.2364779 4.9921381,4.9921382 0,2.7556602 -2.2364779,4.9921381 -4.9921381,4.9921381 C 2.2364779,9.9842763 0,7.7477984 0,4.9921382 Z"
       copytype="single_stretched"
       prop_scale="0.35464173"
       scale_y_rel="false"
       spacing="0"
       normal_offset="0"
       tang_offset="0"
       prop_units="false"
       vertical_pattern="false"
       hide_knot="false"
       fuse_tolerance="0" />
    <inkscape:path-effect
       effect="skeletal"
       id="path-effect13-4"
       is_visible="true"
       lpeversion="1"
       pattern="M 0,4.9921382 C 0,2.2364779 2.2364779,0 4.9921382,0 c 2.7556602,0 4.9921381,2.2364779 4.9921381,4.9921382 0,2.7556602 -2.2364779,4.9921381 -4.9921381,4.9921381 C 2.2364779,9.9842763 0,7.7477984 0,4.9921382 Z"
       copytype="single_stretched"
       prop_scale="0.35"
       scale_y_rel="false"
       spacing="0"
       normal_offset="0"
       tang_offset="0"
       prop_units="false"
       vertical_pattern="false"
       hide_knot="false"
       fuse_tolerance="0" />
    <inkscape:path-effect
       effect="skeletal"
       id="path-effect14-4"
       is_visible="true"
       lpeversion="1"
       pattern="M 0,4.9921382 C 0,2.2364779 2.2364779,0 4.9921382,0 c 2.7556602,0 4.9921381,2.2364779 4.9921381,4.9921382 0,2.7556602 -2.2364779,4.9921381 -4.9921381,4.9921381 C 2.2364779,9.9842763 0,7.7477984 0,4.9921382 Z"
       copytype="single_stretched"
       prop_scale="0.35"
       scale_y_rel="false"
       spacing="0"
       normal_offset="0"
       tang_offset="0"
       prop_units="false"
       vertical_pattern="false"
       hide_knot="false"
       fuse_tolerance="0" />
    <inkscape:path-effect
       effect="skeletal"
       id="path-effect14-4-2"
       is_visible="true"
       lpeversion="1"
       pattern="M 0,4.9921382 C 0,2.2364779 2.2364779,0 4.9921382,0 c 2.7556602,0 4.9921381,2.2364779 4.9921381,4.9921382 0,2.7556602 -2.2364779,4.9921381 -4.9921381,4.9921381 C 2.2364779,9.9842763 0,7.7477984 0,4.9921382 Z"
       copytype="single_stretched"
       prop_scale="0.35"
       scale_y_rel="false"
       spacing="0"
       normal_offset="0"
       tang_offset="0"
       prop_units="false"
       vertical_pattern="false"
       hide_knot="false"
       fuse_tolerance="0" />
    <inkscape:path-effect
       effect="skeletal"
       id="path-effect13-4-7"
       is_visible="true"
       lpeversion="1"
       pattern="M 0,4.9921382 C 0,2.2364779 2.2364779,0 4.9921382,0 c 2.7556602,0 4.9921381,2.2364779 4.9921381,4.9921382 0,2.7556602 -2.2364779,4.9921381 -4.9921381,4.9921381 C 2.2364779,9.9842763 0,7.7477984 0,4.9921382 Z"
       copytype="single_stretched"
       prop_scale="0.35"
       scale_y_rel="false"
       spacing="0"
       normal_offset="0"
       tang_offset="0"
       prop_units="false"
       vertical_pattern="false"
       hide_knot="false"
       fuse_tolerance="0" />
    <inkscape:path-effect
       effect="skeletal"
       id="path-effect15-2"
       is_visible="true"
       lpeversion="1"
       pattern="M 0,4.9921382 C 0,2.2364779 2.2364779,0 4.9921382,0 c 2.7556602,0 4.9921381,2.2364779 4.9921381,4.9921382 0,2.7556602 -2.2364779,4.9921381 -4.9921381,4.9921381 C 2.2364779,9.9842763 0,7.7477984 0,4.9921382 Z"
       copytype="single_stretched"
       prop_scale="0.39564074"
       scale_y_rel="false"
       spacing="0"
       normal_offset="0"
       tang_offset="0"
       prop_units="false"
       vertical_pattern="false"
       hide_knot="false"
       fuse_tolerance="0" />
    <inkscape:path-effect
       effect="skeletal"
       id="path-effect15-2-9"
       is_visible="true"
       lpeversion="1"
       pattern="M 0,4.9921382 C 0,2.2364779 2.2364779,0 4.9921382,0 c 2.7556602,0 4.9921381,2.2364779 4.9921381,4.9921382 0,2.7556602 -2.2364779,4.9921381 -4.9921381,4.9921381 C 2.2364779,9.9842763 0,7.7477984 0,4.9921382 Z"
       copytype="single_stretched"
       prop_scale="0.39564074"
       scale_y_rel="false"
       spacing="0"
       normal_offset="0"
       tang_offset="0"
       prop_units="false"
       vertical_pattern="false"
       hide_knot="false"
       fuse_tolerance="0" />
    <inkscape:path-effect
       effect="skeletal"
       id="path-effect15-2-9-3"
       is_visible="true"
       lpeversion="1"
       pattern="M 0,4.9921382 C 0,2.2364779 2.2364779,0 4.9921382,0 c 2.7556602,0 4.9921381,2.2364779 4.9921381,4.9921382 0,2.7556602 -2.2364779,4.9921381 -4.9921381,4.9921381 C 2.2364779,9.9842763 0,7.7477984 0,4.9921382 Z"
       copytype="single_stretched"
       prop_scale="0.39564074"
       scale_y_rel="false"
       spacing="0"
       normal_offset="0"
       tang_offset="0"
       prop_units="false"
       vertical_pattern="false"
       hide_knot="false"
       fuse_tolerance="0" />
    <inkscape:path-effect
       effect="skeletal"
       id="path-effect15-20"
       is_visible="true"
       lpeversion="1"
       pattern="M 0,4.9921382 C 0,2.2364779 2.2364779,0 4.9921382,0 c 2.7556602,0 4.9921381,2.2364779 4.9921381,4.9921382 0,2.7556602 -2.2364779,4.9921381 -4.9921381,4.9921381 C 2.2364779,9.9842763 0,7.7477984 0,4.9921382 Z"
       copytype="single_stretched"
       prop_scale="0.39564074"
       scale_y_rel="false"
       spacing="0"
       normal_offset="0"
       tang_offset="0"
       prop_units="false"
       vertical_pattern="false"
       hide_knot="false"
       fuse_tolerance="0" />
    <inkscape:path-effect
       effect="skeletal"
       id="path-effect15-2-1"
       is_visible="true"
       lpeversion="1"
       pattern="M 0,4.9921382 C 0,2.2364779 2.2364779,0 4.9921382,0 c 2.7556602,0 4.9921381,2.2364779 4.9921381,4.9921382 0,2.7556602 -2.2364779,4.9921381 -4.9921381,4.9921381 C 2.2364779,9.9842763 0,7.7477984 0,4.9921382 Z"
       copytype="single_stretched"
       prop_scale="0.39564074"
       scale_y_rel="false"
       spacing="0"
       normal_offset="0"
       tang_offset="0"
       prop_units="false"
       vertical_pattern="false"
       hide_knot="false"
       fuse_tolerance="0" />
    <inkscape:path-effect
       effect="skeletal"
       id="path-effect15-2-9-2"
       is_visible="true"
       lpeversion="1"
       pattern="M 0,4.9921382 C 0,2.2364779 2.2364779,0 4.9921382,0 c 2.7556602,0 4.9921381,2.2364779 4.9921381,4.9921382 0,2.7556602 -2.2364779,4.9921381 -4.9921381,4.9921381 C 2.2364779,9.9842763 0,7.7477984 0,4.9921382 Z"
       copytype="single_stretched"
       prop_scale="0.39564074"
       scale_y_rel="false"
       spacing="0"
       normal_offset="0"
       tang_offset="0"
       prop_units="false"
       vertical_pattern="false"
       hide_knot="false"
       fuse_tolerance="0" />
    <inkscape:path-effect
       effect="skeletal"
       id="path-effect15-2-9-3-0"
       is_visible="true"
       lpeversion="1"
       pattern="M 0,4.9921382 C 0,2.2364779 2.2364779,0 4.9921382,0 c 2.7556602,0 4.9921381,2.2364779 4.9921381,4.9921382 0,2.7556602 -2.2364779,4.9921381 -4.9921381,4.9921381 C 2.2364779,9.9842763 0,7.7477984 0,4.9921382 Z"
       copytype="single_stretched"
       prop_scale="0.39564074"
       scale_y_rel="false"
       spacing="0"
       normal_offset="0"
       tang_offset="0"
       prop_units="false"
       vertical_pattern="false"
       hide_knot="false"
       fuse_tolerance="0" />
    <inkscape:path-effect
       effect="skeletal"
       id="path-effect26-9"
       is_visible="true"
       lpeversion="1"
       pattern="M 0,4.9921382 C 0,2.2364779 2.2364779,0 4.9921382,0 c 2.7556602,0 4.9921381,2.2364779 4.9921381,4.9921382 0,2.7556602 -2.2364779,4.9921381 -4.9921381,4.9921381 C 2.2364779,9.9842763 0,7.7477984 0,4.9921382 Z"
       copytype="single_stretched"
       prop_scale="0.39564074"
       scale_y_rel="false"
       spacing="0"
       normal_offset="0"
       tang_offset="0"
       prop_units="false"
       vertical_pattern="false"
       hide_knot="false"
       fuse_tolerance="0" />
    <inkscape:path-effect
       effect="skeletal"
       id="path-effect27-3"
       is_visible="true"
       lpeversion="1"
       pattern="M 0,4.9921382 C 0,2.2364779 2.2364779,0 4.9921382,0 c 2.7556602,0 4.9921381,2.2364779 4.9921381,4.9921382 0,2.7556602 -2.2364779,4.9921381 -4.9921381,4.9921381 C 2.2364779,9.9842763 0,7.7477984 0,4.9921382 Z"
       copytype="single_stretched"
       prop_scale="0.39564074"
       scale_y_rel="false"
       spacing="0"
       normal_offset="0"
       tang_offset="0"
       prop_units="false"
       vertical_pattern="false"
       hide_knot="false"
       fuse_tolerance="0" />
  </defs>
  <g
     inkscape:label="Layer 1"
     inkscape:groupmode="layer"
     id="layer1">
    <path
       style="fill:#000000;stroke-width:0.264583;stroke:none;fill-opacity:1"
       d="m 3.794425,4.4843205 c 0.7961427,0 1.2262901,56.2665075 0.8510279,133.3383895 0,0 -1e-7,1e-5 -1e-7,1e-5 -4.68777619,-0.003 60.4095162,0.0769 55.7217402,0.0735 104.540467,0.21098 189.380457,1.17535 189.374977,2.15261 -0.005,0.97726 -85.46387,0.98624 -190.755323,0.02 -3.341953,-0.0307 -52.7014974,-0.5229 -56.0434498,-0.55356 0,0 -1e-7,-2e-5 -1e-7,-2e-5 C 2.5681349,61.241168 2.9982823,4.4843205 3.794425,4.4843205 Z"
       id="path1"
       inkscape:path-effect="#path-effect1"
       inkscape:original-d="M 3.794425,4.4843205 V 138.66899 l 245.947735,1.37979" />
    <path
       style="fill:#000000;fill-opacity:1;stroke:none;stroke-width:0.264583"
       d="m 3.794425,4.4843205 c 0.7961427,0 1.2262901,56.2665075 0.8510279,133.3383895 0,0 -1e-7,1e-5 -1e-7,1e-5 -4.68777619,-0.003 60.4095162,0.0769 55.7217402,0.0735 104.540467,0.21098 189.380457,1.17535 189.374977,2.15261 -0.005,0.97726 -85.46387,0.98624 -190.755323,0.02 -3.341953,-0.0307 -52.7014974,-0.5229 -56.0434498,-0.55356 0,0 -1e-7,-2e-5 -1e-7,-2e-5 C 2.5681349,61.241168 2.9982823,4.4843205 3.794425,4.4843205 Z"
       id="path1-2"
       inkscape:path-effect="#path-effect1-5"
       inkscape:original-d="M 3.794425,4.4843205 V 138.66899 l 245.947735,1.37979"
       transform="rotate(180,127.49006,71.290177)" />
    <text
       xml:space="preserve"
       style="font-size:12.7px;font-family:'Freestyle Script';-inkscape-font-specification:'Freestyle Script';text-align:center;letter-spacing:0.529167px;word-spacing:0.264583px;text-anchor:middle;fill:#000000;stroke:#000000;stroke-width:0.3;paint-order:stroke fill markers"
       x="46.587746"
       y="20.976681"
       id="text1"><tspan
         sodipodi:role="line"
         id="tspan1"
         style="stroke-width:0.3"
         x="46.587746"
         y="20.976681" /></text>
    <path
       style="fill:#000000;fill-opacity:1;stroke:none;stroke-width:0.264583"
       d="m 3.794425,4.4843205 c 0.7961427,0 1.2262901,56.2665075 0.8510279,133.3383895 0,0 -1e-7,1e-5 -1e-7,1e-5 -4.68777619,-0.003 60.4095162,0.0769 55.7217402,0.0735 104.540467,0.21098 189.380457,1.17535 189.374977,2.15261 -0.005,0.97726 -85.46387,0.98624 -190.755323,0.02 -3.341953,-0.0307 -52.7014974,-0.5229 -56.0434498,-0.55356 0,0 -1e-7,-2e-5 -1e-7,-2e-5 C 2.5681349,61.241168 2.9982823,4.4843205 3.794425,4.4843205 Z"
       id="path2"
       inkscape:path-effect="#path-effect21"
       inkscape:original-d="M 3.794425,4.4843205 V 138.66899 l 245.947735,1.37979"
       transform="matrix(0.67354395,0,0,0.92554813,41.619901,5.3076873)" />
    <path
       style="fill:#000000;fill-opacity:1;stroke:none;stroke-width:0.264583"
       d="m 3.794425,4.4843205 c 0.7961427,0 1.2262901,56.2665075 0.8510279,133.3383895 0,0 -1e-7,1e-5 -1e-7,1e-5 -4.68777619,-0.003 60.4095162,0.0769 55.7217402,0.0735 104.540467,0.21098 189.380457,1.17535 189.374977,2.15261 -0.005,0.97726 -85.46387,0.98624 -190.755323,0.02 -3.341953,-0.0307 -52.7014974,-0.5229 -56.0434498,-0.55356 0,0 -1e-7,-2e-5 -1e-7,-2e-5 C 2.5681349,61.241168 2.9982823,4.4843205 3.794425,4.4843205 Z"
       id="path3"
       inkscape:path-effect="#path-effect23"
       inkscape:original-d="M 3.794425,4.4843205 V 138.66899 l 245.947735,1.37979"
       transform="matrix(-0.67354395,0,0,-0.92554813,213.36022,137.27267)" />
    <text
       xml:space="preserve"
       style="font-size:10.0274px;font-family:'Freestyle Script';-inkscape-font-specification:'Freestyle Script';text-align:center;letter-spacing:0.417807px;word-spacing:0.208903px;text-anchor:middle;fill:#000000;stroke:#000000;stroke-width:0.236867;paint-order:stroke fill markers"
       x="85.572105"
       y="21.090063"
       id="text3"
       transform="scale(0.85306764,1.17224)"><tspan
         sodipodi:role="line"
         id="tspan3"
         style="stroke-width:0.236867"
         x="85.572105"
         y="21.090063" /></text>
    <path
       style="fill:#000000;stroke:none;stroke-width:0.3;paint-order:stroke fill markers"
       d="m 144.18815,13.452962 c 1.09023,0.0065 1.82052,25.896672 1.63011,57.790543 -0.19041,31.893865 -1.22977,57.773465 -2.32,57.766955 -1.09023,-0.006 -1.82052,-25.89667 -1.63011,-57.790538 0.19041,-31.893871 1.22977,-57.773469 2.32,-57.76696 z"
       id="path23"
       inkscape:path-effect="#path-effect24"
       inkscape:original-d="M 144.18815,13.452962 143.49826,129.01046" />
    <text
       xml:space="preserve"
       style="font-size:12.7px;font-family:'Freestyle Script';-inkscape-font-specification:'Freestyle Script';text-align:center;letter-spacing:0.529167px;word-spacing:0.264583px;text-anchor:middle;fill:#000000;stroke:#000000;stroke-width:0.3;paint-order:stroke fill markers"
       x="177.99304"
       y="23.456446"
       id="text24"><tspan
         sodipodi:role="line"
         id="tspan24"
         style="stroke-width:0.3"
         x="178.25763"
         y="23.456446">L. Presets</tspan></text>
    <text
       xml:space="preserve"
       style="font-size:12.7px;font-family:'Freestyle Script';-inkscape-font-specification:'Freestyle Script';text-align:center;letter-spacing:0.529167px;word-spacing:0.264583px;text-anchor:middle;fill:#000000;stroke:#000000;stroke-width:0.3;paint-order:stroke fill markers"
       x="92.790939"
       y="22.421604"
       id="text25"><tspan
         sodipodi:role="line"
         id="tspan25"
         style="stroke-width:0.3"
         x="93.055527"
         y="22.421604">M. Game Settings</tspan></text>
    <path
       style="fill:#000000;stroke:none;stroke-width:0.3;paint-order:stroke fill markers"
       d="m 50.362371,103.82927 c -0.0043,-1.09024 25.308236,-1.7929 56.501109,-1.56844 11.93751,0.0859 23.77981,0.26144 32.60659,0.41927 0.3102,14.86196 -0.138,24.26068 -0.80108,24.26068 -0.66308,0 -1.11128,-9.122 -0.80108,-22.65224 -8.87149,0.22662 -20.60179,0.49493 -32.24375,0.67259 -30.500248,0.46546 -55.25753,-0.0416 -55.261789,-1.13186 z"
       id="path25"
       inkscape:path-effect="#path-effect25"
       inkscape:original-d="m 50.362371,103.82927 88.306619,-0.34495 v 23.45645" />
    <text
       xml:space="preserve"
       style="font-size:12.7px;font-family:'Freestyle Script';-inkscape-font-specification:'Freestyle Script';text-align:center;letter-spacing:0.529167px;word-spacing:0.264583px;text-anchor:middle;fill:#000000;stroke:#000000;stroke-width:0.3;paint-order:stroke fill markers"
       x="56.226482"
       y="122.8014"
       id="text26"><tspan
         sodipodi:role="line"
         id="tspan26"
         style="stroke-width:0.3"
         x="56.491066"
         y="122.8014">N</tspan></text>
    <path
       style="fill:#000000;stroke:none;stroke-width:0.3;paint-order:stroke fill markers"
       d="m 53.905189,39.270297 c -0.0035,-1.090246 17.040395,-2.02972 38.044395,-2.097041 21.003996,-0.06732 38.053566,0.76288 38.057056,1.853126 0.003,1.090246 -17.0404,2.02972 -38.044395,2.097041 -21.004001,0.06732 -38.053562,-0.76288 -38.057056,-1.853126 z"
       id="path26"
       inkscape:path-effect="#path-effect26"
       inkscape:original-d="M 53.905189,39.270297 130.00663,39.026382" />
    <path
       style="fill:#000000;stroke:none;stroke-width:0.3;paint-order:stroke fill markers"
       d="m 66.344849,33.41634 c 1.180885,0 1.669806,4.787525 1.404973,10.329754 0,0 0,10e-7 0,10e-7 0.154819,0.0236 0.310102,0.04761 0.465358,0.07234 0.52323,0.08333 1.02116,0.170865 1.511241,0.275809 0.54006,0.151499 0.846881,0.305803 0.998959,0.258705 -0.170601,0.150217 -0.134335,0.2619 -0.194661,0.441168 0.742739,-3.249179 1.661815,-5.529212 2.381056,-5.524726 0,0 10e-7,10e-7 10e-7,10e-7 0,0 10e-7,0 10e-7,0 0,0 0,0 0,0 0,0 10e-7,0 10e-7,0 0,0 10e-7,0 10e-7,0 0,0 10e-7,0 10e-7,0 0.01886,8.33e-4 0.01884,9.13e-4 0.01877,9.09e-4 -7e-5,-4e-6 -8.5e-5,-1.07e-4 0.01877,0.0014 0,0 1e-6,0 1e-6,0 0,0 10e-7,0 10e-7,0 0,0 10e-7,0 10e-7,0 0,0 0,0 0,0 0,0 10e-7,0 10e-7,0 0,0 10e-7,0 10e-7,0 0.713604,0.08534 1.038022,2.490827 0.917566,6.182659 -0.347752,1.233434 -1.262927,2.229393 -2.63173,2.551215 -1.140577,0.134048 -2.151269,-0.0286 -2.943892,-0.319273 -0.837208,-0.519511 -1.697389,-1.071689 -2.575484,-1.647661 -0.261092,-0.171259 -0.519972,-0.342131 -0.775793,-0.511845 -1.18e-4,-7.4e-5 -1.18e-4,-7.4e-5 -1.18e-4,-7.5e-5 -0.28144,-6.964644 0.240695,-12.110414 1.404973,-12.110414 z"
       id="path27"
       inkscape:path-effect="#path-effect27"
       inkscape:original-d="m 66.344849,33.41634 v 11.220085 c 0,0 5.122212,3.170893 5.853957,0.487828 0.731745,-2.683063 0.731745,-5.853956 0.731745,-5.853956"
       transform="matrix(0.62844367,0,0,1,24.101022,0)" />
    <path
       style="fill:#000000;stroke:none;stroke-width:0.3;paint-order:stroke fill markers"
       d="m 53.905189,39.270297 c -0.0035,-1.090246 17.040395,-2.02972 38.044395,-2.097041 21.003996,-0.06732 38.053566,0.76288 38.057056,1.853126 0.003,1.090246 -17.0404,2.02972 -38.044395,2.097041 -21.004001,0.06732 -38.053562,-0.76288 -38.057056,-1.853126 z"
       id="path26-9"
       inkscape:path-effect="#path-effect26-9"
       inkscape:original-d="M 53.905189,39.270297 130.00663,39.026382"
       transform="translate(-0.12879777,18.26436)" />
    <path
       style="fill:#000000;stroke:none;stroke-width:0.3;paint-order:stroke fill markers"
       d="m 66.344849,33.41634 c 1.180885,0 1.669806,4.787525 1.404973,10.329754 0,0 0,10e-7 0,10e-7 0.154819,0.0236 0.310102,0.04761 0.465358,0.07234 0.52323,0.08333 1.02116,0.170865 1.511241,0.275809 0.54006,0.151499 0.846881,0.305803 0.998959,0.258705 -0.170601,0.150217 -0.134335,0.2619 -0.194661,0.441168 0.742739,-3.249179 1.661815,-5.529212 2.381056,-5.524726 0,0 10e-7,10e-7 10e-7,10e-7 0,0 10e-7,0 10e-7,0 0,0 0,0 0,0 0,0 10e-7,0 10e-7,0 0,0 10e-7,0 10e-7,0 0,0 10e-7,0 10e-7,0 0.01886,8.33e-4 0.01884,9.13e-4 0.01877,9.09e-4 -7e-5,-4e-6 -8.5e-5,-1.07e-4 0.01877,0.0014 0,0 1e-6,0 1e-6,0 0,0 10e-7,0 10e-7,0 0,0 10e-7,0 10e-7,0 0,0 0,0 0,0 0,0 10e-7,0 10e-7,0 0,0 10e-7,0 10e-7,0 0.713604,0.08534 1.038022,2.490827 0.917566,6.182659 -0.347752,1.233434 -1.262927,2.229393 -2.63173,2.551215 -1.140577,0.134048 -2.151269,-0.0286 -2.943892,-0.319273 -0.837208,-0.519511 -1.697389,-1.071689 -2.575484,-1.647661 -0.261092,-0.171259 -0.519972,-0.342131 -0.775793,-0.511845 -1.18e-4,-7.4e-5 -1.18e-4,-7.4e-5 -1.18e-4,-7.5e-5 -0.28144,-6.964644 0.240695,-12.110414 1.404973,-12.110414 z"
       id="path27-8"
       inkscape:path-effect="#path-effect27-3"
       inkscape:original-d="m 66.344849,33.41634 v 11.220085 c 0,0 5.122212,3.170893 5.853957,0.487828 0.731745,-2.683063 0.731745,-5.853956 0.731745,-5.853956"
       transform="matrix(0.62844367,0,0,1,23.972224,18.26436)" />
    <path
       style="fill:#000000;stroke:none;stroke-width:0.3;paint-order:stroke fill markers"
       d="m 54.636934,76.101444 c 0.381476,-0.05086 0.767142,1.338159 0.872749,3.847036 0.06302,1.417313 0.04389,2.874771 -8.2e-4,4.831295 0,0 0,2e-6 0,2e-6 -0.02644,1.184839 -0.08894,2.688933 -0.02631,3.983931 0.02741,0.406984 0.03694,0.738024 0.110401,0.935305 0.04537,0.0657 0.0081,0.009 -0.08549,-0.196626 -0.09537,-0.273142 -0.457969,-0.455866 -1.114446,-0.589336 0.638335,-0.02677 1.306027,-0.06531 2.006343,-0.09772 1.455069,-0.06827 2.989104,-0.133126 4.579045,-0.192565 0,0 3e-6,0 3e-6,0 4.092336,-0.152996 8.603653,-0.272701 13.34729,-0.34632 0.604357,0.02068 1.212403,0.04246 1.824522,0.06527 5.522327,0.20573 11.787972,0.515867 16.388734,0.730311 -0.122741,-1.842047 -0.195381,-3.576589 -0.210733,-5.231042 0.125646,-1.503238 0.225565,-2.697366 0.202099,-3.920487 -0.02096,-0.45936 -0.01057,-0.784283 -0.07554,-1.028593 -0.04258,-0.07573 0.0062,-0.05484 0.09896,0.07059 0,0 3e-6,3e-6 3e-6,3e-6 0.149781,0.185163 0.415396,0.251428 0.814023,0.243968 -0.698222,0.06821 -1.346116,0.04111 -1.859983,0.01685 -0.894818,-0.03538 -1.717732,-0.101179 -2.39208,-0.171665 -1.920997,-0.218854 -2.991434,-0.470751 -3.013559,-0.746782 0,0 0,0 0,0 0,0 0,-10e-7 0,-10e-7 0,0 0,0 0,0 0,0 0,0 0,0 0,0 0,0 0,0 0,0 0,-10e-7 0,-10e-7 0,0 0,-10e-7 0,-10e-7 -2.47e-4,-0.0083 -1.91e-4,-0.0083 -1.91e-4,-0.0082 10e-7,7.7e-5 -5.4e-5,1.37e-4 1.07e-4,-0.0082 0,0 0,-10e-7 0,-10e-7 0,0 0,-1e-6 0,-1e-6 0,0 0,0 0,0 0,0 0,0 0,0 0,0 0,0 0,0 0,0 0,-10e-7 0,-10e-7 0,0 0,0 0,0 0.01927,-0.276408 1.086484,-0.550306 2.990401,-0.808308 0.676043,-0.09811 1.454778,-0.197444 2.318498,-0.316557 0.523695,-0.07282 1.107088,-0.139685 1.572241,-0.264568 0.576511,-0.03711 1.02559,0.11272 1.301267,0.431403 0,0 5e-6,6e-6 5e-6,6e-6 0.274224,0.318212 0.426153,0.587401 0.472171,0.767667 0.22081,0.585624 0.317823,1.130738 0.374296,1.606973 0.191811,1.390546 0.231553,2.768413 0.234333,4.303663 -0.280311,2.11576 -0.636995,4.420786 -1.065443,6.928316 -4.986381,0.342668 -11.66693,0.807634 -17.903159,1.169315 -0.677896,0.03932 -1.351431,0.07751 -2.020684,0.114486 -4.749376,0.04691 -9.252534,0.04115 -13.353432,-0.01114 0,0 -10e-7,0 -2e-6,0 -1.595179,-0.02034 -3.123013,-0.04753 -4.58479,-0.08213 -0.697937,-0.01673 -1.351751,-0.02848 -2.044745,-0.05584 -0.815726,-0.13347 -1.31727,-0.427242 -1.500208,-0.832179 -0.231408,-0.413174 -0.332612,-0.715019 -0.33905,-0.890378 -0.105593,-0.640823 -0.0962,-1.178348 -0.06587,-1.596264 0.07438,-1.519313 0.302408,-3.012665 0.484388,-4.19484 0,0 0,-2e-6 0,-2e-6 0.241166,-1.586626 0.609974,-3.71755 0.784281,-4.719496 0.393477,-2.344145 0.662198,-3.708102 0.88037,-3.737192 z"
       id="path28"
       inkscape:path-effect="#path-effect28"
       inkscape:original-d="m 54.636934,76.101444 c 0.487831,3.658725 -1.46349,14.390979 -0.243914,14.390979 1.219573,0 39.026382,-0.487831 39.026382,-0.487831 0,0 1.219573,-12.195744 -0.243916,-11.95183 -1.463488,0.243917 -7.07353,0.243917 -7.07353,0.243917" />
    <path
       style="fill:#000000;stroke:none;stroke-width:0.3;paint-order:stroke markers fill"
       d="m 106.5908,77.32102 c 0.0785,0.366211 -1.92058,1.116786 -5.58033,1.175141 -0.67961,0.01282 -1.414191,0.004 -2.198014,-0.03436 -0.213836,-0.01045 -0.433349,-0.0233 -0.656926,-0.03942 0.142548,-0.171011 0.286884,-0.34469 0.432802,-0.520949 0,0 4e-6,-5e-6 4e-6,-5e-6 0.04607,-0.06088 0.07374,-0.09841 0.11981,-0.159284 -1.64e-4,4.1e-5 -1.6e-4,3.9e-5 -1.6e-4,3.9e-5 0.03549,-0.01734 0.07942,-0.03835 0.114914,-0.05569 0,0 5e-6,-3e-6 5e-6,-3e-6 0.02858,-0.01383 0.291879,-0.14118 0.320465,-0.155015 4.06e-4,0.132226 0.0018,0.266263 0.0038,0.403364 0.0067,0.466212 0.02101,0.945413 0.04278,1.442717 0.05952,1.343373 0.169697,2.824128 0.403707,4.314551 0.230263,1.378134 0.506151,2.839408 1.135361,3.978985 0.24237,0.417931 0.47388,0.77911 0.73479,0.944942 0.17459,0.129957 0.41837,0.211887 0.61532,0.193086 2.82806,-0.04091 5.56348,0.13178 8.55162,0.32598 0.6969,0.04498 1.39694,0.09233 2.1031,0.141572 2.78091,0.193898 5.40855,0.398344 8.18946,0.592242 3.24525,0.223225 5.87406,0.420216 8.63345,0.389631 0.95852,-0.01853 1.76229,-0.02514 2.49078,-0.180368 0.23112,-0.06245 0.37384,-0.07736 0.40332,-0.104161 0,0 0,0 0,0 -0.0592,-0.03927 -0.11158,0.140094 -0.26125,0.522737 1.31495,-7.647476 2.42502,-12.511997 2.93928,-12.443999 0.51426,0.068 0.32185,5.05386 -0.39604,12.780283 -0.19589,0.732538 -0.52565,1.190812 -0.88878,1.343302 0,0 -1e-5,2e-6 -1e-5,2e-6 -0.43888,0.269472 -0.83951,0.418161 -1.15956,0.49127 -1.03383,0.27812 -2.03609,0.372296 -3.01593,0.430072 -2.88543,0.190529 -5.71382,0.10154 -8.92785,-0.04625 -2.68509,-0.121716 -5.36904,-0.297335 -8.23541,-0.497219 -0.28297,-0.01973 -1.81255,-0.12761 -2.09551,-0.147342 -3.03552,-0.212668 -5.61936,-0.431092 -8.33208,-0.475061 -0.95357,-0.01931 -1.83239,-0.355079 -2.531857,-0.926886 -0.719355,-0.621366 -1.192811,-1.331987 -1.492287,-2.005537 -0.791993,-1.723919 -1.055964,-3.482854 -1.175248,-4.976686 -0.149155,-1.65786 -0.145241,-3.239 -0.07678,-4.652752 0.025,-0.523233 0.05937,-1.029868 0.10336,-1.522298 0.01293,-0.144815 0.02672,-0.288914 0.04181,-0.43296 0.01121,-0.01271 0.321785,-0.365605 0.332991,-0.378316 0,0 5e-6,-5e-6 5e-6,-5e-6 0.041,-0.0465 0.07889,-0.08988 0.119896,-0.136383 0,0 5e-6,-6e-6 5e-6,-6e-6 0.113732,-0.06518 0.134203,-0.07661 0.247771,-0.141754 0,0 7e-6,-4e-6 7e-6,-4e-6 0.26159,-0.160749 0.520969,-0.319408 0.77831,-0.475999 0.203966,0.03783 0.407536,0.07338 0.607976,0.107141 0.735298,0.123777 1.4279,0.223894 2.07247,0.307086 3.44064,0.429546 5.41499,0.299283 5.48469,0.624568 z"
       id="path29"
       inkscape:path-effect="#path-effect29"
       inkscape:original-d="m 106.5908,77.32102 c -3.4148,0.731742 -8.537017,0 -8.537017,0 0,0 -0.859793,13.047238 4.024597,13.049447 8.49766,0.0038 31.05099,2.803902 31.38281,0.29443 l 1.66766,-12.612135"
       sodipodi:nodetypes="ccssc" />
  </g>
</svg>
