<?xml version="1.0" encoding="UTF-8" standalone="no"?>
<!-- Created with Inkscape (http://www.inkscape.org/) -->

<svg
   width="960"
   height="540"
   viewBox="0 0 253.99999 142.875"
   version="1.1"
   id="svg1"
   inkscape:version="1.3.2 (091e20e, 2023-11-25, custom)"
   sodipodi:docname="main_menu.svg"
   xmlns:inkscape="http://www.inkscape.org/namespaces/inkscape"
   xmlns:sodipodi="http://sodipodi.sourceforge.net/DTD/sodipodi-0.dtd"
   xmlns="http://www.w3.org/2000/svg"
   xmlns:svg="http://www.w3.org/2000/svg">
  <sodipodi:namedview
     id="namedview1"
     pagecolor="#ffffff"
     bordercolor="#000000"
     borderopacity="0.25"
     inkscape:showpageshadow="2"
     inkscape:pageopacity="0.0"
     inkscape:pagecheckerboard="0"
     inkscape:deskcolor="#d1d1d1"
     inkscape:document-units="px"
     inkscape:zoom="1.0847363"
     inkscape:cx="478.91823"
     inkscape:cy="236.463"
     inkscape:window-width="1827"
     inkscape:window-height="1057"
     inkscape:window-x="85"
     inkscape:window-y="-8"
     inkscape:window-maximized="1"
     inkscape:current-layer="layer1" />
  <defs
     id="defs1">
    <inkscape:path-effect
       effect="skeletal"
       id="path-effect10"
       is_visible="true"
       lpeversion="1"
       pattern="M 0,4.9921382 C 0,2.2364779 2.2364779,0 4.9921382,0 c 2.7556602,0 4.9921381,2.2364779 4.9921381,4.9921382 0,2.7556602 -2.2364779,4.9921381 -4.9921381,4.9921381 C 2.2364779,9.9842763 0,7.7477984 0,4.9921382 Z"
       copytype="single_stretched"
       prop_scale="0.35"
       scale_y_rel="false"
       spacing="0"
       normal_offset="0"
       tang_offset="0"
       prop_units="false"
       vertical_pattern="false"
       hide_knot="false"
       fuse_tolerance="0" />
    <inkscape:path-effect
       effect="skeletal"
       id="path-effect9"
       is_visible="true"
       lpeversion="1"
       pattern="M 0,4.9921382 C 0,2.2364779 2.2364779,0 4.9921382,0 c 2.7556602,0 4.9921381,2.2364779 4.9921381,4.9921382 0,2.7556602 -2.2364779,4.9921381 -4.9921381,4.9921381 C 2.2364779,9.9842763 0,7.7477984 0,4.9921382 Z"
       copytype="single_stretched"
       prop_scale="0.35"
       scale_y_rel="false"
       spacing="0"
       normal_offset="0"
       tang_offset="0"
       prop_units="false"
       vertical_pattern="false"
       hide_knot="false"
       fuse_tolerance="0" />
    <inkscape:path-effect
       effect="skeletal"
       id="path-effect8"
       is_visible="true"
       lpeversion="1"
       pattern="M 0,4.9921382 C 0,2.2364779 2.2364779,0 4.9921382,0 c 2.7556602,0 4.9921381,2.2364779 4.9921381,4.9921382 0,2.7556602 -2.2364779,4.9921381 -4.9921381,4.9921381 C 2.2364779,9.9842763 0,7.7477984 0,4.9921382 Z"
       copytype="single_stretched"
       prop_scale="0.35"
       scale_y_rel="false"
       spacing="0"
       normal_offset="0"
       tang_offset="0"
       prop_units="false"
       vertical_pattern="false"
       hide_knot="false"
       fuse_tolerance="0" />
    <inkscape:path-effect
       effect="skeletal"
       id="path-effect7"
       is_visible="true"
       lpeversion="1"
       pattern="M 0,4.9921382 C 0,2.2364779 2.2364779,0 4.9921382,0 c 2.7556602,0 4.9921381,2.2364779 4.9921381,4.9921382 0,2.7556602 -2.2364779,4.9921381 -4.9921381,4.9921381 C 2.2364779,9.9842763 0,7.7477984 0,4.9921382 Z"
       copytype="single_stretched"
       prop_scale="0.35"
       scale_y_rel="false"
       spacing="0"
       normal_offset="0"
       tang_offset="0"
       prop_units="false"
       vertical_pattern="false"
       hide_knot="false"
       fuse_tolerance="0" />
    <inkscape:path-effect
       effect="skeletal"
       id="path-effect6"
       is_visible="true"
       lpeversion="1"
       pattern="M 0,4.9921382 C 0,2.2364779 2.2364779,0 4.9921382,0 c 2.7556602,0 4.9921381,2.2364779 4.9921381,4.9921382 0,2.7556602 -2.2364779,4.9921381 -4.9921381,4.9921381 C 2.2364779,9.9842763 0,7.7477984 0,4.9921382 Z"
       copytype="single_stretched"
       prop_scale="0.35"
       scale_y_rel="false"
       spacing="0"
       normal_offset="0"
       tang_offset="0"
       prop_units="false"
       vertical_pattern="false"
       hide_knot="false"
       fuse_tolerance="0" />
    <inkscape:path-effect
       effect="skeletal"
       id="path-effect5"
       is_visible="true"
       lpeversion="1"
       pattern="M 0,4.9921382 C 0,2.2364779 2.2364779,0 4.9921382,0 c 2.7556602,0 4.9921381,2.2364779 4.9921381,4.9921382 0,2.7556602 -2.2364779,4.9921381 -4.9921381,4.9921381 C 2.2364779,9.9842763 0,7.7477984 0,4.9921382 Z"
       copytype="single_stretched"
       prop_scale="0.35"
       scale_y_rel="false"
       spacing="0"
       normal_offset="0"
       tang_offset="0"
       prop_units="false"
       vertical_pattern="false"
       hide_knot="false"
       fuse_tolerance="0" />
    <inkscape:path-effect
       effect="skeletal"
       id="path-effect4"
       is_visible="true"
       lpeversion="1"
       pattern="M 0,4.9921382 C 0,2.2364779 2.2364779,0 4.9921382,0 c 2.7556602,0 4.9921381,2.2364779 4.9921381,4.9921382 0,2.7556602 -2.2364779,4.9921381 -4.9921381,4.9921381 C 2.2364779,9.9842763 0,7.7477984 0,4.9921382 Z"
       copytype="single_stretched"
       prop_scale="0.35"
       scale_y_rel="false"
       spacing="0"
       normal_offset="0"
       tang_offset="0"
       prop_units="false"
       vertical_pattern="false"
       hide_knot="false"
       fuse_tolerance="0" />
    <inkscape:path-effect
       effect="skeletal"
       id="path-effect3"
       is_visible="true"
       lpeversion="1"
       pattern="M 0,4.9921382 C 0,2.2364779 2.2364779,0 4.9921382,0 c 2.7556602,0 4.9921381,2.2364779 4.9921381,4.9921382 0,2.7556602 -2.2364779,4.9921381 -4.9921381,4.9921381 C 2.2364779,9.9842763 0,7.7477984 0,4.9921382 Z"
       copytype="single_stretched"
       prop_scale="0.35"
       scale_y_rel="false"
       spacing="0"
       normal_offset="0"
       tang_offset="0"
       prop_units="false"
       vertical_pattern="false"
       hide_knot="false"
       fuse_tolerance="0" />
    <inkscape:path-effect
       effect="skeletal"
       id="path-effect2"
       is_visible="true"
       lpeversion="1"
       pattern="M 0,4.9921382 C 0,2.2364779 2.2364779,0 4.9921382,0 c 2.7556602,0 4.9921381,2.2364779 4.9921381,4.9921382 0,2.7556602 -2.2364779,4.9921381 -4.9921381,4.9921381 C 2.2364779,9.9842763 0,7.7477984 0,4.9921382 Z"
       copytype="single_stretched"
       prop_scale="0.35"
       scale_y_rel="false"
       spacing="0"
       normal_offset="0"
       tang_offset="0"
       prop_units="false"
       vertical_pattern="false"
       hide_knot="false"
       fuse_tolerance="0" />
    <inkscape:path-effect
       effect="skeletal"
       id="path-effect1"
       is_visible="true"
       lpeversion="1"
       pattern="M 0,4.9921382 C 0,2.2364779 2.2364779,0 4.9921382,0 c 2.7556602,0 4.9921381,2.2364779 4.9921381,4.9921382 0,2.7556602 -2.2364779,4.9921381 -4.9921381,4.9921381 C 2.2364779,9.9842763 0,7.7477984 0,4.9921382 Z"
       copytype="single_stretched"
       prop_scale="0.35464173"
       scale_y_rel="false"
       spacing="0"
       normal_offset="0"
       tang_offset="0"
       prop_units="false"
       vertical_pattern="false"
       hide_knot="false"
       fuse_tolerance="0" />
    <inkscape:path-effect
       effect="skeletal"
       id="path-effect1-5"
       is_visible="true"
       lpeversion="1"
       pattern="M 0,4.9921382 C 0,2.2364779 2.2364779,0 4.9921382,0 c 2.7556602,0 4.9921381,2.2364779 4.9921381,4.9921382 0,2.7556602 -2.2364779,4.9921381 -4.9921381,4.9921381 C 2.2364779,9.9842763 0,7.7477984 0,4.9921382 Z"
       copytype="single_stretched"
       prop_scale="0.35464173"
       scale_y_rel="false"
       spacing="0"
       normal_offset="0"
       tang_offset="0"
       prop_units="false"
       vertical_pattern="false"
       hide_knot="false"
       fuse_tolerance="0" />
  </defs>
  <g
     inkscape:label="Layer 1"
     inkscape:groupmode="layer"
     id="layer1">
    <path
       style="fill:#000000;stroke-width:0.264583;stroke:none;fill-opacity:1"
       d="m 3.794425,4.4843205 c 0.7857224,0 1.2102398,56.2697165 0.8398892,133.3494695 0,0 -1e-7,1e-5 -1e-7,1e-5 -4.68725641,-0.004 60.4111019,0.0804 55.7238459,0.0766 104.54538,0.21593 189.38942,1.17392 189.38401,2.13839 -0.005,0.96447 -85.45975,0.96707 -190.74629,0.006 -3.342091,-0.0305 -52.699253,-0.51991 -56.0413441,-0.55042 0,0 -1e-7,-1e-5 -1e-7,-1e-5 C 2.5841852,61.237959 3.0087026,4.4843205 3.794425,4.4843205 Z"
       id="path1"
       inkscape:path-effect="#path-effect1"
       inkscape:original-d="M 3.794425,4.4843205 V 138.66899 l 245.947735,1.37979" />
    <path
       style="fill:#000000;fill-opacity:1;stroke:none;stroke-width:0.264583"
       d="m 3.794425,4.4843205 c 0.7961427,0 1.2262901,56.2665075 0.8510279,133.3383895 0,0 -1e-7,1e-5 -1e-7,1e-5 -4.68777619,-0.003 60.4095162,0.0769 55.7217402,0.0735 104.540467,0.21098 189.380457,1.17535 189.374977,2.15261 -0.005,0.97726 -85.46387,0.98624 -190.755323,0.02 -3.341953,-0.0307 -52.7014974,-0.5229 -56.0434498,-0.55356 0,0 -1e-7,-2e-5 -1e-7,-2e-5 C 2.5681349,61.241168 2.9982823,4.4843205 3.794425,4.4843205 Z"
       id="path1-2"
       inkscape:path-effect="#path-effect1-5"
       inkscape:original-d="M 3.794425,4.4843205 V 138.66899 l 245.947735,1.37979"
       transform="rotate(180,127.49006,71.290177)" />
    <text
       xml:space="preserve"
       style="font-style:normal;font-variant:normal;font-weight:normal;font-stretch:normal;font-size:12.7px;font-family:'Freestyle Script';-inkscape-font-specification:'Freestyle Script';text-align:center;letter-spacing:0.529167px;word-spacing:0.264583px;text-anchor:middle;fill:#000000;fill-opacity:1;stroke:#000000;stroke-width:0.3;stroke-dasharray:none;stroke-opacity:1"
       x="129.14563"
       y="25.87108"
       id="text1"><tspan
         sodipodi:role="line"
         id="tspan1"
         style="font-style:normal;font-variant:normal;font-weight:normal;font-stretch:normal;font-size:12.7px;font-family:'Freestyle Script';-inkscape-font-specification:'Freestyle Script';text-align:center;letter-spacing:0.529167px;word-spacing:0.264583px;text-anchor:middle;stroke:#000000;stroke-width:0.3;stroke-dasharray:none;stroke-opacity:1"
         x="129.14563"
         y="25.87108">A. Dice Duels:</tspan><tspan
         sodipodi:role="line"
         style="font-style:normal;font-variant:normal;font-weight:normal;font-stretch:normal;font-size:12.7px;font-family:'Freestyle Script';-inkscape-font-specification:'Freestyle Script';text-align:center;letter-spacing:0.529167px;word-spacing:0.264583px;text-anchor:middle;stroke:#000000;stroke-width:0.3;stroke-dasharray:none;stroke-opacity:1"
         x="129.41022"
         y="41.746078"
         id="tspan2">Duel of the Eights</tspan></text>
    <path
       style="fill:#000000;fill-opacity:1;stroke:none;stroke-width:0.3;stroke-dasharray:none;stroke-opacity:1;paint-order:stroke fill markers"
       d="m 96.585285,11.728255 c 0.103632,0.202414 -1.414363,1.223753 -4.242335,2.894623 -10e-7,0 -10e-7,0 -2e-6,10e-7 -0.862263,0.618239 -1.958096,1.444271 -2.782613,2.436965 -0.534298,0.696284 -1.118756,1.538895 -0.974342,2.215099 10e-7,0 0,1e-6 0,2e-6 0.355014,4.479535 0.577055,9.407085 0.732553,15.649194 0.05807,2.320535 0.109266,4.879652 0.07941,7.447778 -0.0081,0.76051 -0.0209,1.568203 -0.0801,2.399388 0,0 0,5e-6 0,5e-6 -0.01331,0.220714 -0.03748,0.492637 -0.09391,0.811633 -0.369644,-0.241418 -0.771251,-0.40993 -1.213826,-0.508397 0,0 -3.6e-5,-8e-6 -3.6e-5,-8e-6 -0.064,-0.08588 -0.134431,-0.161984 -0.227332,-0.261271 -0.05052,-0.125455 -0.08915,-0.238344 -0.134272,-0.345627 -0.07954,-0.189108 -0.170068,-0.361415 -0.275688,-0.523503 0.295195,-0.08446 0.534898,-0.128411 0.712334,-0.151718 0,0 5e-6,-1e-6 5e-6,-1e-6 0.681421,-0.104126 1.330349,-0.155043 1.950259,-0.198506 2.189019,-0.158 4.350291,-0.222915 6.612625,-0.28148 6.788388,-0.176833 13.626618,-0.192815 21.143448,-0.15996 1.36918,0.006 2.74824,0.01384 4.13649,0.02372 15.58198,0.110876 29.69818,0.454983 41.60962,0.922644 1.44844,0.08231 2.95365,-0.471997 4.21601,-1.242286 l 0,0 c 1.19451,-0.865327 2.21458,-1.843816 2.11274,-2.82409 l 0,0 c 0.0493,-5.355075 0.0855,-9.246857 0.18389,-12.878011 l 0,0 c 0.0669,-2.466837 0.14942,-4.364707 0.25701,-5.770921 l 0,0 c 0.0592,-0.77358 0.12182,-1.349211 0.19459,-1.76403 l 0,-1e-6 c 0.0376,-0.213678 0.0748,-0.370696 0.1164,-0.482413 l 0,0 c 0,0 0,-10e-7 0,-10e-7 0.0212,-0.05827 0.0413,-0.100458 0.0634,-0.129198 l 0,0 c 0,0 0,0 0,0 -0.0182,0.0015 0.0259,-0.03073 0.0399,-0.039 0.0213,-0.01263 0.0276,-0.0074 0.0276,0.0032 0,0.0096 -0.003,0.02086 0.0203,0.02469 0.0148,0.0024 0.0505,-0.001 0.0337,0.02465 0,0 0,10e-7 0,10e-7 l 0,0 c 0.0169,0.027 0.0367,0.06922 0.0546,0.120405 0,0 0,0 0,0 l 0,0 c 0.035,0.104516 0.0743,0.269843 0.11184,0.476263 l 0,0 c 0.0716,0.392177 0.15205,1.001692 0.23098,1.752772 l 0,0 c 0.14142,1.344722 0.30089,3.346475 0.45773,5.753007 l 0,0 c 0.21052,3.228886 0.46809,7.901393 0.66358,12.871508 l 0,0 c -0.0533,2.192838 -1.37589,4.036033 -3.09543,5.093604 l 0,0 c -1.5604,1.092094 -3.55386,1.878253 -5.75354,1.878346 -7.4421,-0.04346 -34.12769,-0.253297 -41.56979,-0.296755 -0.17774,-0.0013 -3.95376,-0.02797 -4.1315,-0.02923 -7.64199,-0.05367 -14.19034,-0.107931 -21.067073,-0.05044 -2.262398,0.01938 -4.368025,0.03831 -6.47784,0.142201 -0.613876,0.03171 -1.176657,0.05899 -1.699213,0.128378 0,0 -5e-6,10e-7 -5e-6,10e-7 -0.156424,0.02481 -0.250229,0.03236 -0.276945,0.04333 -0.199075,-0.134379 -0.382894,-0.275867 -0.547538,-0.417713 -0.09342,-0.08048 -0.183606,-0.160861 -0.252265,-0.234202 -0.03552,-0.114924 -0.08226,-0.259386 -0.124314,-0.40047 0,0 -3.2e-5,-1.7e-5 -3.2e-5,-1.7e-5 -0.397797,-0.211228 -0.774107,-0.499125 -1.120517,-0.859415 0.02695,-0.107666 0.04166,-0.270075 0.06482,-0.47987 0,0 1e-6,-4e-6 1e-6,-4e-6 0.07173,-0.714451 0.103067,-1.464635 0.134369,-2.219118 0.101711,-2.495127 0.135343,-5.049702 0.164855,-7.353056 0.08303,-6.538904 0.113457,-10.809326 0.07757,-15.581782 10e-7,-10e-7 10e-7,-2e-6 2e-6,-3e-6 0.04841,-1.569087 0.891683,-2.725911 1.676411,-3.448459 1.125018,-1.104155 2.397698,-1.875165 3.384718,-2.408349 10e-7,0 10e-7,0 2e-6,0 3.055961,-1.3415 4.773029,-1.976617 4.876695,-1.774135 z"
       id="path2"
       inkscape:path-effect="#path-effect2"
       inkscape:original-d="m 96.585364,11.728223 c 0,0 -9.138691,3.676379 -8.968639,7.58885 0.297452,6.843649 0.575855,26.058976 0,26.216027 0.424009,-1.219026 54.719275,-0.477444 75.888495,0 3.12707,0.07053 7.63605,-2.391652 7.58886,-5.519163 -0.0947,-6.276942 -0.4299,-21.041812 -0.34495,-21.041812"
       sodipodi:nodetypes="cscssc" />
    <text
       xml:space="preserve"
       style="font-style:normal;font-variant:normal;font-weight:normal;font-stretch:normal;font-size:12.7px;font-family:'Freestyle Script';-inkscape-font-specification:'Freestyle Script';text-align:center;letter-spacing:0.529167px;word-spacing:0.264583px;text-anchor:middle;fill:#000000;fill-opacity:1;stroke:#000000;stroke-width:0.3;stroke-dasharray:none;stroke-opacity:1;paint-order:stroke fill markers"
       x="34.148083"
       y="51.709953"
       id="text3"><tspan
         sodipodi:role="line"
         id="tspan3"
         style="stroke-width:0.3"
         x="34.412666"
         y="51.709953">B. Menu</tspan></text>
    <path
       style="fill:#000000;fill-opacity:1;stroke:none;stroke-width:0.3;stroke-dasharray:none;stroke-opacity:1;paint-order:stroke fill markers"
       d="m 12.195744,40.002041 c 0.477096,-0.01633 1.328648,10.005978 1.261806,26.155294 -0.07695,18.590792 -1.14602,35.983265 -2.824439,63.052175 l 0,0 c -0.01829,-0.0512 -0.02517,-0.10028 -0.03235,-0.14464 -0.01274,-0.0787 -0.02511,-0.14944 -0.04146,-0.21821 -0.06106,-0.25674 -0.169394,-0.48147 -0.329985,-0.69154 0.474311,-0.0398 0.898379,-0.0415 1.27045,-0.0383 1.8e-4,0 0.01919,1.7e-4 0.01937,1.7e-4 1.441979,0.005 2.862,0.0685 4.23602,0.12778 l 0,0 c 4.245048,0.1818 9.483524,0.46432 13.728573,0.64612 l 0,0 c 5.818832,0.25427 11.217919,0.43986 16.577066,0.47137 0,0 7e-6,0 7e-6,0 5.154133,0.0266 9.708974,-0.0142 14.231826,-0.57396 l 0,0 2e-6,1e-5 0,0 c 0.290192,0.0643 0.691935,-0.38026 1.093914,-0.855 l 0,0 c 0.381732,-0.58882 0.637686,-1.23129 0.627473,-1.81233 l 0,0 c 0.01801,-8.88444 0.269638,-17.42993 0.491515,-23.19253 0,0 0,-1e-5 0,-1e-5 l 0,0 c 0.162077,-4.210865 0.334538,-7.451836 0.52267,-9.85707 l 0,0 c 0.102278,-1.307286 0.200651,-2.266913 0.30725,-2.968502 l 0,0 c 0.05451,-0.358359 0.105735,-0.616819 0.161381,-0.803458 l 0,0 c 0,0 0,0 0,0 0.02972,-0.10091 0.05606,-0.17032 0.08418,-0.216964 l 0,0 c 0,0 0,0 0,0 -0.0072,-0.02613 0.03835,-0.05381 0.05465,-0.06149 0.01018,-0.0048 0.01707,-0.0064 0.02114,-0.0054 0.0045,0.0012 0.0061,0.0058 0.005,0.01337 -8.87e-4,0.0062 -0.0039,0.01242 -0.0016,0.02147 0.0018,0.0071 0.0063,0.01369 0.01444,0.02064 0.01331,0.01134 0.05084,0.0278 0.04104,0.04357 0,0 -1e-6,0 -1e-6,0 l 0,0 c 0.01645,0.04442 0.03758,0.118454 0.05613,0.199084 0,0 0,1e-6 0,1e-6 l 0,0 c 0.03335,0.173773 0.07019,0.45936 0.102634,0.804627 l 0,0 c 0.06171,0.654644 0.127249,1.710139 0.184457,2.969922 l 0,0 c 0.103559,2.27855 0.206616,5.773518 0.298145,9.855084 l 0,0 0,0 0,0 c 0.136742,6.09678 0.223317,13.96897 0.464722,23.14366 l 0,0 c 0.012,1.253 -0.369946,2.44442 -1.026764,3.43252 l 0,0 c -0.562655,0.99021 -1.610968,1.88639 -3.105797,2.19325 l 0,0 c 0,0 -1e-5,1e-5 -1e-5,1e-5 l 0,0 c -4.723615,0.69386 -9.444749,0.83951 -14.622163,0.88587 0,0 -6e-6,0 -6e-6,0 -5.412645,0.052 -10.888302,-0.072 -16.720028,-0.28306 l 0,0 c -4.484864,-0.16216 -9.072235,-0.39122 -13.738166,-0.58297 l 0,0 c -1.379909,-0.0563 -2.755683,-0.11751 -4.100513,-0.12113 -2.15e-4,0 -0.01912,5e-5 -0.01933,5e-5 -0.369524,9.4e-4 -0.68585,-0.002 -0.948071,0.0239 -0.355957,-0.19258 -0.6610916,-0.39905 -0.910613,-0.60196 -0.066841,-0.0544 -0.1302954,-0.10879 -0.1859945,-0.15731 -0.031399,-0.0274 -0.06075,-0.0507 -0.076358,-0.0724 l 0,0 C 10.503668,99.599683 11.056151,88.931502 11.463606,66.492089 11.761466,50.088291 11.718648,40.018374 12.195744,40.002041 Z"
       id="path3"
       inkscape:path-effect="#path-effect3"
       inkscape:original-d="m 12.195744,40.002041 c 1.042265,30.445032 -0.732047,60.185919 -2.195234,90.004589 -0.075649,-0.83214 35.018401,2.3418 50.49038,0.24391 1.676505,-0.22732 2.947466,-2.45483 2.92698,-4.14655 -0.149288,-12.32814 0.103707,-37.09509 0.243914,-37.07506"
       sodipodi:nodetypes="ccssc" />
    <path
       style="fill:#000000;fill-opacity:1;stroke:none;stroke-width:0.3;stroke-dasharray:none;stroke-opacity:1;paint-order:stroke fill markers"
       d="m 52.685613,58.051742 c 0,0.129385 -0.197677,0.240914 -0.568699,0.351349 0,0 0,0 0,0 -0.305329,0.08933 -0.72655,0.171834 -1.256547,0.248053 -1.022196,0.146971 -2.435353,0.268202 -4.175885,0.362107 -3.164158,0.170694 -7.376103,0.248723 -12.204127,0.217042 -2.468509,-0.0162 -5.094487,-0.06116 -7.817557,-0.1373 -1.428595,-0.03995 -2.830157,-0.08697 -4.195845,-0.140215 -1.351228,-0.05268 -2.667294,-0.111448 -3.939778,-0.175495 l 0,0 -2e-6,-10e-7 0,0 c -0.37191,-0.01872 -0.740096,-0.03789 -1.104343,-0.05749 l 0,0 3e-6,-5e-6 0,0 c 0.182999,-0.278147 0.364176,-0.554279 0.543475,-0.82834 l 0,0 -2e-6,0 c 8.5e-5,1.6e-5 -0.07661,-0.01401 -0.07653,-0.014 -0.0086,-0.0016 -0.01831,-0.0033 -0.02691,-0.0049 -0.04976,3.791701 -0.143071,7.18804 -0.268122,9.902915 2.720066,-0.179992 4.60151,0.103895 4.60151,0.520704 0,0.413921 -1.927732,0.703584 -5.642914,0.520704 -0.125526,-2.992537 -0.218111,-7.311582 -0.268098,-12.537252 0.0091,-0.0012 0.01729,-0.0022 0.02635,-0.0034 9.7e-5,-1.3e-5 0.07477,-0.0097 0.07487,-0.0097 l 2e-6,0 0,0 c 0.0041,-0.0029 1.124188,-0.80896 1.12825,-0.811879 l 0,0 7e-6,-6e-6 0,0 c 0.364733,9.13e-4 0.733381,0.0025 1.10573,0.0047 l 0,0 2e-6,0 0,0 c 1.273941,0.0075 2.59123,0.0227 3.943164,0.04581 1.366457,0.02336 2.768355,0.05484 4.196856,0.09479 2.722559,0.07613 5.347382,0.17754 7.812438,0.298375 4.813142,0.235935 9.031177,0.547007 12.171777,0.887368 1.728102,0.187272 3.140575,0.384717 4.148565,0.582967 0.523623,0.102967 0.941871,0.20701 1.240511,0.309929 0,0 0,0 0,0 0.363184,0.123082 0.55185,0.254346 0.55185,0.373242 z"
       id="path4"
       inkscape:path-effect="#path-effect4"
       inkscape:original-d="m 52.685613,58.051742 c -0.975659,0 -35.611571,-0.975659 -35.611571,-0.975659 v 11.220084 h 5.122212" />
    <path
       style="fill:#000000;fill-opacity:1;stroke:none;stroke-width:0.3;stroke-dasharray:none;stroke-opacity:1;paint-order:stroke fill markers"
       d="m 46.587743,71.467061 c 0.0078,0.89722 -12.103537,1.672627 -27.622918,1.863859 -0.43997,0.123247 -0.880858,0.242709 -1.327722,0.361497 -0.02763,0.643015 -0.05666,1.290097 -0.08692,1.942763 -0.117068,2.524353 -0.25022,5.073205 -0.373752,7.428941 0,0 3e-6,0 3e-6,0 13.322998,-0.524589 23.305323,-0.205645 23.313447,0.598684 0.0081,0.804329 -10.476956,1.330014 -24.981708,1.086512 0,0 -2e-6,0 -2e-6,0 -0.124243,-3.118888 -0.255973,-6.530767 -0.373752,-9.960947 -0.03026,-0.881446 -0.05929,-1.754745 -0.08692,-2.619691 1.033921,-0.703802 2.054749,-1.396538 3.062746,-2.077649 16.201048,-0.08405 28.469699,0.47826 28.477506,1.376031 z"
       id="path5"
       inkscape:path-effect="#path-effect5"
       inkscape:original-d="m 46.587743,71.467061 -28.050212,0.243914 -2.195234,1.219573 V 83.906719 L 40.48987,83.662805" />
    <path
       style="fill:#000000;fill-opacity:1;stroke:none;stroke-width:0.3;stroke-dasharray:none;stroke-opacity:1;paint-order:stroke fill markers"
       d="m 54.636934,92.443741 c -0.255493,0.11923 -1.084458,-1.085557 -2.057978,-3.112309 -6.885542,0.362765 -19.373256,0.414575 -34.496752,0.189192 -0.0013,-1.9e-5 -0.632388,-0.0096 -0.633692,-0.0096 -0.164116,3.379095 -0.332448,6.554518 -0.535973,9.668828 -0.04157,0.09961 -0.07991,0.202055 -0.114548,0.308005 14.960451,-0.194352 25.880129,0.242987 25.88712,1.005048 0.007,0.76206 -11.291233,1.40324 -27.286338,1.49289 -0.06352,-0.0858 -1.514522,-2.045348 -1.578038,-2.131157 0.575433,-3.898081 1.21373,-7.978764 1.903177,-12.283508 -0.0013,10e-7 0.69544,-6.65e-4 0.694102,-6.64e-4 16.737475,-0.0128 30.27795,0.216187 36.862091,0.66811 1.213041,2.659226 1.612508,4.085823 1.356829,4.20514 z"
       id="path6"
       inkscape:path-effect="#path-effect6"
       inkscape:original-d="M 54.636934,92.443741 52.92953,88.785016 16.586212,88.541102 15.366637,99.51727 l 0.731745,1.21958 26.586722,-0.24392" />
    <path
       style="fill:#000000;fill-opacity:1;stroke:none;stroke-width:0.3;stroke-dasharray:none;stroke-opacity:1;paint-order:stroke fill markers"
       d="m 47.075571,106.10297 c -0.0083,1.03404 -11.308764,1.52218 -24.925094,1.25093 -1.666164,-0.0332 -3.301461,-0.0753 -4.885601,-0.12383 -0.20901,0.38323 -0.420701,0.76161 -0.639476,1.14006 -0.668905,3.80089 -1.121915,6.29073 -1.615236,9.3511 0,0 2e-6,0 2e-6,0 4.086935,-0.25993 6.942177,0.0455 6.942178,0.57748 1e-6,0.48534 -2.97201,0.84004 -8.180551,0.5775 0,0 -1e-6,0 -1e-6,0 -0.03789,-3.50284 -0.113859,-8.12274 -0.151749,-11.62558 0.738654,-0.89816 1.501996,-1.81974 2.287505,-2.76258 1.640054,-0.0228 3.344795,-0.0381 5.090063,-0.044 14.537381,-0.0492 26.086207,0.62804 26.07796,1.65894 z"
       id="path7"
       inkscape:path-effect="#path-effect7"
       inkscape:original-d="m 47.075571,106.10297 -30.489359,-0.24391 -1.46349,1.95132 -0.731744,10.48834 7.561361,-1e-5"
       sodipodi:nodetypes="ccccc" />
    <path
       style="fill:#000000;fill-opacity:1;stroke:none;stroke-width:0.3;stroke-dasharray:none;stroke-opacity:1;paint-order:stroke fill markers"
       d="m 14.878808,123.90876 c 0,-1.06875 3.330106,-1.53645 7.681756,-1.26099 2.435259,0.15416 4.689668,0.48623 5.773707,0.73301 0.188028,1.42223 -0.108769,1.99148 -0.527976,1.99148 -0.433538,0 -0.701674,-0.52121 -0.527976,-0.93552 -1.340095,0.24023 -3.653664,0.5854 -5.690281,0.73301 -3.592174,0.26034 -6.70923,-0.17712 -6.70923,-1.26099 z"
       id="path8"
       inkscape:path-effect="#path-effect8"
       inkscape:original-d="m 14.878808,123.90876 h 12.927487 v 1.46349" />
    <path
       style="fill:#000000;fill-opacity:1;stroke:none;stroke-width:0.3;stroke-dasharray:none;stroke-opacity:1;paint-order:stroke fill markers"
       d="m 36.099403,124.39659 c 0.02894,-1.01301 5.69355,-1.49122 12.403533,-1.18766 1.426484,0.0645 2.81178,0.15731 4.110807,0.26772 0.277407,0.24489 0.549833,0.46234 0.820605,0.64594 -3.82313,-0.1206 -6.498654,-1.00125 -6.358778,-1.67732 0.139876,-0.67607 3.237816,-0.36221 7.788288,1.24966 -0.361808,0.8166 -0.737265,1.6811 -1.130713,2.59726 -1.350556,0.0347 -2.824907,0.0458 -4.36361,0.0256 -7.46198,-0.0978 -13.298975,-0.91169 -13.270132,-1.92119 z"
       id="path9"
       inkscape:path-effect="#path-effect9"
       inkscape:original-d="m 36.099403,124.39659 17.074041,0.48783 0.975659,-0.97566 -7.073532,-1.46349" />
    <text
       xml:space="preserve"
       style="font-style:normal;font-variant:normal;font-weight:normal;font-stretch:normal;font-size:12.7px;font-family:'Freestyle Script';-inkscape-font-specification:'Freestyle Script';text-align:center;letter-spacing:0.529167px;word-spacing:0.264583px;text-anchor:middle;fill:#000000;fill-opacity:1;stroke:#000000;stroke-width:0.3;stroke-dasharray:none;stroke-opacity:1;paint-order:stroke fill markers"
       x="235.62177"
       y="19.513191"
       id="text9"><tspan
         sodipodi:role="line"
         id="tspan9"
         style="stroke-width:0.3"
         x="235.88635"
         y="19.513191">C</tspan></text>
    <path
       style="fill:#000000;fill-opacity:1;stroke:none;stroke-width:0.3;stroke-dasharray:none;stroke-opacity:1;paint-order:stroke fill markers"
       d="m 244.89054,11.707914 c -0.33406,0.02386 -0.67493,-1.186901 -0.68069,-2.9457253 -2.88846,0.2291945 -9.68411,0.6965988 -15.30317,0.9851162 -0.11795,0.1341106 -0.23366,0.2645841 -0.34853,0.3926681 -0.0384,1.145819 -0.0843,2.311318 -0.1369,3.499816 -0.11642,2.628351 -0.25861,5.194525 -0.40546,7.583994 2.43074,1.020242 5.0759,1.205055 7.3003,1.102152 4.74686,0.138435 8.02319,-0.384283 8.11097,0.114233 0.0878,0.498516 -2.73811,1.894641 -8.00522,2.446603 -2.7519,0.102544 -6.2308,-0.413609 -9.75595,-2.205876 -0.0433,-2.900462 -0.0719,-6.11309 -0.0721,-9.419582 -9e-5,-1.491708 0.006,-2.95305 0.0175,-4.3759256 0.70766,-0.694435 1.40545,-1.3774693 2.09063,-2.0464803 7.3062,0.310438 14.29996,0.734001 17.38141,0.9851162 0.30624,2.5835327 0.13939,3.8601587 -0.19285,3.8838907 z"
       id="path10"
       inkscape:path-effect="#path-effect10"
       inkscape:original-d="m 244.89054,11.707914 -0.24392,-3.414808 h -16.34229 l -1.21958,1.2195744 -0.24391,12.4396586 c 5.97151,2.819236 11.24141,1.428859 16.58621,0.48783"
       sodipodi:nodetypes="cccccc" />
  </g>
</svg>
