<?xml version="1.0" encoding="UTF-8" standalone="no"?>
<!-- Created with Inkscape (http://www.inkscape.org/) -->

<svg
   width="960"
   height="540"
   viewBox="0 0 253.99999 142.875"
   version="1.1"
   id="svg1"
   inkscape:version="1.3.2 (091e20e, 2023-11-25, custom)"
   sodipodi:docname="settings.svg"
   xmlns:inkscape="http://www.inkscape.org/namespaces/inkscape"
   xmlns:sodipodi="http://sodipodi.sourceforge.net/DTD/sodipodi-0.dtd"
   xmlns="http://www.w3.org/2000/svg"
   xmlns:svg="http://www.w3.org/2000/svg">
  <sodipodi:namedview
     id="namedview1"
     pagecolor="#ffffff"
     bordercolor="#000000"
     borderopacity="0.25"
     inkscape:showpageshadow="2"
     inkscape:pageopacity="0.0"
     inkscape:pagecheckerboard="0"
     inkscape:deskcolor="#d1d1d1"
     inkscape:document-units="px"
     inkscape:zoom="0.76702439"
     inkscape:cx="625.79496"
     inkscape:cy="145.36695"
     inkscape:window-width="1827"
     inkscape:window-height="1057"
     inkscape:window-x="85"
     inkscape:window-y="-8"
     inkscape:window-maximized="1"
     inkscape:current-layer="layer1" />
  <defs
     id="defs1">
    <inkscape:path-effect
       effect="skeletal"
       id="path-effect19"
       is_visible="true"
       lpeversion="1"
       pattern="M 0,4.9921382 C 0,2.2364779 2.2364779,0 4.9921382,0 c 2.7556602,0 4.9921381,2.2364779 4.9921381,4.9921382 0,2.7556602 -2.2364779,4.9921381 -4.9921381,4.9921381 C 2.2364779,9.9842763 0,7.7477984 0,4.9921382 Z"
       copytype="single_stretched"
       prop_scale="0.39564074"
       scale_y_rel="false"
       spacing="0"
       normal_offset="0"
       tang_offset="0"
       prop_units="false"
       vertical_pattern="false"
       hide_knot="false"
       fuse_tolerance="0" />
    <inkscape:path-effect
       effect="skeletal"
       id="path-effect18"
       is_visible="true"
       lpeversion="1"
       pattern="M 0,4.9921382 C 0,2.2364779 2.2364779,0 4.9921382,0 c 2.7556602,0 4.9921381,2.2364779 4.9921381,4.9921382 0,2.7556602 -2.2364779,4.9921381 -4.9921381,4.9921381 C 2.2364779,9.9842763 0,7.7477984 0,4.9921382 Z"
       copytype="single_stretched"
       prop_scale="0.39564074"
       scale_y_rel="false"
       spacing="0"
       normal_offset="0"
       tang_offset="0"
       prop_units="false"
       vertical_pattern="false"
       hide_knot="false"
       fuse_tolerance="0" />
    <inkscape:path-effect
       effect="skeletal"
       id="path-effect17"
       is_visible="true"
       lpeversion="1"
       pattern="M 0,4.9921382 C 0,2.2364779 2.2364779,0 4.9921382,0 c 2.7556602,0 4.9921381,2.2364779 4.9921381,4.9921382 0,2.7556602 -2.2364779,4.9921381 -4.9921381,4.9921381 C 2.2364779,9.9842763 0,7.7477984 0,4.9921382 Z"
       copytype="single_stretched"
       prop_scale="0.39564074"
       scale_y_rel="false"
       spacing="0"
       normal_offset="0"
       tang_offset="0"
       prop_units="false"
       vertical_pattern="false"
       hide_knot="false"
       fuse_tolerance="0" />
    <inkscape:path-effect
       effect="skeletal"
       id="path-effect16"
       is_visible="true"
       lpeversion="1"
       pattern="M 0,4.9921382 C 0,2.2364779 2.2364779,0 4.9921382,0 c 2.7556602,0 4.9921381,2.2364779 4.9921381,4.9921382 0,2.7556602 -2.2364779,4.9921381 -4.9921381,4.9921381 C 2.2364779,9.9842763 0,7.7477984 0,4.9921382 Z"
       copytype="single_stretched"
       prop_scale="0.39564074"
       scale_y_rel="false"
       spacing="0"
       normal_offset="0"
       tang_offset="0"
       prop_units="false"
       vertical_pattern="false"
       hide_knot="false"
       fuse_tolerance="0" />
    <inkscape:path-effect
       effect="skeletal"
       id="path-effect15"
       is_visible="true"
       lpeversion="1"
       pattern="M 0,4.9921382 C 0,2.2364779 2.2364779,0 4.9921382,0 c 2.7556602,0 4.9921381,2.2364779 4.9921381,4.9921382 0,2.7556602 -2.2364779,4.9921381 -4.9921381,4.9921381 C 2.2364779,9.9842763 0,7.7477984 0,4.9921382 Z"
       copytype="single_stretched"
       prop_scale="0.39564074"
       scale_y_rel="false"
       spacing="0"
       normal_offset="0"
       tang_offset="0"
       prop_units="false"
       vertical_pattern="false"
       hide_knot="false"
       fuse_tolerance="0" />
    <inkscape:path-effect
       effect="skeletal"
       id="path-effect14"
       is_visible="true"
       lpeversion="1"
       pattern="M 0,4.9921382 C 0,2.2364779 2.2364779,0 4.9921382,0 c 2.7556602,0 4.9921381,2.2364779 4.9921381,4.9921382 0,2.7556602 -2.2364779,4.9921381 -4.9921381,4.9921381 C 2.2364779,9.9842763 0,7.7477984 0,4.9921382 Z"
       copytype="single_stretched"
       prop_scale="0.35"
       scale_y_rel="false"
       spacing="0"
       normal_offset="0"
       tang_offset="0"
       prop_units="false"
       vertical_pattern="false"
       hide_knot="false"
       fuse_tolerance="0" />
    <inkscape:path-effect
       effect="skeletal"
       id="path-effect13"
       is_visible="true"
       lpeversion="1"
       pattern="M 0,4.9921382 C 0,2.2364779 2.2364779,0 4.9921382,0 c 2.7556602,0 4.9921381,2.2364779 4.9921381,4.9921382 0,2.7556602 -2.2364779,4.9921381 -4.9921381,4.9921381 C 2.2364779,9.9842763 0,7.7477984 0,4.9921382 Z"
       copytype="single_stretched"
       prop_scale="0.35"
       scale_y_rel="false"
       spacing="0"
       normal_offset="0"
       tang_offset="0"
       prop_units="false"
       vertical_pattern="false"
       hide_knot="false"
       fuse_tolerance="0" />
    <inkscape:path-effect
       effect="skeletal"
       id="path-effect12"
       is_visible="true"
       lpeversion="1"
       pattern="M 0,4.9921382 C 0,2.2364779 2.2364779,0 4.9921382,0 c 2.7556602,0 4.9921381,2.2364779 4.9921381,4.9921382 0,2.7556602 -2.2364779,4.9921381 -4.9921381,4.9921381 C 2.2364779,9.9842763 0,7.7477984 0,4.9921382 Z"
       copytype="single_stretched"
       prop_scale="0.35"
       scale_y_rel="false"
       spacing="0"
       normal_offset="0"
       tang_offset="0"
       prop_units="false"
       vertical_pattern="false"
       hide_knot="false"
       fuse_tolerance="0" />
    <inkscape:path-effect
       effect="skeletal"
       id="path-effect11"
       is_visible="true"
       lpeversion="1"
       pattern="M 0,4.9921382 C 0,2.2364779 2.2364779,0 4.9921382,0 c 2.7556602,0 4.9921381,2.2364779 4.9921381,4.9921382 0,2.7556602 -2.2364779,4.9921381 -4.9921381,4.9921381 C 2.2364779,9.9842763 0,7.7477984 0,4.9921382 Z"
       copytype="single_stretched"
       prop_scale="0.35"
       scale_y_rel="false"
       spacing="0"
       normal_offset="0"
       tang_offset="0"
       prop_units="false"
       vertical_pattern="false"
       hide_knot="false"
       fuse_tolerance="0" />
    <inkscape:path-effect
       effect="skeletal"
       id="path-effect10"
       is_visible="true"
       lpeversion="1"
       pattern="M 0,4.9921382 C 0,2.2364779 2.2364779,0 4.9921382,0 c 2.7556602,0 4.9921381,2.2364779 4.9921381,4.9921382 0,2.7556602 -2.2364779,4.9921381 -4.9921381,4.9921381 C 2.2364779,9.9842763 0,7.7477984 0,4.9921382 Z"
       copytype="single_stretched"
       prop_scale="0.35"
       scale_y_rel="false"
       spacing="0"
       normal_offset="0"
       tang_offset="0"
       prop_units="false"
       vertical_pattern="false"
       hide_knot="false"
       fuse_tolerance="0" />
    <inkscape:path-effect
       effect="skeletal"
       id="path-effect9"
       is_visible="true"
       lpeversion="1"
       pattern="M 0,4.9921382 C 0,2.2364779 2.2364779,0 4.9921382,0 c 2.7556602,0 4.9921381,2.2364779 4.9921381,4.9921382 0,2.7556602 -2.2364779,4.9921381 -4.9921381,4.9921381 C 2.2364779,9.9842763 0,7.7477984 0,4.9921382 Z"
       copytype="single_stretched"
       prop_scale="0.35"
       scale_y_rel="false"
       spacing="0"
       normal_offset="0"
       tang_offset="0"
       prop_units="false"
       vertical_pattern="false"
       hide_knot="false"
       fuse_tolerance="0" />
    <inkscape:path-effect
       effect="skeletal"
       id="path-effect8"
       is_visible="true"
       lpeversion="1"
       pattern="M 0,4.9921382 C 0,2.2364779 2.2364779,0 4.9921382,0 c 2.7556602,0 4.9921381,2.2364779 4.9921381,4.9921382 0,2.7556602 -2.2364779,4.9921381 -4.9921381,4.9921381 C 2.2364779,9.9842763 0,7.7477984 0,4.9921382 Z"
       copytype="single_stretched"
       prop_scale="0.35"
       scale_y_rel="false"
       spacing="0"
       normal_offset="0"
       tang_offset="0"
       prop_units="false"
       vertical_pattern="false"
       hide_knot="false"
       fuse_tolerance="0" />
    <inkscape:path-effect
       effect="skeletal"
       id="path-effect7"
       is_visible="true"
       lpeversion="1"
       pattern="M 0,4.9921382 C 0,2.2364779 2.2364779,0 4.9921382,0 c 2.7556602,0 4.9921381,2.2364779 4.9921381,4.9921382 0,2.7556602 -2.2364779,4.9921381 -4.9921381,4.9921381 C 2.2364779,9.9842763 0,7.7477984 0,4.9921382 Z"
       copytype="single_stretched"
       prop_scale="0.35"
       scale_y_rel="false"
       spacing="0"
       normal_offset="0"
       tang_offset="0"
       prop_units="false"
       vertical_pattern="false"
       hide_knot="false"
       fuse_tolerance="0" />
    <inkscape:path-effect
       effect="skeletal"
       id="path-effect6"
       is_visible="true"
       lpeversion="1"
       pattern="M 0,4.9921382 C 0,2.2364779 2.2364779,0 4.9921382,0 c 2.7556602,0 4.9921381,2.2364779 4.9921381,4.9921382 0,2.7556602 -2.2364779,4.9921381 -4.9921381,4.9921381 C 2.2364779,9.9842763 0,7.7477984 0,4.9921382 Z"
       copytype="single_stretched"
       prop_scale="0.35"
       scale_y_rel="false"
       spacing="0"
       normal_offset="0"
       tang_offset="0"
       prop_units="false"
       vertical_pattern="false"
       hide_knot="false"
       fuse_tolerance="0" />
    <inkscape:path-effect
       effect="skeletal"
       id="path-effect5"
       is_visible="true"
       lpeversion="1"
       pattern="M 0,4.9921382 C 0,2.2364779 2.2364779,0 4.9921382,0 c 2.7556602,0 4.9921381,2.2364779 4.9921381,4.9921382 0,2.7556602 -2.2364779,4.9921381 -4.9921381,4.9921381 C 2.2364779,9.9842763 0,7.7477984 0,4.9921382 Z"
       copytype="single_stretched"
       prop_scale="0.35"
       scale_y_rel="false"
       spacing="0"
       normal_offset="0"
       tang_offset="0"
       prop_units="false"
       vertical_pattern="false"
       hide_knot="false"
       fuse_tolerance="0" />
    <inkscape:path-effect
       effect="skeletal"
       id="path-effect4"
       is_visible="true"
       lpeversion="1"
       pattern="M 0,4.9921382 C 0,2.2364779 2.2364779,0 4.9921382,0 c 2.7556602,0 4.9921381,2.2364779 4.9921381,4.9921382 0,2.7556602 -2.2364779,4.9921381 -4.9921381,4.9921381 C 2.2364779,9.9842763 0,7.7477984 0,4.9921382 Z"
       copytype="single_stretched"
       prop_scale="0.35"
       scale_y_rel="false"
       spacing="0"
       normal_offset="0"
       tang_offset="0"
       prop_units="false"
       vertical_pattern="false"
       hide_knot="false"
       fuse_tolerance="0" />
    <inkscape:path-effect
       effect="skeletal"
       id="path-effect3"
       is_visible="true"
       lpeversion="1"
       pattern="M 0,4.9921382 C 0,2.2364779 2.2364779,0 4.9921382,0 c 2.7556602,0 4.9921381,2.2364779 4.9921381,4.9921382 0,2.7556602 -2.2364779,4.9921381 -4.9921381,4.9921381 C 2.2364779,9.9842763 0,7.7477984 0,4.9921382 Z"
       copytype="single_stretched"
       prop_scale="0.35"
       scale_y_rel="false"
       spacing="0"
       normal_offset="0"
       tang_offset="0"
       prop_units="false"
       vertical_pattern="false"
       hide_knot="false"
       fuse_tolerance="0" />
    <inkscape:path-effect
       effect="skeletal"
       id="path-effect2"
       is_visible="true"
       lpeversion="1"
       pattern="M 0,4.9921382 C 0,2.2364779 2.2364779,0 4.9921382,0 c 2.7556602,0 4.9921381,2.2364779 4.9921381,4.9921382 0,2.7556602 -2.2364779,4.9921381 -4.9921381,4.9921381 C 2.2364779,9.9842763 0,7.7477984 0,4.9921382 Z"
       copytype="single_stretched"
       prop_scale="0.35"
       scale_y_rel="false"
       spacing="0"
       normal_offset="0"
       tang_offset="0"
       prop_units="false"
       vertical_pattern="false"
       hide_knot="false"
       fuse_tolerance="0" />
    <inkscape:path-effect
       effect="skeletal"
       id="path-effect1"
       is_visible="true"
       lpeversion="1"
       pattern="M 0,4.9921382 C 0,2.2364779 2.2364779,0 4.9921382,0 c 2.7556602,0 4.9921381,2.2364779 4.9921381,4.9921382 0,2.7556602 -2.2364779,4.9921381 -4.9921381,4.9921381 C 2.2364779,9.9842763 0,7.7477984 0,4.9921382 Z"
       copytype="single_stretched"
       prop_scale="0.35464173"
       scale_y_rel="false"
       spacing="0"
       normal_offset="0"
       tang_offset="0"
       prop_units="false"
       vertical_pattern="false"
       hide_knot="false"
       fuse_tolerance="0" />
    <inkscape:path-effect
       effect="skeletal"
       id="path-effect1-5"
       is_visible="true"
       lpeversion="1"
       pattern="M 0,4.9921382 C 0,2.2364779 2.2364779,0 4.9921382,0 c 2.7556602,0 4.9921381,2.2364779 4.9921381,4.9921382 0,2.7556602 -2.2364779,4.9921381 -4.9921381,4.9921381 C 2.2364779,9.9842763 0,7.7477984 0,4.9921382 Z"
       copytype="single_stretched"
       prop_scale="0.35464173"
       scale_y_rel="false"
       spacing="0"
       normal_offset="0"
       tang_offset="0"
       prop_units="false"
       vertical_pattern="false"
       hide_knot="false"
       fuse_tolerance="0" />
    <inkscape:path-effect
       effect="skeletal"
       id="path-effect13-4"
       is_visible="true"
       lpeversion="1"
       pattern="M 0,4.9921382 C 0,2.2364779 2.2364779,0 4.9921382,0 c 2.7556602,0 4.9921381,2.2364779 4.9921381,4.9921382 0,2.7556602 -2.2364779,4.9921381 -4.9921381,4.9921381 C 2.2364779,9.9842763 0,7.7477984 0,4.9921382 Z"
       copytype="single_stretched"
       prop_scale="0.35"
       scale_y_rel="false"
       spacing="0"
       normal_offset="0"
       tang_offset="0"
       prop_units="false"
       vertical_pattern="false"
       hide_knot="false"
       fuse_tolerance="0" />
    <inkscape:path-effect
       effect="skeletal"
       id="path-effect14-4"
       is_visible="true"
       lpeversion="1"
       pattern="M 0,4.9921382 C 0,2.2364779 2.2364779,0 4.9921382,0 c 2.7556602,0 4.9921381,2.2364779 4.9921381,4.9921382 0,2.7556602 -2.2364779,4.9921381 -4.9921381,4.9921381 C 2.2364779,9.9842763 0,7.7477984 0,4.9921382 Z"
       copytype="single_stretched"
       prop_scale="0.35"
       scale_y_rel="false"
       spacing="0"
       normal_offset="0"
       tang_offset="0"
       prop_units="false"
       vertical_pattern="false"
       hide_knot="false"
       fuse_tolerance="0" />
    <inkscape:path-effect
       effect="skeletal"
       id="path-effect14-4-2"
       is_visible="true"
       lpeversion="1"
       pattern="M 0,4.9921382 C 0,2.2364779 2.2364779,0 4.9921382,0 c 2.7556602,0 4.9921381,2.2364779 4.9921381,4.9921382 0,2.7556602 -2.2364779,4.9921381 -4.9921381,4.9921381 C 2.2364779,9.9842763 0,7.7477984 0,4.9921382 Z"
       copytype="single_stretched"
       prop_scale="0.35"
       scale_y_rel="false"
       spacing="0"
       normal_offset="0"
       tang_offset="0"
       prop_units="false"
       vertical_pattern="false"
       hide_knot="false"
       fuse_tolerance="0" />
    <inkscape:path-effect
       effect="skeletal"
       id="path-effect13-4-7"
       is_visible="true"
       lpeversion="1"
       pattern="M 0,4.9921382 C 0,2.2364779 2.2364779,0 4.9921382,0 c 2.7556602,0 4.9921381,2.2364779 4.9921381,4.9921382 0,2.7556602 -2.2364779,4.9921381 -4.9921381,4.9921381 C 2.2364779,9.9842763 0,7.7477984 0,4.9921382 Z"
       copytype="single_stretched"
       prop_scale="0.35"
       scale_y_rel="false"
       spacing="0"
       normal_offset="0"
       tang_offset="0"
       prop_units="false"
       vertical_pattern="false"
       hide_knot="false"
       fuse_tolerance="0" />
    <inkscape:path-effect
       effect="skeletal"
       id="path-effect15-2"
       is_visible="true"
       lpeversion="1"
       pattern="M 0,4.9921382 C 0,2.2364779 2.2364779,0 4.9921382,0 c 2.7556602,0 4.9921381,2.2364779 4.9921381,4.9921382 0,2.7556602 -2.2364779,4.9921381 -4.9921381,4.9921381 C 2.2364779,9.9842763 0,7.7477984 0,4.9921382 Z"
       copytype="single_stretched"
       prop_scale="0.39564074"
       scale_y_rel="false"
       spacing="0"
       normal_offset="0"
       tang_offset="0"
       prop_units="false"
       vertical_pattern="false"
       hide_knot="false"
       fuse_tolerance="0" />
    <inkscape:path-effect
       effect="skeletal"
       id="path-effect15-2-9"
       is_visible="true"
       lpeversion="1"
       pattern="M 0,4.9921382 C 0,2.2364779 2.2364779,0 4.9921382,0 c 2.7556602,0 4.9921381,2.2364779 4.9921381,4.9921382 0,2.7556602 -2.2364779,4.9921381 -4.9921381,4.9921381 C 2.2364779,9.9842763 0,7.7477984 0,4.9921382 Z"
       copytype="single_stretched"
       prop_scale="0.39564074"
       scale_y_rel="false"
       spacing="0"
       normal_offset="0"
       tang_offset="0"
       prop_units="false"
       vertical_pattern="false"
       hide_knot="false"
       fuse_tolerance="0" />
    <inkscape:path-effect
       effect="skeletal"
       id="path-effect15-2-9-3"
       is_visible="true"
       lpeversion="1"
       pattern="M 0,4.9921382 C 0,2.2364779 2.2364779,0 4.9921382,0 c 2.7556602,0 4.9921381,2.2364779 4.9921381,4.9921382 0,2.7556602 -2.2364779,4.9921381 -4.9921381,4.9921381 C 2.2364779,9.9842763 0,7.7477984 0,4.9921382 Z"
       copytype="single_stretched"
       prop_scale="0.39564074"
       scale_y_rel="false"
       spacing="0"
       normal_offset="0"
       tang_offset="0"
       prop_units="false"
       vertical_pattern="false"
       hide_knot="false"
       fuse_tolerance="0" />
    <inkscape:path-effect
       effect="skeletal"
       id="path-effect15-20"
       is_visible="true"
       lpeversion="1"
       pattern="M 0,4.9921382 C 0,2.2364779 2.2364779,0 4.9921382,0 c 2.7556602,0 4.9921381,2.2364779 4.9921381,4.9921382 0,2.7556602 -2.2364779,4.9921381 -4.9921381,4.9921381 C 2.2364779,9.9842763 0,7.7477984 0,4.9921382 Z"
       copytype="single_stretched"
       prop_scale="0.39564074"
       scale_y_rel="false"
       spacing="0"
       normal_offset="0"
       tang_offset="0"
       prop_units="false"
       vertical_pattern="false"
       hide_knot="false"
       fuse_tolerance="0" />
    <inkscape:path-effect
       effect="skeletal"
       id="path-effect15-2-1"
       is_visible="true"
       lpeversion="1"
       pattern="M 0,4.9921382 C 0,2.2364779 2.2364779,0 4.9921382,0 c 2.7556602,0 4.9921381,2.2364779 4.9921381,4.9921382 0,2.7556602 -2.2364779,4.9921381 -4.9921381,4.9921381 C 2.2364779,9.9842763 0,7.7477984 0,4.9921382 Z"
       copytype="single_stretched"
       prop_scale="0.39564074"
       scale_y_rel="false"
       spacing="0"
       normal_offset="0"
       tang_offset="0"
       prop_units="false"
       vertical_pattern="false"
       hide_knot="false"
       fuse_tolerance="0" />
    <inkscape:path-effect
       effect="skeletal"
       id="path-effect15-2-9-2"
       is_visible="true"
       lpeversion="1"
       pattern="M 0,4.9921382 C 0,2.2364779 2.2364779,0 4.9921382,0 c 2.7556602,0 4.9921381,2.2364779 4.9921381,4.9921382 0,2.7556602 -2.2364779,4.9921381 -4.9921381,4.9921381 C 2.2364779,9.9842763 0,7.7477984 0,4.9921382 Z"
       copytype="single_stretched"
       prop_scale="0.39564074"
       scale_y_rel="false"
       spacing="0"
       normal_offset="0"
       tang_offset="0"
       prop_units="false"
       vertical_pattern="false"
       hide_knot="false"
       fuse_tolerance="0" />
    <inkscape:path-effect
       effect="skeletal"
       id="path-effect15-2-9-3-0"
       is_visible="true"
       lpeversion="1"
       pattern="M 0,4.9921382 C 0,2.2364779 2.2364779,0 4.9921382,0 c 2.7556602,0 4.9921381,2.2364779 4.9921381,4.9921382 0,2.7556602 -2.2364779,4.9921381 -4.9921381,4.9921381 C 2.2364779,9.9842763 0,7.7477984 0,4.9921382 Z"
       copytype="single_stretched"
       prop_scale="0.39564074"
       scale_y_rel="false"
       spacing="0"
       normal_offset="0"
       tang_offset="0"
       prop_units="false"
       vertical_pattern="false"
       hide_knot="false"
       fuse_tolerance="0" />
  </defs>
  <g
     inkscape:label="Layer 1"
     inkscape:groupmode="layer"
     id="layer1">
    <path
       style="fill:#000000;stroke-width:0.264583;stroke:none;fill-opacity:1"
       d="m 3.794425,4.4843205 c 0.7961427,0 1.2262901,56.2665075 0.8510279,133.3383895 0,0 -1e-7,1e-5 -1e-7,1e-5 -4.68777619,-0.003 60.4095162,0.0769 55.7217402,0.0735 104.540467,0.21098 189.380457,1.17535 189.374977,2.15261 -0.005,0.97726 -85.46387,0.98624 -190.755323,0.02 -3.341953,-0.0307 -52.7014974,-0.5229 -56.0434498,-0.55356 0,0 -1e-7,-2e-5 -1e-7,-2e-5 C 2.5681349,61.241168 2.9982823,4.4843205 3.794425,4.4843205 Z"
       id="path1"
       inkscape:path-effect="#path-effect1"
       inkscape:original-d="M 3.794425,4.4843205 V 138.66899 l 245.947735,1.37979" />
    <path
       style="fill:#000000;fill-opacity:1;stroke:none;stroke-width:0.264583"
       d="m 3.794425,4.4843205 c 0.7961427,0 1.2262901,56.2665075 0.8510279,133.3383895 0,0 -1e-7,1e-5 -1e-7,1e-5 -4.68777619,-0.003 60.4095162,0.0769 55.7217402,0.0735 104.540467,0.21098 189.380457,1.17535 189.374977,2.15261 -0.005,0.97726 -85.46387,0.98624 -190.755323,0.02 -3.341953,-0.0307 -52.7014974,-0.5229 -56.0434498,-0.55356 0,0 -1e-7,-2e-5 -1e-7,-2e-5 C 2.5681349,61.241168 2.9982823,4.4843205 3.794425,4.4843205 Z"
       id="path1-2"
       inkscape:path-effect="#path-effect1-5"
       inkscape:original-d="M 3.794425,4.4843205 V 138.66899 l 245.947735,1.37979"
       transform="rotate(180,127.49006,71.290177)" />
    <text
       xml:space="preserve"
       style="font-style:normal;font-variant:normal;font-weight:normal;font-stretch:normal;font-size:12.7px;font-family:'Freestyle Script';-inkscape-font-specification:'Freestyle Script';text-align:center;letter-spacing:0.529167px;word-spacing:0.264583px;text-anchor:middle;fill:#000000;fill-opacity:1;stroke:#000000;stroke-width:0.3;stroke-dasharray:none;stroke-opacity:1;paint-order:stroke fill markers"
       x="17.805775"
       y="19.025362"
       id="text9"><tspan
         sodipodi:role="line"
         id="tspan9"
         style="stroke-width:0.3"
         x="18.070358"
         y="19.025362">D</tspan></text>
    <text
       xml:space="preserve"
       style="font-style:normal;font-variant:normal;font-weight:normal;font-stretch:normal;font-size:12.7px;font-family:'Freestyle Script';-inkscape-font-specification:'Freestyle Script';text-align:center;letter-spacing:0.529167px;word-spacing:0.264583px;text-anchor:middle;fill:#000000;fill-opacity:1;stroke:#000000;stroke-width:0.3;stroke-dasharray:none;stroke-opacity:1;paint-order:stroke fill markers"
       x="80.439178"
       y="95.218735"
       id="text9-8"><tspan
         sodipodi:role="line"
         id="tspan9-8"
         style="stroke-width:0.3"
         x="80.703758"
         y="95.218735">E</tspan></text>
    <text
       xml:space="preserve"
       style="font-style:normal;font-variant:normal;font-weight:normal;font-stretch:normal;font-size:12.7px;font-family:'Freestyle Script';-inkscape-font-specification:'Freestyle Script';text-align:center;letter-spacing:0.529167px;word-spacing:0.264583px;text-anchor:middle;fill:#000000;fill-opacity:1;stroke:#000000;stroke-width:0.3;stroke-dasharray:none;stroke-opacity:1;paint-order:stroke fill markers"
       x="175.43832"
       y="33.327763"
       id="text9-8-7"><tspan
         sodipodi:role="line"
         id="tspan9-8-0"
         style="stroke-width:0.3"
         x="175.70291"
         y="33.327763">F</tspan></text>
    <path
       style="fill:#000000;fill-opacity:1;stroke:none;stroke-width:0.3;stroke-dasharray:none;stroke-opacity:1;paint-order:stroke fill markers"
       d="m 244.89054,11.707914 c -0.33406,0.02386 -0.67493,-1.186901 -0.68069,-2.9457253 -2.88846,0.2291945 -9.68411,0.6965988 -15.30317,0.9851162 -0.11795,0.1341106 -0.23366,0.2645841 -0.34853,0.3926681 -0.0384,1.145819 -0.0843,2.311318 -0.1369,3.499816 -0.11642,2.628351 -0.25861,5.194525 -0.40546,7.583993 2.43074,1.020243 5.0759,1.205056 7.3003,1.102153 4.74686,0.138435 8.02319,-0.384283 8.11097,0.114233 0.0878,0.498516 -2.73811,1.894642 -8.00522,2.446604 -2.7519,0.102543 -6.2308,-0.41361 -9.75595,-2.205877 -0.0433,-2.900462 -0.0719,-6.11309 -0.0721,-9.419582 -9e-5,-1.491708 0.006,-2.95305 0.0175,-4.3759256 0.70766,-0.694435 1.40545,-1.3774693 2.09063,-2.0464803 7.3062,0.310438 14.29996,0.734001 17.38141,0.9851162 0.30624,2.5835327 0.13939,3.8601587 -0.19285,3.8838907 z"
       id="path10"
       inkscape:path-effect="#path-effect10"
       inkscape:original-d="m 244.89054,11.707914 -0.24392,-3.414808 h -16.34229 l -1.21958,1.2195744 -0.24391,12.4396586 c 5.97151,2.819236 11.24141,1.428859 16.58621,0.48783"
       sodipodi:nodetypes="cccccc"
       transform="translate(-217.81599,-0.48782977)" />
    <text
       xml:space="preserve"
       style="font-size:12.7px;font-family:'Freestyle Script';-inkscape-font-specification:'Freestyle Script';text-align:center;letter-spacing:0.529167px;word-spacing:0.264583px;text-anchor:middle;fill:#000000;stroke:#000000;stroke-width:0.3;paint-order:stroke fill markers"
       x="46.587746"
       y="20.976681"
       id="text1"><tspan
         sodipodi:role="line"
         id="tspan1"
         style="stroke-width:0.3"
         x="46.587746"
         y="20.976681" /></text>
    <circle
       id="path3"
       style="fill:#000000;stroke:#000000;stroke-width:0.264583"
       cx="141.95847"
       cy="94.638977"
       r="0.036838178" />
    <path
       style="fill:#000000;stroke:none;stroke-width:0.3;paint-order:stroke fill markers"
       d="m 32.928459,85.614141 c 0.0924,0.215973 -2.490759,1.564842 -7.228539,3.813359 0,0 -3e-6,1e-6 -3e-6,1e-6 -1.443535,0.850182 -3.297148,2.007365 -4.729258,3.50758 -0.534986,0.561556 -1.044354,1.184511 -1.359662,1.866386 -0.251096,0.549866 -0.406653,1.158488 -0.330347,1.708111 0.206934,2.072849 1.353804,4.223432 3.196697,5.806902 1.898933,1.64567 4.314361,2.73948 7.126419,3.72197 5.242987,1.8087 11.419996,2.62982 18.076854,4.20989 0,0 7e-6,0 7e-6,0 7.056014,1.67631 14.357876,2.15291 22.682078,2.41898 8.423544,0.26096 17.026425,0.11347 26.195764,-0.27596 1.852367,-0.0788 3.715681,-0.16766 5.590591,-0.26659 5.44469,-0.28728 10.79069,-0.64903 16.01435,-1.0651 2.21694,-0.1766 4.40304,-0.36241 6.56969,-0.56238 l 0,0 0,0 0,0 c 0.59892,-0.0553 1.19433,-0.11143 1.78762,-0.16945 l 0,0 1e-5,0 0,0 c 0.15547,-0.0152 0.31036,-0.0305 0.46465,-0.046 -1e-5,0 -1e-5,0 -1e-5,0 -0.0441,0.0183 -0.0883,0.0365 -0.13276,0.0547 0,0 0,0 0,0 -0.002,1.9e-4 0.0321,-0.003 0.0302,-0.003 -0.002,2.2e-4 0.0129,-0.001 0.0106,-0.001 4.89197,-2.12853 9.64399,-4.18808 14.23725,-6.1705 1.59124,-0.79102 3.11313,-1.59391 4.5628,-2.47026 1.2165,-0.74102 2.3335,-1.458 3.25508,-2.308265 0.33388,-0.313945 0.61688,-0.594358 0.79756,-0.874862 0.1129,-0.220589 0.20672,-0.331742 0.17288,-0.325185 0.0167,0.09343 0.0161,0.110935 0.0419,0.135528 0,0 0,-10e-7 0,-10e-7 -0.0397,-0.09627 -0.28831,-0.202141 -0.62016,-0.384465 -3e-5,-2e-5 -4e-5,-2.4e-5 -4e-5,-2.4e-5 -0.006,-0.0036 -0.0129,-0.0072 -0.0193,-0.01074 -0.002,-0.0014 -0.0513,-0.02857 -0.0538,-0.02992 -0.009,-0.0052 -0.19904,-0.110384 -0.20833,-0.115549 -0.19879,-0.113858 -0.39836,-0.227204 -0.59811,-0.340113 0,0 0,-3e-6 0,-3e-6 -0.7398,-0.418171 -1.4789,-0.828428 -2.21241,-1.230593 -2.52984,-1.386974 -4.99042,-2.676712 -7.39364,-3.879754 -3.25326,-1.628068 -6.27345,-3.040614 -9.2576,-4.277319 -3.10966,-1.283397 -5.79877,-2.282531 -8.56786,-2.86623 -2.09878,-0.451385 -4.34146,-0.54493 -6.25917,-0.595907 -2.62048,-0.06668 -5.16978,0.0082 -7.14221,0.08322 -5.32883,0.35745 -8.304651,0.445759 -8.354674,0.213261 0,0 0,-10e-7 0,-10e-7 -3.88e-4,-0.0025 -3.68e-4,-0.0025 -3.67e-4,-0.0025 10e-7,9e-6 -1.7e-5,1.9e-5 -2.57e-4,-0.0025 0,0 0,-10e-7 0,-10e-7 -0.0081,-0.236976 2.913398,-0.773119 8.233298,-1.54342 2.00279,-0.231425 4.54202,-0.468256 7.2609,-0.54534 1.95434,-0.0582 4.29788,-0.067 6.65432,0.325857 2.98892,0.507871 5.88311,1.448994 9.07593,2.657494 3.09193,1.165671 6.22165,2.520066 9.55441,4.0849 2.46632,1.157674 4.99073,2.407874 7.58146,3.759321 0.75146,0.391979 1.51031,0.793498 2.27214,1.204734 0,0 0,3e-6 0,3e-6 0.20567,0.111022 0.41241,0.223225 0.61971,0.336726 0.0366,0.02093 0.0734,0.04203 0.11025,0.06332 -0.002,-9.84e-4 0.0304,0.01756 0.0287,0.01658 0.003,0.002 0.007,0.004 0.0103,0.006 0,0 0,2e-6 0,2e-6 0.50566,0.179647 1.08927,0.537412 1.63276,1.154055 0,0 1e-5,1e-5 1e-5,1e-5 0.4482,0.54106 0.68383,1.232459 0.65371,1.996174 -0.0872,0.769905 -0.33938,1.37599 -0.65019,1.799494 -0.38734,0.58301 -0.82353,1.05911 -1.25405,1.45573 -1.16377,1.08819 -2.43679,1.95324 -3.70865,2.73828 -1.56667,0.97351 -3.18263,1.85495 -4.8397,2.70271 -4.74498,2.09513 -9.67139,4.26167 -14.75466,6.48883 -0.001,1.5e-4 -0.01,0.001 -0.011,0.001 -0.001,1.6e-4 -0.0299,0.003 -0.0313,0.004 0,0 0,0 0,0 -0.12462,0.0267 -0.24907,0.0533 -0.37335,0.0799 0,0 -1e-5,0 -1e-5,0 -0.15805,0.0171 -0.31581,0.0338 -0.47328,0.0504 l 0,0 -10e-6,0 0,0 c -0.60093,0.0632 -1.20248,0.12424 -1.80586,0.18405 l 0,0 -10e-6,0 0,0 c -2.18262,0.21635 -4.38383,0.41624 -6.61278,0.6044 -5.25236,0.44344 -10.63152,0.82035 -16.11289,1.10956 -1.8875,0.0996 -3.763788,0.18754 -5.629211,0.26388 -9.220695,0.37794 -17.935369,0.47572 -26.460969,0.12932 -8.381651,-0.33259 -15.938052,-0.95514 -23.284651,-2.8299 -3e-6,0 -5e-6,0 -7e-6,0 -7.133747,-1.82718 -12.019332,-2.39441 -18.226484,-4.71657 -2.941986,-1.08833 -5.606003,-2.44988 -7.780279,-4.43127 -2.232501,-2.04615 -3.468488,-4.743234 -3.644997,-7.358852 -0.05167,-1.015834 0.216318,-1.951076 0.639649,-2.720512 0.501459,-0.915834 1.160453,-1.655479 1.815919,-2.254735 1.763569,-1.615393 3.799122,-2.709332 5.363892,-3.464538 0,0 3e-6,-10e-7 3e-6,-10e-7 4.949382,-1.89572 7.709997,-2.833103 7.802414,-2.617081 z"
       id="path4"
       inkscape:path-effect="#path-effect11"
       inkscape:original-d="m 32.928509,85.614125 c 0,0 -15.131891,4.898584 -14.634893,10.976168 0.889181,10.873427 18.433384,12.510987 29.025872,15.122727 24.866471,6.13122 80.004082,0.24391 80.004082,0.24391 0,0 31.06754,-11.74328 22.68408,-15.366637 0,0 -18.51306,-10.493295 -28.78195,-12.439657 -7.19344,-1.363442 -21.952341,0.731744 -21.952341,0.731744"
       sodipodi:nodetypes="csscsac" />
    <path
       style="fill:#000000;stroke:none;stroke-width:0.3;paint-order:stroke fill markers"
       d="m 243.5331,25.871081 c -0.11289,0 -0.14995,-0.766108 0.22946,-1.885747 0,0 0,-1e-6 0,-1e-6 0.19854,-0.61464 0.49766,-1.359832 0.72157,-2.23382 0.11972,-0.547808 0.29398,-1.213468 0.083,-1.607611 -0.0361,-0.300661 -0.53664,-0.406251 -1.09595,-0.491152 -0.44919,-0.02228 -0.88879,-0.0047 -1.42402,0.0014 -0.925,0.01281 -1.80148,0.03152 -2.84158,0.0532 0,0 0,0 0,0 -16.58647,0.346096 7.56606,-0.159035 -9.0204,0.187061 -6.77609,0.13293 -16.19939,0.289437 -25.65714,0.415357 -10.76041,-0.051 -22.40497,-0.207476 -35.3344,-0.434283 0.005,-0.08636 -1.05284,19.707616 -1.04831,19.62125 -2.01518,37.108156 -3.99195,70.197593 -5.21272,88.061673 8.586,0.26563 13.69628,0.78548 13.68059,1.10707 -0.0157,0.32159 -5.21487,0.33853 -14.60513,-0.27273 0.69096,-17.67296 2.32074,-51.61995 4.37187,-90.098782 0.005,-0.09038 1.09053,-20.134884 1.09535,-20.225264 13.59797,-0.321617 25.84335,-0.563564 37.04405,-0.693054 9.9845,0.08594 18.36607,0.207192 25.67062,0.383101 3.42547,0.0825 6.32084,0.168384 9.03262,0.280047 0,0 0,0 0,0 1.02028,0.04201 1.9454,0.08427 2.85777,0.137571 0.51278,0.0296 0.99384,0.04936 1.51458,0.115103 0.88995,0.04725 1.7426,0.581831 2.10561,1.470738 0.23351,0.931533 -0.0394,1.75127 -0.27268,2.29461 -0.32169,0.831763 -0.80852,1.719526 -1.05708,2.185824 0,0 0,10e-7 0,10e-7 -0.56491,1.112408 -0.72483,1.628406 -0.83772,1.628406 z"
       id="path11"
       inkscape:path-effect="#path-effect12"
       inkscape:original-d="m 243.5331,25.871081 c 0,-1.724739 3.79443,-6.554008 0,-6.898955 -3.79442,-0.344948 -75.1986,0 -75.1986,0 l -5.86412,109.003484 14.14286,0.6899" />
    <path
       style="fill:#000000;stroke:none;stroke-width:0.3;paint-order:stroke fill markers"
       d="m 171.47209,46.100129 c 0.0296,0.005 0.0512,0.02387 0.076,0.05536 0.0208,0.02679 0.0429,0.06452 0.0669,0.108878 0,0 0,10e-7 0,10e-7 l 0,0 c 0.0507,0.08855 0.1002,0.175472 0.19574,0.29898 0,0 0,10e-7 0,10e-7 l 0,0 c 0.23092,0.31917 0.49799,0.473825 1.17878,0.801243 l 0,0 c 2.06274,0.910694 5.89209,1.006078 11.28959,0.907865 l 0,0 c 6.62167,-0.145887 14.71363,-0.114214 23.84356,0.05259 15.54635,0.284029 31.4872,0.903198 35.35474,1.170743 2e-5,0 2e-5,10e-7 2e-5,10e-7 -0.0603,1.721467 -0.32579,2.481695 -0.53819,2.458094 -0.21355,-0.02373 -0.30464,-0.811973 -0.0504,-1.93239 0,0 0,-1e-6 0,-1e-6 -4.25542,0.244775 -20.72453,0.808746 -35.4625,1.024123 -8.86044,0.129484 -16.67671,0.128362 -23.15008,-0.04471 l 0,0 C 178.1929,50.886658 174.98656,50.372262 172.373,48.396047 l 0,0 c -0.72212,-0.506941 -1.06444,-1.141476 -1.13841,-1.627155 l 0,0 c 0,0 0,-10e-7 0,-10e-7 -0.0308,-0.222461 0.005,-0.400405 0.0543,-0.510831 l 0,0 c 0,0 0,0 0,0 0.0265,-0.05666 0.0572,-0.09745 0.0876,-0.123381 0.035,-0.02954 0.0659,-0.03959 0.0956,-0.03455 z"
       id="path12"
       inkscape:path-effect="#path-effect13"
       inkscape:original-d="m 171.47216,46.099912 c 0,0 -1.09761,3.536766 12.80553,3.536766 13.90315,0 58.90545,0.121958 58.90545,0.121958 l -0.24391,2.195235"
       sodipodi:nodetypes="cscc" />
    <path
       style="fill:#000000;stroke:none;stroke-width:0.3;paint-order:stroke fill markers"
       d="m 182.81421,44.026637 c 0.49756,0.149269 0.66102,2.347439 0.6614,5.439552 0.006,0.723169 0.002,1.557205 0.0481,2.297121 0.0189,0.237214 0.0253,0.404219 0.0534,0.479789 0,0 0,10e-7 0,10e-7 0.0268,0.04103 -0.005,-0.03972 -0.0827,-0.253073 0,0 0,-6e-6 0,-6e-6 0.13791,-0.249631 -0.35061,-0.537989 -1.47282,-0.907717 0,0 -2e-5,-8e-6 -2e-5,-8e-6 1.00454,0.212467 1.46329,0.424405 1.36806,0.544246 0,0 -1e-5,10e-7 -1e-5,10e-7 0.21586,0.184295 0.37258,0.340437 0.48165,0.455009 0.22491,0.224097 0.41101,0.423959 0.57287,0.576818 0.0615,0.05809 0.11903,0.108877 0.1738,0.151601 0.36971,0.113186 0.10807,0.160095 -0.20163,0.07005 l 0,10e-7 c -0.6662,0.372139 -0.84245,0.308402 -0.59747,0.247817 l 0,0 c 0.55183,-0.96569 0.64034,-2.887652 0.81788,-4.056707 l 0,0 c 0.11838,-0.867585 0.23102,-1.58066 0.37568,-2.116202 l 0,0 c 0.0777,-0.287506 0.16366,-0.517988 0.2598,-0.682648 l 0,0 0,0 c 0.0497,-0.08434 0.1024,-0.151817 0.15792,-0.200924 l 0,0 c 0,0 0,-10e-7 0,-10e-7 0.0902,-0.03328 0.13761,-0.05598 0.16244,-0.07074 0.024,-0.01424 0.0265,-0.02105 0.0267,-0.02251 0,0 0,0 0,0 0,0 0,0 0,0 0,0 0,0 0,0 0,0 0,0 0,0 0,0 0,0 0,0 0,0 0,0 0,0 3e-5,-1.85e-4 4e-5,-1.57e-4 4e-5,-1.57e-4 0,0 0,-3e-5 8e-5,1.42e-4 0,0 0,0 0,0 0,0 0,0 0,0 0,0 0,0 0,0 0,0 0,0 0,0 0,0 0,0 0,0 0,0 0,0 0,0 6e-4,0.0013 0.005,0.0073 0.0316,0.01496 0.0278,0.008 0.0793,0.01785 0.17488,0.0272 0,0 0,0 0,0 l 0,0 c 0.0662,0.03484 0.13357,0.08965 0.20193,0.163829 l 0,0 0,0 c 0.13232,0.142555 0.26698,0.355996 0.39949,0.634344 l 0,0 c 0.2424,0.508954 0.48188,1.247816 0.66352,2.163829 l 0,0 c 0.2703,1.181473 0.61802,3.228137 -0.15888,5.456362 l 0,0 c -0.0744,0.694892 -0.80457,1.479643 -2.33155,1.898054 l 0,0 c -1.13236,-0.07791 -1.88011,-0.426331 -2.18725,-0.81795 -0.12473,-0.10338 -0.24109,-0.20599 -0.35003,-0.306832 -0.28562,-0.264398 -0.51643,-0.513244 -0.70598,-0.721699 -0.11791,-0.122353 -0.18484,-0.201901 -0.21531,-0.227668 0,0 -1e-5,0 -1e-5,0 -0.23948,-0.0038 0.0633,0.05763 0.87976,0.27032 0,0 -3e-5,-8e-6 -3e-5,-8e-6 -1.19764,-0.369738 -1.73723,-0.734016 -1.63187,-1.051349 0,0 0,-7e-6 0,-7e-6 -0.13923,-0.34228 -0.19866,-0.564987 -0.1957,-0.663965 0,0 0,-10e-7 0,-10e-7 -0.0568,-0.424718 -0.0587,-0.767205 -0.0443,-1.023715 0.0315,-0.953819 0.15629,-1.83722 0.29579,-2.596421 0.58861,-3.31032 1.65666,-5.384393 2.36881,-5.170745 z"
       id="path13"
       inkscape:path-effect="#path-effect14"
       inkscape:original-d="m 182.81421,44.026637 c -0.73175,2.439149 -1.28055,8.780935 -0.79272,8.780935 0.48782,0 2.37816,3.292852 3.35382,0.97566 0.97566,-2.317192 0.24392,-7.805276 0.24392,-7.805276"
       sodipodi:nodetypes="cssc" />
    <path
       style="fill:#000000;stroke:none;stroke-width:0.3;paint-order:stroke fill markers"
       d="m 171.47209,46.100129 c 0.0296,0.005 0.0512,0.02387 0.076,0.05536 0.0208,0.02679 0.0429,0.06452 0.0669,0.108878 0,0 0,10e-7 0,10e-7 l 0,0 c 0.0507,0.08855 0.1002,0.175472 0.19574,0.29898 0,0 0,10e-7 0,10e-7 l 0,0 c 0.23092,0.31917 0.49799,0.473825 1.17878,0.801243 l 0,0 c 2.06274,0.910694 5.89209,1.006078 11.28959,0.907865 l 0,0 c 6.62167,-0.145887 14.71363,-0.114214 23.84356,0.05259 15.54635,0.284029 31.4872,0.903198 35.35474,1.170743 2e-5,0 2e-5,10e-7 2e-5,10e-7 -0.0603,1.721467 -0.32579,2.481695 -0.53819,2.458094 -0.21355,-0.02373 -0.30464,-0.811973 -0.0504,-1.93239 0,0 0,-1e-6 0,-1e-6 -4.25542,0.244775 -20.72453,0.808746 -35.4625,1.024123 -8.86044,0.129484 -16.67671,0.128362 -23.15008,-0.04471 l 0,0 C 178.1929,50.886658 174.98656,50.372262 172.373,48.396047 l 0,0 c -0.72212,-0.506941 -1.06444,-1.141476 -1.13841,-1.627155 l 0,0 c 0,0 0,-10e-7 0,-10e-7 -0.0308,-0.222461 0.005,-0.400405 0.0543,-0.510831 l 0,0 c 0,0 0,0 0,0 0.0265,-0.05666 0.0572,-0.09745 0.0876,-0.123381 0.035,-0.02954 0.0659,-0.03959 0.0956,-0.03455 z"
       id="path12-8"
       inkscape:path-effect="#path-effect13-4"
       inkscape:original-d="m 171.47216,46.099912 c 0,0 -1.09761,3.536766 12.80553,3.536766 13.90315,0 58.90545,0.121958 58.90545,0.121958 l -0.24391,2.195235"
       sodipodi:nodetypes="cscc"
       transform="translate(-0.38101349,22.117851)" />
    <path
       style="fill:#000000;stroke:none;stroke-width:0.3;paint-order:stroke fill markers"
       d="m 182.81421,44.026637 c 0.49756,0.149269 0.66102,2.347439 0.6614,5.439552 0.006,0.723169 0.002,1.557205 0.0481,2.297121 0.0189,0.237214 0.0253,0.404219 0.0534,0.479789 0,0 0,10e-7 0,10e-7 0.0268,0.04103 -0.005,-0.03972 -0.0827,-0.253073 0,0 0,-6e-6 0,-6e-6 0.13791,-0.249631 -0.35061,-0.537989 -1.47282,-0.907717 0,0 -2e-5,-8e-6 -2e-5,-8e-6 1.00454,0.212467 1.46329,0.424405 1.36806,0.544246 0,0 -1e-5,10e-7 -1e-5,10e-7 0.21586,0.184295 0.37258,0.340437 0.48165,0.455009 0.22491,0.224097 0.41101,0.423959 0.57287,0.576818 0.0615,0.05809 0.11903,0.108877 0.1738,0.151601 0.36971,0.113186 0.10807,0.160095 -0.20163,0.07005 l 0,10e-7 c -0.6662,0.372139 -0.84245,0.308402 -0.59747,0.247817 l 0,0 c 0.55183,-0.96569 0.64034,-2.887652 0.81788,-4.056707 l 0,0 c 0.11838,-0.867585 0.23102,-1.58066 0.37568,-2.116202 l 0,0 c 0.0777,-0.287506 0.16366,-0.517988 0.2598,-0.682648 l 0,0 0,0 c 0.0497,-0.08434 0.1024,-0.151817 0.15792,-0.200924 l 0,0 c 0,0 0,-10e-7 0,-10e-7 0.0902,-0.03328 0.13761,-0.05598 0.16244,-0.07074 0.024,-0.01424 0.0265,-0.02105 0.0267,-0.02251 0,0 0,0 0,0 0,0 0,0 0,0 0,0 0,0 0,0 0,0 0,0 0,0 0,0 0,0 0,0 0,0 0,0 0,0 3e-5,-1.85e-4 4e-5,-1.57e-4 4e-5,-1.57e-4 0,0 0,-3e-5 8e-5,1.42e-4 0,0 0,0 0,0 0,0 0,0 0,0 0,0 0,0 0,0 0,0 0,0 0,0 0,0 0,0 0,0 0,0 0,0 0,0 6e-4,0.0013 0.005,0.0073 0.0316,0.01496 0.0278,0.008 0.0793,0.01785 0.17488,0.0272 0,0 0,0 0,0 l 0,0 c 0.0662,0.03484 0.13357,0.08965 0.20193,0.163829 l 0,0 0,0 c 0.13232,0.142555 0.26698,0.355996 0.39949,0.634344 l 0,0 c 0.2424,0.508954 0.48188,1.247816 0.66352,2.163829 l 0,0 c 0.2703,1.181473 0.61802,3.228137 -0.15888,5.456362 l 0,0 c -0.0744,0.694892 -0.80457,1.479643 -2.33155,1.898054 l 0,0 c -1.13236,-0.07791 -1.88011,-0.426331 -2.18725,-0.81795 -0.12473,-0.10338 -0.24109,-0.20599 -0.35003,-0.306832 -0.28562,-0.264398 -0.51643,-0.513244 -0.70598,-0.721699 -0.11791,-0.122353 -0.18484,-0.201901 -0.21531,-0.227668 0,0 -1e-5,0 -1e-5,0 -0.23948,-0.0038 0.0633,0.05763 0.87976,0.27032 0,0 -3e-5,-8e-6 -3e-5,-8e-6 -1.19764,-0.369738 -1.73723,-0.734016 -1.63187,-1.051349 0,0 0,-7e-6 0,-7e-6 -0.13923,-0.34228 -0.19866,-0.564987 -0.1957,-0.663965 0,0 0,-10e-7 0,-10e-7 -0.0568,-0.424718 -0.0587,-0.767205 -0.0443,-1.023715 0.0315,-0.953819 0.15629,-1.83722 0.29579,-2.596421 0.58861,-3.31032 1.65666,-5.384393 2.36881,-5.170745 z"
       id="path13-6"
       inkscape:path-effect="#path-effect14-4"
       inkscape:original-d="m 182.81421,44.026637 c -0.73175,2.439149 -1.28055,8.780935 -0.79272,8.780935 0.48782,0 2.37816,3.292852 3.35382,0.97566 0.97566,-2.317192 0.24392,-7.805276 0.24392,-7.805276"
       sodipodi:nodetypes="cssc"
       transform="translate(11.814731,22.117851)" />
    <path
       style="fill:#000000;stroke:none;stroke-width:0.3;paint-order:stroke fill markers"
       d="m 172.20391,87.321529 c 0.57277,0.286384 -0.10254,2.634159 -0.7492,6.114259 -0.13395,0.805457 -0.30805,1.637662 -0.21049,2.21628 0,0 0,0 0,0 0.0764,0.174688 0.035,0.171011 -0.047,-0.119385 -0.3054,-0.368093 -0.58326,-0.557308 -0.94465,-0.56521 0.99899,-0.0365 1.92851,0.01591 2.86212,0.07222 0.77953,0.04548 1.57148,0.105145 2.37768,0.177576 0.50216,0.04512 0.99811,0.09413 1.48565,0.14596 1.19035,0.126486 2.33938,0.271511 3.43009,0.429013 l 0,0 c 0.36774,0.0531 0.72897,0.107636 1.08358,0.163608 l 0,0 c 0,0 0,3e-6 0,3e-6 -0.23395,0.286667 -0.46344,0.569487 -0.6884,0.848432 l 0,0 0,0 c -0.008,-0.0019 0.0818,0.01995 0.0739,0.01802 0.01,0.0024 0.0173,0.0042 0.0272,0.0066 0.13784,-4.578821 0.87768,-8.142282 1.78785,-8.043885 0.89517,0.09678 0.86459,3.940423 -0.16356,10.005808 -0.0123,1.48e-4 -0.0198,2.23e-4 -0.0321,3.8e-4 -0.004,5.3e-5 -0.0832,0.0011 -0.0872,0.0012 l 0,0 0,0 c -0.0144,0.0088 -1.27812,0.776881 -1.29257,0.785649 0,0 -1e-5,3e-6 -1e-5,3e-6 l 0,0 c -0.35535,-0.01751 -0.71782,-0.03696 -1.08608,-0.05838 l 0,0 c -1.09399,-0.06363 -2.23839,-0.144656 -3.42107,-0.241419 -0.4856,-0.03972 -0.97539,-0.08208 -1.47086,-0.126611 -0.78868,-0.07088 -1.5746,-0.14572 -2.32631,-0.21898 -0.98424,-0.09285 -1.76085,-0.194202 -2.55995,-0.231695 -0.83605,-0.0079 -1.58132,-0.425109 -2.13755,-1.182619 -0.39983,-0.783607 -0.50336,-1.395799 -0.43952,-1.788679 0,0 0,-10e-7 0,-10e-7 0.0585,-1.329679 0.43183,-2.397949 0.76516,-3.180336 1.44866,-3.64398 3.19046,-5.514167 3.76323,-5.227783 z"
       id="path14"
       inkscape:path-effect="#path-effect15"
       inkscape:original-d="m 172.20391,87.321529 c -1.21958,2.439149 -4.14655,9.512681 -1.95132,9.512681 2.19523,0 11.464,0.975659 11.464,0.975659 l 0.97566,-9.02485"
       transform="translate(0,3.140785)" />
    <path
       style="fill:#000000;stroke:none;stroke-width:0.3;paint-order:stroke fill markers"
       d="m 172.20391,87.321529 c 0.57277,0.286384 -0.10254,2.634159 -0.7492,6.114259 -0.13395,0.805457 -0.30805,1.637662 -0.21049,2.21628 0,0 0,0 0,0 0.0764,0.174688 0.035,0.171011 -0.047,-0.119385 -0.3054,-0.368093 -0.58326,-0.557308 -0.94465,-0.56521 0.99899,-0.0365 1.92851,0.01591 2.86212,0.07222 0.77953,0.04548 1.57148,0.105145 2.37768,0.177576 0.50216,0.04512 0.99811,0.09413 1.48565,0.14596 1.19035,0.126486 2.33938,0.271511 3.43009,0.429013 l 0,0 c 0.36774,0.0531 0.72897,0.107636 1.08358,0.163608 l 0,0 c 0,0 0,3e-6 0,3e-6 -0.23395,0.286667 -0.46344,0.569487 -0.6884,0.848432 l 0,0 0,0 c -0.008,-0.0019 0.0818,0.01995 0.0739,0.01802 0.01,0.0024 0.0173,0.0042 0.0272,0.0066 0.13784,-4.578821 0.87768,-8.142282 1.78785,-8.043885 0.89517,0.09678 0.86459,3.940423 -0.16356,10.005808 -0.0123,1.48e-4 -0.0198,2.23e-4 -0.0321,3.8e-4 -0.004,5.3e-5 -0.0832,0.0011 -0.0872,0.0012 l 0,0 0,0 c -0.0144,0.0088 -1.27812,0.776881 -1.29257,0.785649 0,0 -1e-5,3e-6 -1e-5,3e-6 l 0,0 c -0.35535,-0.01751 -0.71782,-0.03696 -1.08608,-0.05838 l 0,0 c -1.09399,-0.06363 -2.23839,-0.144656 -3.42107,-0.241419 -0.4856,-0.03972 -0.97539,-0.08208 -1.47086,-0.126611 -0.78868,-0.07088 -1.5746,-0.14572 -2.32631,-0.21898 -0.98424,-0.09285 -1.76085,-0.194202 -2.55995,-0.231695 -0.83605,-0.0079 -1.58132,-0.425109 -2.13755,-1.182619 -0.39983,-0.783607 -0.50336,-1.395799 -0.43952,-1.788679 0,0 0,-10e-7 0,-10e-7 0.0585,-1.329679 0.43183,-2.397949 0.76516,-3.180336 1.44866,-3.64398 3.19046,-5.514167 3.76323,-5.227783 z"
       id="path14-8"
       inkscape:path-effect="#path-effect15-2"
       inkscape:original-d="m 172.20391,87.321529 c -1.21958,2.439149 -4.14655,9.512681 -1.95132,9.512681 2.19523,0 11.464,0.975659 11.464,0.975659 l 0.97566,-9.02485"
       transform="translate(18.774768,3.140785)" />
    <path
       style="fill:#000000;stroke:none;stroke-width:0.3;paint-order:stroke fill markers"
       d="m 172.20391,87.321529 c 0.57277,0.286384 -0.10254,2.634159 -0.7492,6.114259 -0.13395,0.805457 -0.30805,1.637662 -0.21049,2.21628 0,0 0,0 0,0 0.0764,0.174688 0.035,0.171011 -0.047,-0.119385 -0.3054,-0.368093 -0.58326,-0.557308 -0.94465,-0.56521 0.99899,-0.0365 1.92851,0.01591 2.86212,0.07222 0.77953,0.04548 1.57148,0.105145 2.37768,0.177576 0.50216,0.04512 0.99811,0.09413 1.48565,0.14596 1.19035,0.126486 2.33938,0.271511 3.43009,0.429013 l 0,0 c 0.36774,0.0531 0.72897,0.107636 1.08358,0.163608 l 0,0 c 0,0 0,3e-6 0,3e-6 -0.23395,0.286667 -0.46344,0.569487 -0.6884,0.848432 l 0,0 0,0 c -0.008,-0.0019 0.0818,0.01995 0.0739,0.01802 0.01,0.0024 0.0173,0.0042 0.0272,0.0066 0.13784,-4.578821 0.87768,-8.142282 1.78785,-8.043885 0.89517,0.09678 0.86459,3.940423 -0.16356,10.005808 -0.0123,1.48e-4 -0.0198,2.23e-4 -0.0321,3.8e-4 -0.004,5.3e-5 -0.0832,0.0011 -0.0872,0.0012 l 0,0 0,0 c -0.0144,0.0088 -1.27812,0.776881 -1.29257,0.785649 0,0 -1e-5,3e-6 -1e-5,3e-6 l 0,0 c -0.35535,-0.01751 -0.71782,-0.03696 -1.08608,-0.05838 l 0,0 c -1.09399,-0.06363 -2.23839,-0.144656 -3.42107,-0.241419 -0.4856,-0.03972 -0.97539,-0.08208 -1.47086,-0.126611 -0.78868,-0.07088 -1.5746,-0.14572 -2.32631,-0.21898 -0.98424,-0.09285 -1.76085,-0.194202 -2.55995,-0.231695 -0.83605,-0.0079 -1.58132,-0.425109 -2.13755,-1.182619 -0.39983,-0.783607 -0.50336,-1.395799 -0.43952,-1.788679 0,0 0,-10e-7 0,-10e-7 0.0585,-1.329679 0.43183,-2.397949 0.76516,-3.180336 1.44866,-3.64398 3.19046,-5.514167 3.76323,-5.227783 z"
       id="path14-8-7"
       inkscape:path-effect="#path-effect15-2-9"
       inkscape:original-d="m 172.20391,87.321529 c -1.21958,2.439149 -4.14655,9.512681 -1.95132,9.512681 2.19523,0 11.464,0.975659 11.464,0.975659 l 0.97566,-9.02485"
       transform="translate(37.549536,3.140785)" />
    <path
       style="fill:#000000;stroke:none;stroke-width:0.3;paint-order:stroke fill markers"
       d="m 172.20391,87.321529 c 0.57277,0.286384 -0.10254,2.634159 -0.7492,6.114259 -0.13395,0.805457 -0.30805,1.637662 -0.21049,2.21628 0,0 0,0 0,0 0.0764,0.174688 0.035,0.171011 -0.047,-0.119385 -0.3054,-0.368093 -0.58326,-0.557308 -0.94465,-0.56521 0.99899,-0.0365 1.92851,0.01591 2.86212,0.07222 0.77953,0.04548 1.57148,0.105145 2.37768,0.177576 0.50216,0.04512 0.99811,0.09413 1.48565,0.14596 1.19035,0.126486 2.33938,0.271511 3.43009,0.429013 l 0,0 c 0.36774,0.0531 0.72897,0.107636 1.08358,0.163608 l 0,0 c 0,0 0,3e-6 0,3e-6 -0.23395,0.286667 -0.46344,0.569487 -0.6884,0.848432 l 0,0 0,0 c -0.008,-0.0019 0.0818,0.01995 0.0739,0.01802 0.01,0.0024 0.0173,0.0042 0.0272,0.0066 0.13784,-4.578821 0.87768,-8.142282 1.78785,-8.043885 0.89517,0.09678 0.86459,3.940423 -0.16356,10.005808 -0.0123,1.48e-4 -0.0198,2.23e-4 -0.0321,3.8e-4 -0.004,5.3e-5 -0.0832,0.0011 -0.0872,0.0012 l 0,0 0,0 c -0.0144,0.0088 -1.27812,0.776881 -1.29257,0.785649 0,0 -1e-5,3e-6 -1e-5,3e-6 l 0,0 c -0.35535,-0.01751 -0.71782,-0.03696 -1.08608,-0.05838 l 0,0 c -1.09399,-0.06363 -2.23839,-0.144656 -3.42107,-0.241419 -0.4856,-0.03972 -0.97539,-0.08208 -1.47086,-0.126611 -0.78868,-0.07088 -1.5746,-0.14572 -2.32631,-0.21898 -0.98424,-0.09285 -1.76085,-0.194202 -2.55995,-0.231695 -0.83605,-0.0079 -1.58132,-0.425109 -2.13755,-1.182619 -0.39983,-0.783607 -0.50336,-1.395799 -0.43952,-1.788679 0,0 0,-10e-7 0,-10e-7 0.0585,-1.329679 0.43183,-2.397949 0.76516,-3.180336 1.44866,-3.64398 3.19046,-5.514167 3.76323,-5.227783 z"
       id="path14-8-7-1"
       inkscape:path-effect="#path-effect15-2-9-3"
       inkscape:original-d="m 172.20391,87.321529 c -1.21958,2.439149 -4.14655,9.512681 -1.95132,9.512681 2.19523,0 11.464,0.975659 11.464,0.975659 l 0.97566,-9.02485"
       transform="translate(56.324304,3.140785)" />
    <path
       style="fill:#000000;stroke:none;stroke-width:0.3;paint-order:stroke fill markers"
       d="m 172.20391,87.321529 c 0.57277,0.286384 -0.10254,2.634159 -0.7492,6.114259 -0.13395,0.805457 -0.30805,1.637662 -0.21049,2.21628 0,0 0,0 0,0 0.0764,0.174688 0.035,0.171011 -0.047,-0.119385 -0.3054,-0.368093 -0.58326,-0.557308 -0.94465,-0.56521 0.99899,-0.0365 1.92851,0.01591 2.86212,0.07222 0.77953,0.04548 1.57148,0.105145 2.37768,0.177576 0.50216,0.04512 0.99811,0.09413 1.48565,0.14596 1.19035,0.126486 2.33938,0.271511 3.43009,0.429013 l 0,0 c 0.36774,0.0531 0.72897,0.107636 1.08358,0.163608 l 0,0 c 0,0 0,3e-6 0,3e-6 -0.23395,0.286667 -0.46344,0.569487 -0.6884,0.848432 l 0,0 0,0 c -0.008,-0.0019 0.0818,0.01995 0.0739,0.01802 0.01,0.0024 0.0173,0.0042 0.0272,0.0066 0.13784,-4.578821 0.87768,-8.142282 1.78785,-8.043885 0.89517,0.09678 0.86459,3.940423 -0.16356,10.005808 -0.0123,1.48e-4 -0.0198,2.23e-4 -0.0321,3.8e-4 -0.004,5.3e-5 -0.0832,0.0011 -0.0872,0.0012 l 0,0 0,0 c -0.0144,0.0088 -1.27812,0.776881 -1.29257,0.785649 0,0 -1e-5,3e-6 -1e-5,3e-6 l 0,0 c -0.35535,-0.01751 -0.71782,-0.03696 -1.08608,-0.05838 l 0,0 c -1.09399,-0.06363 -2.23839,-0.144656 -3.42107,-0.241419 -0.4856,-0.03972 -0.97539,-0.08208 -1.47086,-0.126611 -0.78868,-0.07088 -1.5746,-0.14572 -2.32631,-0.21898 -0.98424,-0.09285 -1.76085,-0.194202 -2.55995,-0.231695 -0.83605,-0.0079 -1.58132,-0.425109 -2.13755,-1.182619 -0.39983,-0.783607 -0.50336,-1.395799 -0.43952,-1.788679 0,0 0,-10e-7 0,-10e-7 0.0585,-1.329679 0.43183,-2.397949 0.76516,-3.180336 1.44866,-3.64398 3.19046,-5.514167 3.76323,-5.227783 z"
       id="path14-0"
       inkscape:path-effect="#path-effect15-20"
       inkscape:original-d="m 172.20391,87.321529 c -1.21958,2.439149 -4.14655,9.512681 -1.95132,9.512681 2.19523,0 11.464,0.975659 11.464,0.975659 l 0.97566,-9.02485"
       transform="translate(-0.59860744,19.607093)" />
    <path
       style="fill:#000000;stroke:none;stroke-width:0.3;paint-order:stroke fill markers"
       d="m 172.20391,87.321529 c 0.57277,0.286384 -0.10254,2.634159 -0.7492,6.114259 -0.13395,0.805457 -0.30805,1.637662 -0.21049,2.21628 0,0 0,0 0,0 0.0764,0.174688 0.035,0.171011 -0.047,-0.119385 -0.3054,-0.368093 -0.58326,-0.557308 -0.94465,-0.56521 0.99899,-0.0365 1.92851,0.01591 2.86212,0.07222 0.77953,0.04548 1.57148,0.105145 2.37768,0.177576 0.50216,0.04512 0.99811,0.09413 1.48565,0.14596 1.19035,0.126486 2.33938,0.271511 3.43009,0.429013 l 0,0 c 0.36774,0.0531 0.72897,0.107636 1.08358,0.163608 l 0,0 c 0,0 0,3e-6 0,3e-6 -0.23395,0.286667 -0.46344,0.569487 -0.6884,0.848432 l 0,0 0,0 c -0.008,-0.0019 0.0818,0.01995 0.0739,0.01802 0.01,0.0024 0.0173,0.0042 0.0272,0.0066 0.13784,-4.578821 0.87768,-8.142282 1.78785,-8.043885 0.89517,0.09678 0.86459,3.940423 -0.16356,10.005808 -0.0123,1.48e-4 -0.0198,2.23e-4 -0.0321,3.8e-4 -0.004,5.3e-5 -0.0832,0.0011 -0.0872,0.0012 l 0,0 0,0 c -0.0144,0.0088 -1.27812,0.776881 -1.29257,0.785649 0,0 -1e-5,3e-6 -1e-5,3e-6 l 0,0 c -0.35535,-0.01751 -0.71782,-0.03696 -1.08608,-0.05838 l 0,0 c -1.09399,-0.06363 -2.23839,-0.144656 -3.42107,-0.241419 -0.4856,-0.03972 -0.97539,-0.08208 -1.47086,-0.126611 -0.78868,-0.07088 -1.5746,-0.14572 -2.32631,-0.21898 -0.98424,-0.09285 -1.76085,-0.194202 -2.55995,-0.231695 -0.83605,-0.0079 -1.58132,-0.425109 -2.13755,-1.182619 -0.39983,-0.783607 -0.50336,-1.395799 -0.43952,-1.788679 0,0 0,-10e-7 0,-10e-7 0.0585,-1.329679 0.43183,-2.397949 0.76516,-3.180336 1.44866,-3.64398 3.19046,-5.514167 3.76323,-5.227783 z"
       id="path14-8-6"
       inkscape:path-effect="#path-effect15-2-1"
       inkscape:original-d="m 172.20391,87.321529 c -1.21958,2.439149 -4.14655,9.512681 -1.95132,9.512681 2.19523,0 11.464,0.975659 11.464,0.975659 l 0.97566,-9.02485"
       transform="translate(18.176161,19.607093)" />
    <path
       style="fill:#000000;stroke:none;stroke-width:0.3;paint-order:stroke fill markers"
       d="m 172.20391,87.321529 c 0.57277,0.286384 -0.10254,2.634159 -0.7492,6.114259 -0.13395,0.805457 -0.30805,1.637662 -0.21049,2.21628 0,0 0,0 0,0 0.0764,0.174688 0.035,0.171011 -0.047,-0.119385 -0.3054,-0.368093 -0.58326,-0.557308 -0.94465,-0.56521 0.99899,-0.0365 1.92851,0.01591 2.86212,0.07222 0.77953,0.04548 1.57148,0.105145 2.37768,0.177576 0.50216,0.04512 0.99811,0.09413 1.48565,0.14596 1.19035,0.126486 2.33938,0.271511 3.43009,0.429013 l 0,0 c 0.36774,0.0531 0.72897,0.107636 1.08358,0.163608 l 0,0 c 0,0 0,3e-6 0,3e-6 -0.23395,0.286667 -0.46344,0.569487 -0.6884,0.848432 l 0,0 0,0 c -0.008,-0.0019 0.0818,0.01995 0.0739,0.01802 0.01,0.0024 0.0173,0.0042 0.0272,0.0066 0.13784,-4.578821 0.87768,-8.142282 1.78785,-8.043885 0.89517,0.09678 0.86459,3.940423 -0.16356,10.005808 -0.0123,1.48e-4 -0.0198,2.23e-4 -0.0321,3.8e-4 -0.004,5.3e-5 -0.0832,0.0011 -0.0872,0.0012 l 0,0 0,0 c -0.0144,0.0088 -1.27812,0.776881 -1.29257,0.785649 0,0 -1e-5,3e-6 -1e-5,3e-6 l 0,0 c -0.35535,-0.01751 -0.71782,-0.03696 -1.08608,-0.05838 l 0,0 c -1.09399,-0.06363 -2.23839,-0.144656 -3.42107,-0.241419 -0.4856,-0.03972 -0.97539,-0.08208 -1.47086,-0.126611 -0.78868,-0.07088 -1.5746,-0.14572 -2.32631,-0.21898 -0.98424,-0.09285 -1.76085,-0.194202 -2.55995,-0.231695 -0.83605,-0.0079 -1.58132,-0.425109 -2.13755,-1.182619 -0.39983,-0.783607 -0.50336,-1.395799 -0.43952,-1.788679 0,0 0,-10e-7 0,-10e-7 0.0585,-1.329679 0.43183,-2.397949 0.76516,-3.180336 1.44866,-3.64398 3.19046,-5.514167 3.76323,-5.227783 z"
       id="path14-8-7-3"
       inkscape:path-effect="#path-effect15-2-9-2"
       inkscape:original-d="m 172.20391,87.321529 c -1.21958,2.439149 -4.14655,9.512681 -1.95132,9.512681 2.19523,0 11.464,0.975659 11.464,0.975659 l 0.97566,-9.02485"
       transform="translate(36.950929,19.607093)" />
    <path
       style="fill:#000000;stroke:none;stroke-width:0.3;paint-order:stroke fill markers"
       d="m 172.20391,87.321529 c 0.57277,0.286384 -0.10254,2.634159 -0.7492,6.114259 -0.13395,0.805457 -0.30805,1.637662 -0.21049,2.21628 0,0 0,0 0,0 0.0764,0.174688 0.035,0.171011 -0.047,-0.119385 -0.3054,-0.368093 -0.58326,-0.557308 -0.94465,-0.56521 0.99899,-0.0365 1.92851,0.01591 2.86212,0.07222 0.77953,0.04548 1.57148,0.105145 2.37768,0.177576 0.50216,0.04512 0.99811,0.09413 1.48565,0.14596 1.19035,0.126486 2.33938,0.271511 3.43009,0.429013 l 0,0 c 0.36774,0.0531 0.72897,0.107636 1.08358,0.163608 l 0,0 c 0,0 0,3e-6 0,3e-6 -0.23395,0.286667 -0.46344,0.569487 -0.6884,0.848432 l 0,0 0,0 c -0.008,-0.0019 0.0818,0.01995 0.0739,0.01802 0.01,0.0024 0.0173,0.0042 0.0272,0.0066 0.13784,-4.578821 0.87768,-8.142282 1.78785,-8.043885 0.89517,0.09678 0.86459,3.940423 -0.16356,10.005808 -0.0123,1.48e-4 -0.0198,2.23e-4 -0.0321,3.8e-4 -0.004,5.3e-5 -0.0832,0.0011 -0.0872,0.0012 l 0,0 0,0 c -0.0144,0.0088 -1.27812,0.776881 -1.29257,0.785649 0,0 -1e-5,3e-6 -1e-5,3e-6 l 0,0 c -0.35535,-0.01751 -0.71782,-0.03696 -1.08608,-0.05838 l 0,0 c -1.09399,-0.06363 -2.23839,-0.144656 -3.42107,-0.241419 -0.4856,-0.03972 -0.97539,-0.08208 -1.47086,-0.126611 -0.78868,-0.07088 -1.5746,-0.14572 -2.32631,-0.21898 -0.98424,-0.09285 -1.76085,-0.194202 -2.55995,-0.231695 -0.83605,-0.0079 -1.58132,-0.425109 -2.13755,-1.182619 -0.39983,-0.783607 -0.50336,-1.395799 -0.43952,-1.788679 0,0 0,-10e-7 0,-10e-7 0.0585,-1.329679 0.43183,-2.397949 0.76516,-3.180336 1.44866,-3.64398 3.19046,-5.514167 3.76323,-5.227783 z"
       id="path14-8-7-1-6"
       inkscape:path-effect="#path-effect15-2-9-3-0"
       inkscape:original-d="m 172.20391,87.321529 c -1.21958,2.439149 -4.14655,9.512681 -1.95132,9.512681 2.19523,0 11.464,0.975659 11.464,0.975659 l 0.97566,-9.02485"
       transform="translate(55.725697,19.607093)" />
  </g>
</svg>
